<ttFont>
    <TTGlyph name="A" xMin="4" yMin="-13" xMax="1623" yMax="1419">
      <contour>
        <pt x="875" y="1411" on="1"/>
        <pt x="929" y="1384" on="0"/>
        <pt x="1011" y="1316" on="0"/>
        <pt x="1031" y="1263" on="1"/>
        <pt x="1095" y="1090" on="0"/>
        <pt x="1204" y="800" on="0"/>
        <pt x="1295" y="554" on="0"/>
        <pt x="1371" y="350" on="0"/>
        <pt x="1404" y="263" on="1"/>
        <pt x="1415" y="233" on="0"/>
        <pt x="1431" y="192" on="0"/>
        <pt x="1443" y="164" on="0"/>
        <pt x="1452" y="147" on="0"/>
        <pt x="1456" y="141" on="1"/>
        <pt x="1466" y="139" on="0"/>
        <pt x="1488" y="135" on="0"/>
        <pt x="1520" y="132" on="0"/>
        <pt x="1564" y="129" on="0"/>
        <pt x="1596" y="127" on="1"/>
        <pt x="1623" y="-13" on="1"/>
        <pt x="1517" y="-4" on="0"/>
        <pt x="1359" y="0" on="0"/>
        <pt x="1307" y="0" on="1"/>
        <pt x="1288" y="0" on="0"/>
        <pt x="1223" y="-1" on="0"/>
        <pt x="1141" y="-4" on="0"/>
        <pt x="1048" y="-9" on="0"/>
        <pt x="1001" y="-13" on="1"/>
        <pt x="991" y="120" on="1"/>
        <pt x="1010" y="120" on="0"/>
        <pt x="1046" y="124" on="0"/>
        <pt x="1075" y="130" on="0"/>
        <pt x="1093" y="141" on="0"/>
        <pt x="1093" y="149" on="1"/>
        <pt x="1088" y="179" on="0"/>
        <pt x="1069" y="246" on="0"/>
        <pt x="1056" y="281" on="1"/>
        <pt x="1010" y="407" on="1"/>
        <pt x="549" y="407" on="1"/>
        <pt x="511" y="286" on="1"/>
        <pt x="497" y="244" on="0"/>
        <pt x="483" y="184" on="0"/>
        <pt x="483" y="159" on="1"/>
        <pt x="483" y="147" on="0"/>
        <pt x="507" y="133" on="0"/>
        <pt x="540" y="126" on="0"/>
        <pt x="577" y="123" on="0"/>
        <pt x="591" y="122" on="1"/>
        <pt x="574" y="-13" on="1"/>
        <pt x="519" y="-5" on="0"/>
        <pt x="391" y="0" on="0"/>
        <pt x="317" y="0" on="1"/>
        <pt x="219" y="0" on="0"/>
        <pt x="68" y="-5" on="0"/>
        <pt x="4" y="-13" on="1"/>
        <pt x="37" y="124" on="1"/>
        <pt x="74" y="126" on="1"/>
        <pt x="108" y="126" on="0"/>
        <pt x="155" y="144" on="0"/>
        <pt x="187" y="177" on="0"/>
        <pt x="210" y="224" on="0"/>
        <pt x="221" y="253" on="1"/>
        <pt x="264" y="370" on="0"/>
        <pt x="375" y="656" on="0"/>
        <pt x="495" y="964" on="0"/>
        <pt x="619" y="1276" on="0"/>
        <pt x="675" y="1419" on="1"/>
        <pt x="782" y="1419" on="1"/>
        <pt x="813" y="1419" on="0"/>
        <pt x="855" y="1415" on="0"/>
      </contour>
      <contour>
        <pt x="781" y="1144" on="1"/>
        <pt x="774" y="1144" on="1"/>
        <pt x="581" y="534" on="1"/>
        <pt x="970" y="534" on="1"/>
        <pt x="949" y="601" on="0"/>
        <pt x="902" y="752" on="0"/>
        <pt x="854" y="910" on="0"/>
        <pt x="805" y="1069" on="0"/>
      </contour>
    </TTGlyph>
    <TTGlyph name="AE" xMin="0" yMin="-13" xMax="2205" yMax="1413">
      <contour>
        <pt x="619" y="534" on="1"/>
        <pt x="1007" y="534" on="1"/>
        <pt x="866" y="1096" on="1"/>
      </contour>
      <contour>
        <pt x="1320" y="0" on="1"/>
        <pt x="1290" y="0" on="0"/>
        <pt x="1212" y="-2" on="0"/>
        <pt x="1125" y="-5" on="0"/>
        <pt x="1034" y="-10" on="0"/>
        <pt x="991" y="-13" on="1"/>
        <pt x="991" y="120" on="1"/>
        <pt x="1033" y="124" on="1"/>
        <pt x="1043" y="124" on="0"/>
        <pt x="1065" y="127" on="0"/>
        <pt x="1085" y="131" on="0"/>
        <pt x="1098" y="140" on="0"/>
        <pt x="1098" y="146" on="1"/>
        <pt x="1098" y="151" on="0"/>
        <pt x="1097" y="162" on="0"/>
        <pt x="1096" y="170" on="1"/>
        <pt x="1087" y="221" on="0"/>
        <pt x="1054" y="347" on="0"/>
        <pt x="1039" y="407" on="1"/>
        <pt x="579" y="407" on="1"/>
        <pt x="519" y="258" on="1"/>
        <pt x="506" y="226" on="0"/>
        <pt x="491" y="177" on="0"/>
        <pt x="491" y="160" on="1"/>
        <pt x="491" y="146" on="0"/>
        <pt x="515" y="132" on="0"/>
        <pt x="549" y="125" on="0"/>
        <pt x="585" y="123" on="0"/>
        <pt x="597" y="122" on="1"/>
        <pt x="569" y="-13" on="1"/>
        <pt x="509" y="-5" on="0"/>
        <pt x="359" y="0" on="0"/>
        <pt x="269" y="0" on="1"/>
        <pt x="188" y="0" on="0"/>
        <pt x="60" y="-5" on="0"/>
        <pt x="0" y="-13" on="1"/>
        <pt x="44" y="124" on="1"/>
        <pt x="81" y="126" on="1"/>
        <pt x="106" y="128" on="0"/>
        <pt x="147" y="134" on="0"/>
        <pt x="167" y="142" on="1"/>
        <pt x="188" y="160" on="0"/>
        <pt x="220" y="220" on="0"/>
        <pt x="236" y="257" on="1"/>
        <pt x="257" y="306" on="0"/>
        <pt x="324" y="449" on="0"/>
        <pt x="408" y="626" on="0"/>
        <pt x="508" y="833" on="0"/>
        <pt x="615" y="1057" on="0"/>
        <pt x="727" y="1294" on="0"/>
        <pt x="782" y="1413" on="1"/>
        <pt x="1746" y="1413" on="1"/>
        <pt x="1809" y="1284" on="1"/>
        <pt x="1832" y="1235" on="0"/>
        <pt x="1876" y="1139" on="0"/>
        <pt x="1891" y="1107" on="1"/>
        <pt x="1714" y="1090" on="1"/>
        <pt x="1697" y="1126" on="0"/>
        <pt x="1661" y="1199" on="0"/>
        <pt x="1635" y="1235" on="1"/>
        <pt x="1580" y="1249" on="0"/>
        <pt x="1454" y="1259" on="0"/>
        <pt x="1373" y="1259" on="1"/>
        <pt x="1331" y="1259" on="0"/>
        <pt x="1216" y="1258" on="0"/>
        <pt x="1130" y="1257" on="1"/>
        <pt x="1263" y="788" on="1"/>
        <pt x="1452" y="788" on="1"/>
        <pt x="1502" y="788" on="0"/>
        <pt x="1537" y="810" on="1"/>
        <pt x="1547" y="814" on="0"/>
        <pt x="1564" y="826" on="0"/>
        <pt x="1576" y="848" on="0"/>
        <pt x="1583" y="883" on="0"/>
        <pt x="1583" y="910" on="1"/>
        <pt x="1682" y="910" on="1"/>
        <pt x="1712" y="810" on="0"/>
        <pt x="1767" y="611" on="0"/>
        <pt x="1793" y="517" on="1"/>
        <pt x="1784" y="516" on="0"/>
        <pt x="1766" y="516" on="0"/>
        <pt x="1757" y="516" on="1"/>
        <pt x="1740" y="516" on="0"/>
        <pt x="1705" y="517" on="0"/>
        <pt x="1688" y="517" on="1"/>
        <pt x="1667" y="554" on="0"/>
        <pt x="1633" y="604" on="0"/>
        <pt x="1602" y="636" on="0"/>
        <pt x="1568" y="650" on="0"/>
        <pt x="1547" y="650" on="1"/>
        <pt x="1305" y="650" on="1"/>
        <pt x="1448" y="146" on="1"/>
        <pt x="1751" y="146" on="1"/>
        <pt x="1783" y="146" on="0"/>
        <pt x="1845" y="147" on="0"/>
        <pt x="1898" y="151" on="0"/>
        <pt x="1938" y="161" on="0"/>
        <pt x="1949" y="170" on="1"/>
        <pt x="1949" y="188" on="0"/>
        <pt x="1946" y="222" on="0"/>
        <pt x="1941" y="261" on="0"/>
        <pt x="1933" y="310" on="0"/>
        <pt x="1928" y="343" on="1"/>
        <pt x="1979" y="343" on="0"/>
        <pt x="2071" y="341" on="0"/>
        <pt x="2122" y="341" on="1"/>
        <pt x="2143" y="263" on="0"/>
        <pt x="2186" y="95" on="0"/>
        <pt x="2205" y="18" on="1"/>
        <pt x="2163" y="11" on="0"/>
        <pt x="2077" y="1" on="0"/>
        <pt x="1984" y="-5" on="0"/>
        <pt x="1877" y="-8" on="0"/>
        <pt x="1814" y="-8" on="1"/>
        <pt x="1686" y="-8" on="0"/>
        <pt x="1447" y="0" on="0"/>
      </contour>
    </TTGlyph>
    <TTGlyph name="Aacute" xMin="4" yMin="-13" xMax="1623" yMax="1903">
      <component glyphName="acute" x="274" y="366" flags="0x1004"/>
      <component glyphName="A" x="0" y="0" flags="0x1204"/>
    </TTGlyph>
    <TTGlyph name="Acircumflex" xMin="4" yMin="-13" xMax="1623" yMax="1894">
      <component glyphName="circumflex" x="126" y="351" flags="0x1004"/>
      <component glyphName="A" x="0" y="0" flags="0x1204"/>
    </TTGlyph>
    <TTGlyph name="Adieresis" xMin="4" yMin="-13" xMax="1623" yMax="1870">
      <component glyphName="dieresis" x="185" y="458" flags="0x1004"/>
      <component glyphName="A" x="0" y="0" flags="0x1204"/>
    </TTGlyph>
    <TTGlyph name="Agrave" xMin="4" yMin="-13" xMax="1623" yMax="1904">
      <component glyphName="grave" x="-22" y="367" flags="0x1004"/>
      <component glyphName="A" x="0" y="0" flags="0x1204"/>
    </TTGlyph>
    <TTGlyph name="Aring" xMin="4" yMin="-13" xMax="1623" yMax="1836">
      <component glyphName="ring" x="416" y="247" flags="0x1004"/>
      <component glyphName="A" x="0" y="0" flags="0x1204"/>
    </TTGlyph>
    <TTGlyph name="Atilde" xMin="4" yMin="-13" xMax="1623" yMax="1817">
      <component glyphName="tilde" x="142" y="307" flags="0x1004"/>
      <component glyphName="A" x="0" y="0" flags="0x1204"/>
    </TTGlyph>
    <TTGlyph name="B" xMin="68" yMin="-5" xMax="1384" yMax="1421">
      <contour>
        <pt x="287" y="267" on="1"/>
        <pt x="287" y="1124" on="1"/>
        <pt x="287" y="1202" on="0"/>
        <pt x="275" y="1250" on="1"/>
        <pt x="254" y="1251" on="0"/>
        <pt x="209" y="1252" on="0"/>
        <pt x="185" y="1252" on="1"/>
        <pt x="156" y="1252" on="0"/>
        <pt x="97" y="1251" on="0"/>
        <pt x="68" y="1250" on="1"/>
        <pt x="68" y="1389" on="1"/>
        <pt x="225" y="1405" on="0"/>
        <pt x="579" y="1421" on="0"/>
        <pt x="788" y="1421" on="1"/>
        <pt x="1349" y="1421" on="0"/>
        <pt x="1349" y="1039" on="1"/>
        <pt x="1349" y="987" on="0"/>
        <pt x="1311" y="889" on="0"/>
        <pt x="1240" y="806" on="0"/>
        <pt x="1138" y="744" on="0"/>
        <pt x="1074" y="727" on="1"/>
        <pt x="1384" y="664" on="0"/>
        <pt x="1384" y="388" on="1"/>
        <pt x="1384" y="294" on="0"/>
        <pt x="1325" y="163" on="0"/>
        <pt x="1220" y="76" on="0"/>
        <pt x="1077" y="26" on="0"/>
        <pt x="908" y="1" on="0"/>
        <pt x="721" y="-5" on="0"/>
        <pt x="626" y="-5" on="1"/>
        <pt x="480" y="-5" on="0"/>
        <pt x="213" y="-2" on="0"/>
        <pt x="85" y="-2" on="1"/>
        <pt x="85" y="146" on="1"/>
        <pt x="165" y="146" on="1"/>
        <pt x="189" y="146" on="0"/>
        <pt x="233" y="147" on="0"/>
        <pt x="253" y="150" on="1"/>
        <pt x="276" y="161" on="0"/>
        <pt x="287" y="225" on="0"/>
      </contour>
      <contour>
        <pt x="1028" y="1033" on="1"/>
        <pt x="1028" y="1152" on="0"/>
        <pt x="895" y="1270" on="0"/>
        <pt x="744" y="1270" on="1"/>
        <pt x="709" y="1270" on="0"/>
        <pt x="662" y="1269" on="0"/>
        <pt x="631" y="1267" on="0"/>
        <pt x="614" y="1265" on="0"/>
        <pt x="609" y="1265" on="1"/>
        <pt x="609" y="789" on="1"/>
        <pt x="632" y="788" on="0"/>
        <pt x="678" y="786" on="0"/>
        <pt x="702" y="786" on="1"/>
        <pt x="777" y="786" on="0"/>
        <pt x="898" y="815" on="0"/>
        <pt x="983" y="876" on="0"/>
        <pt x="1028" y="969" on="0"/>
      </contour>
      <contour>
        <pt x="609" y="644" on="1"/>
        <pt x="609" y="146" on="1"/>
        <pt x="706" y="143" on="0"/>
        <pt x="794" y="143" on="1"/>
        <pt x="931" y="143" on="0"/>
        <pt x="1058" y="267" on="0"/>
        <pt x="1058" y="381" on="1"/>
        <pt x="1058" y="460" on="0"/>
        <pt x="1012" y="563" on="0"/>
        <pt x="916" y="623" on="0"/>
        <pt x="769" y="646" on="0"/>
        <pt x="668" y="646" on="1"/>
        <pt x="652" y="646" on="0"/>
        <pt x="622" y="645" on="0"/>
      </contour>
    </TTGlyph>
    <TTGlyph name="C" xMin="115" yMin="-36" xMax="1370" yMax="1436">
      <contour>
        <pt x="1351" y="263" on="1"/>
        <pt x="1370" y="96" on="1"/>
        <pt x="1259" y="31" on="0"/>
        <pt x="998" y="-36" on="0"/>
        <pt x="842" y="-36" on="1"/>
        <pt x="679" y="-36" on="0"/>
        <pt x="411" y="55" on="0"/>
        <pt x="220" y="234" on="0"/>
        <pt x="115" y="499" on="0"/>
        <pt x="115" y="673" on="1"/>
        <pt x="115" y="857" on="0"/>
        <pt x="216" y="1142" on="0"/>
        <pt x="408" y="1336" on="0"/>
        <pt x="687" y="1436" on="0"/>
        <pt x="865" y="1436" on="1"/>
        <pt x="938" y="1436" on="0"/>
        <pt x="1076" y="1418" on="0"/>
        <pt x="1201" y="1386" on="0"/>
        <pt x="1307" y="1343" on="0"/>
        <pt x="1348" y="1319" on="1"/>
        <pt x="1325" y="1009" on="1"/>
        <pt x="1135" y="1009" on="1"/>
        <pt x="1123" y="1060" on="0"/>
        <pt x="1080" y="1160" on="0"/>
        <pt x="1014" y="1239" on="0"/>
        <pt x="922" y="1289" on="0"/>
        <pt x="861" y="1289" on="1"/>
        <pt x="758" y="1289" on="0"/>
        <pt x="607" y="1208" on="0"/>
        <pt x="507" y="1058" on="0"/>
        <pt x="458" y="846" on="0"/>
        <pt x="458" y="715" on="1"/>
        <pt x="458" y="421" on="0"/>
        <pt x="670" y="127" on="0"/>
        <pt x="863" y="127" on="1"/>
        <pt x="928" y="127" on="0"/>
        <pt x="1050" y="147" on="0"/>
        <pt x="1170" y="183" on="0"/>
        <pt x="1289" y="233" on="0"/>
      </contour>
    </TTGlyph>
    <TTGlyph name="Ccedilla" xMin="115" yMin="-498" xMax="1370" yMax="1436">
      <component glyphName="C" x="0" y="0" flags="0x1204"/>
      <component glyphName="cedilla" x="389" y="0" flags="0x1004"/>
    </TTGlyph>
    <TTGlyph name="D" xMin="68" yMin="-7" xMax="1548" yMax="1421">
      <contour>
        <pt x="599" y="1262" on="1"/>
        <pt x="599" y="148" on="1"/>
        <pt x="609" y="146" on="0"/>
        <pt x="628" y="146" on="0"/>
        <pt x="638" y="146" on="1"/>
        <pt x="787" y="146" on="0"/>
        <pt x="1002" y="202" on="0"/>
        <pt x="1140" y="333" on="0"/>
        <pt x="1206" y="546" on="0"/>
        <pt x="1206" y="703" on="1"/>
        <pt x="1206" y="848" on="0"/>
        <pt x="1160" y="1060" on="0"/>
        <pt x="1057" y="1198" on="0"/>
        <pt x="889" y="1265" on="0"/>
        <pt x="768" y="1265" on="1"/>
        <pt x="728" y="1265" on="0"/>
        <pt x="645" y="1262" on="0"/>
      </contour>
      <contour>
        <pt x="594" y="0" on="1"/>
        <pt x="463" y="0" on="0"/>
        <pt x="209" y="-5" on="0"/>
        <pt x="79" y="-7" on="1"/>
        <pt x="79" y="139" on="1"/>
        <pt x="155" y="140" on="1"/>
        <pt x="179" y="140" on="0"/>
        <pt x="225" y="143" on="0"/>
        <pt x="247" y="148" on="1"/>
        <pt x="269" y="161" on="0"/>
        <pt x="281" y="223" on="0"/>
        <pt x="281" y="267" on="1"/>
        <pt x="281" y="1120" on="1"/>
        <pt x="281" y="1160" on="0"/>
        <pt x="274" y="1223" on="0"/>
        <pt x="269" y="1249" on="1"/>
        <pt x="246" y="1253" on="0"/>
        <pt x="195" y="1254" on="0"/>
        <pt x="168" y="1254" on="1"/>
        <pt x="68" y="1254" on="1"/>
        <pt x="68" y="1392" on="1"/>
        <pt x="221" y="1406" on="0"/>
        <pt x="581" y="1421" on="0"/>
        <pt x="800" y="1421" on="1"/>
        <pt x="971" y="1421" on="0"/>
        <pt x="1247" y="1346" on="0"/>
        <pt x="1442" y="1175" on="0"/>
        <pt x="1548" y="899" on="0"/>
        <pt x="1548" y="697" on="1"/>
        <pt x="1548" y="550" on="0"/>
        <pt x="1483" y="333" on="0"/>
        <pt x="1364" y="178" on="0"/>
        <pt x="1193" y="79" on="0"/>
        <pt x="981" y="22" on="0"/>
        <pt x="732" y="0" on="0"/>
      </contour>
    </TTGlyph>
    <TTGlyph name="E" xMin="68" yMin="-8" xMax="1333" yMax="1413">
      <contour>
        <pt x="664" y="1413" on="1"/>
        <pt x="1267" y="1413" on="1"/>
        <pt x="1292" y="1284" on="1"/>
        <pt x="1301" y="1235" on="0"/>
        <pt x="1317" y="1139" on="0"/>
        <pt x="1322" y="1107" on="1"/>
        <pt x="1138" y="1090" on="1"/>
        <pt x="1132" y="1126" on="0"/>
        <pt x="1117" y="1198" on="0"/>
        <pt x="1103" y="1235" on="1"/>
        <pt x="1054" y="1248" on="0"/>
        <pt x="940" y="1259" on="0"/>
        <pt x="867" y="1259" on="1"/>
        <pt x="848" y="1259" on="0"/>
        <pt x="801" y="1259" on="0"/>
        <pt x="739" y="1258" on="0"/>
        <pt x="657" y="1256" on="0"/>
        <pt x="603" y="1255" on="1"/>
        <pt x="603" y="788" on="1"/>
        <pt x="835" y="788" on="1"/>
        <pt x="867" y="788" on="0"/>
        <pt x="906" y="798" on="0"/>
        <pt x="931" y="825" on="0"/>
        <pt x="948" y="873" on="0"/>
        <pt x="958" y="910" on="1"/>
        <pt x="1058" y="910" on="1"/>
        <pt x="1058" y="810" on="0"/>
        <pt x="1054" y="611" on="0"/>
        <pt x="1051" y="517" on="1"/>
        <pt x="1042" y="516" on="0"/>
        <pt x="1024" y="516" on="0"/>
        <pt x="1015" y="516" on="1"/>
        <pt x="998" y="516" on="0"/>
        <pt x="963" y="517" on="0"/>
        <pt x="946" y="517" on="1"/>
        <pt x="935" y="557" on="0"/>
        <pt x="916" y="609" on="0"/>
        <pt x="893" y="639" on="0"/>
        <pt x="865" y="650" on="0"/>
        <pt x="846" y="650" on="1"/>
        <pt x="603" y="650" on="1"/>
        <pt x="603" y="146" on="1"/>
        <pt x="974" y="146" on="1"/>
        <pt x="1021" y="146" on="0"/>
        <pt x="1092" y="159" on="0"/>
        <pt x="1109" y="170" on="1"/>
        <pt x="1117" y="192" on="0"/>
        <pt x="1131" y="274" on="0"/>
        <pt x="1139" y="343" on="1"/>
        <pt x="1183" y="342" on="0"/>
        <pt x="1280" y="341" on="0"/>
        <pt x="1333" y="341" on="1"/>
        <pt x="1330" y="214" on="1"/>
        <pt x="1328" y="164" on="0"/>
        <pt x="1323" y="61" on="0"/>
        <pt x="1320" y="18" on="1"/>
        <pt x="1276" y="11" on="0"/>
        <pt x="1189" y="1" on="0"/>
        <pt x="1093" y="-5" on="0"/>
        <pt x="986" y="-8" on="0"/>
        <pt x="923" y="-8" on="1"/>
        <pt x="846" y="-8" on="0"/>
        <pt x="710" y="-6" on="0"/>
        <pt x="584" y="-3" on="0"/>
        <pt x="467" y="0" on="0"/>
        <pt x="410" y="0" on="1"/>
        <pt x="316" y="0" on="0"/>
        <pt x="155" y="-2" on="0"/>
        <pt x="74" y="-7" on="1"/>
        <pt x="74" y="146" on="1"/>
        <pt x="186" y="146" on="1"/>
        <pt x="210" y="146" on="0"/>
        <pt x="253" y="147" on="0"/>
        <pt x="273" y="150" on="1"/>
        <pt x="278" y="170" on="0"/>
        <pt x="284" y="219" on="0"/>
        <pt x="284" y="251" on="1"/>
        <pt x="284" y="1144" on="1"/>
        <pt x="284" y="1178" on="0"/>
        <pt x="277" y="1228" on="0"/>
        <pt x="272" y="1248" on="1"/>
        <pt x="253" y="1252" on="0"/>
        <pt x="211" y="1253" on="0"/>
        <pt x="187" y="1253" on="1"/>
        <pt x="68" y="1253" on="1"/>
        <pt x="68" y="1386" on="1"/>
        <pt x="208" y="1401" on="0"/>
        <pt x="509" y="1413" on="0"/>
      </contour>
    </TTGlyph>
    <TTGlyph name="Eacute" xMin="68" yMin="-8" xMax="1364" yMax="1903">
      <component glyphName="acute" x="512" y="366" flags="0x1004"/>
      <component glyphName="E" x="0" y="0" flags="0x1204"/>
    </TTGlyph>
    <TTGlyph name="Ecircumflex" xMin="68" yMin="-8" xMax="1333" yMax="1894">
      <component glyphName="circumflex" x="364" y="351" flags="0x1004"/>
      <component glyphName="E" x="0" y="0" flags="0x1204"/>
    </TTGlyph>
    <TTGlyph name="Edieresis" xMin="68" yMin="-8" xMax="1378" yMax="1870">
      <component glyphName="dieresis" x="422" y="458" flags="0x1004"/>
      <component glyphName="E" x="0" y="0" flags="0x1204"/>
    </TTGlyph>
    <TTGlyph name="Egrave" xMin="68" yMin="-8" xMax="1333" yMax="1904">
      <component glyphName="grave" x="216" y="367" flags="0x1004"/>
      <component glyphName="E" x="0" y="0" flags="0x1204"/>
    </TTGlyph>
    <TTGlyph name="Eth" xMin="57" yMin="-7" xMax="1548" yMax="1421">
      <contour>
        <pt x="259" y="622" on="1"/>
        <pt x="58" y="622" on="1"/>
        <pt x="58" y="653" on="0"/>
        <pt x="58" y="687" on="0"/>
        <pt x="57" y="704" on="0"/>
        <pt x="57" y="709" on="0"/>
        <pt x="57" y="710" on="1"/>
        <pt x="57" y="738" on="0"/>
        <pt x="87" y="769" on="0"/>
        <pt x="126" y="784" on="0"/>
        <pt x="166" y="787" on="0"/>
        <pt x="177" y="787" on="1"/>
        <pt x="182" y="787" on="0"/>
        <pt x="198" y="787" on="0"/>
        <pt x="242" y="787" on="0"/>
        <pt x="325" y="788" on="0"/>
        <pt x="471" y="788" on="0"/>
        <pt x="693" y="788" on="0"/>
        <pt x="853" y="788" on="1"/>
        <pt x="853" y="708" on="1"/>
        <pt x="853" y="695" on="0"/>
        <pt x="841" y="665" on="0"/>
        <pt x="814" y="639" on="0"/>
        <pt x="767" y="622" on="0"/>
        <pt x="733" y="622" on="1"/>
      </contour>
      <contour>
        <pt x="599" y="1262" on="1"/>
        <pt x="599" y="148" on="1"/>
        <pt x="609" y="146" on="0"/>
        <pt x="628" y="146" on="0"/>
        <pt x="638" y="146" on="1"/>
        <pt x="787" y="146" on="0"/>
        <pt x="1002" y="202" on="0"/>
        <pt x="1140" y="333" on="0"/>
        <pt x="1206" y="546" on="0"/>
        <pt x="1206" y="703" on="1"/>
        <pt x="1206" y="848" on="0"/>
        <pt x="1160" y="1060" on="0"/>
        <pt x="1057" y="1198" on="0"/>
        <pt x="889" y="1265" on="0"/>
        <pt x="768" y="1265" on="1"/>
        <pt x="728" y="1265" on="0"/>
        <pt x="645" y="1262" on="0"/>
      </contour>
      <contour>
        <pt x="594" y="0" on="1"/>
        <pt x="463" y="0" on="0"/>
        <pt x="209" y="-5" on="0"/>
        <pt x="79" y="-7" on="1"/>
        <pt x="79" y="139" on="1"/>
        <pt x="155" y="140" on="1"/>
        <pt x="179" y="140" on="0"/>
        <pt x="225" y="143" on="0"/>
        <pt x="247" y="148" on="1"/>
        <pt x="269" y="161" on="0"/>
        <pt x="281" y="223" on="0"/>
        <pt x="281" y="267" on="1"/>
        <pt x="281" y="1120" on="1"/>
        <pt x="281" y="1160" on="0"/>
        <pt x="274" y="1223" on="0"/>
        <pt x="269" y="1249" on="1"/>
        <pt x="246" y="1253" on="0"/>
        <pt x="195" y="1254" on="0"/>
        <pt x="168" y="1254" on="1"/>
        <pt x="68" y="1254" on="1"/>
        <pt x="68" y="1392" on="1"/>
        <pt x="221" y="1406" on="0"/>
        <pt x="581" y="1421" on="0"/>
        <pt x="800" y="1421" on="1"/>
        <pt x="971" y="1421" on="0"/>
        <pt x="1247" y="1346" on="0"/>
        <pt x="1442" y="1175" on="0"/>
        <pt x="1548" y="899" on="0"/>
        <pt x="1548" y="697" on="1"/>
        <pt x="1548" y="550" on="0"/>
        <pt x="1483" y="333" on="0"/>
        <pt x="1364" y="178" on="0"/>
        <pt x="1193" y="79" on="0"/>
        <pt x="981" y="22" on="0"/>
        <pt x="732" y="0" on="0"/>
      </contour>
    </TTGlyph>
    <TTGlyph name="Euro" xMin="70" yMin="-36" xMax="1455" yMax="1441">
      <contour>
        <pt x="1394" y="276" on="1"/>
        <pt x="1455" y="158" on="1"/>
        <pt x="1361" y="58" on="0"/>
        <pt x="1106" y="-36" on="0"/>
        <pt x="945" y="-36" on="1"/>
        <pt x="818" y="-36" on="0"/>
        <pt x="601" y="29" on="0"/>
        <pt x="431" y="159" on="0"/>
        <pt x="315" y="353" on="0"/>
        <pt x="290" y="483" on="1"/>
        <pt x="70" y="483" on="1"/>
        <pt x="90" y="567" on="1"/>
        <pt x="95" y="588" on="0"/>
        <pt x="111" y="612" on="0"/>
        <pt x="138" y="622" on="0"/>
        <pt x="178" y="624" on="0"/>
        <pt x="207" y="624" on="1"/>
        <pt x="272" y="624" on="1"/>
        <pt x="271" y="639" on="0"/>
        <pt x="271" y="667" on="0"/>
        <pt x="271" y="682" on="1"/>
        <pt x="271" y="697" on="0"/>
        <pt x="272" y="727" on="0"/>
        <pt x="273" y="742" on="1"/>
        <pt x="93" y="742" on="1"/>
        <pt x="111" y="825" on="1"/>
        <pt x="115" y="846" on="0"/>
        <pt x="136" y="870" on="0"/>
        <pt x="165" y="882" on="0"/>
        <pt x="200" y="884" on="0"/>
        <pt x="219" y="884" on="1"/>
        <pt x="290" y="884" on="1"/>
        <pt x="314" y="1016" on="0"/>
        <pt x="425" y="1223" on="0"/>
        <pt x="595" y="1366" on="0"/>
        <pt x="819" y="1441" on="0"/>
        <pt x="956" y="1441" on="1"/>
        <pt x="1026" y="1441" on="0"/>
        <pt x="1163" y="1423" on="0"/>
        <pt x="1288" y="1390" on="0"/>
        <pt x="1392" y="1340" on="0"/>
        <pt x="1429" y="1309" on="1"/>
        <pt x="1426" y="1237" on="0"/>
        <pt x="1419" y="1117" on="0"/>
        <pt x="1419" y="1059" on="1"/>
        <pt x="1196" y="1049" on="1"/>
        <pt x="1178" y="1090" on="0"/>
        <pt x="1132" y="1175" on="0"/>
        <pt x="1072" y="1245" on="0"/>
        <pt x="994" y="1289" on="0"/>
        <pt x="944" y="1289" on="1"/>
        <pt x="871" y="1289" on="0"/>
        <pt x="762" y="1230" on="0"/>
        <pt x="684" y="1123" on="0"/>
        <pt x="636" y="974" on="0"/>
        <pt x="625" y="884" on="1"/>
        <pt x="1146" y="884" on="1"/>
        <pt x="1122" y="798" on="1"/>
        <pt x="1116" y="777" on="0"/>
        <pt x="1077" y="755" on="0"/>
        <pt x="1024" y="744" on="0"/>
        <pt x="962" y="742" on="0"/>
        <pt x="934" y="742" on="1"/>
        <pt x="614" y="742" on="1"/>
        <pt x="614" y="710" on="0"/>
        <pt x="615" y="650" on="0"/>
        <pt x="618" y="624" on="1"/>
        <pt x="1092" y="624" on="1"/>
        <pt x="1092" y="577" on="0"/>
        <pt x="1073" y="522" on="0"/>
        <pt x="1042" y="492" on="0"/>
        <pt x="1003" y="483" on="0"/>
        <pt x="984" y="483" on="1"/>
        <pt x="637" y="483" on="1"/>
        <pt x="671" y="313" on="0"/>
        <pt x="840" y="129" on="0"/>
        <pt x="979" y="129" on="1"/>
        <pt x="1041" y="129" on="0"/>
        <pt x="1151" y="149" on="0"/>
        <pt x="1252" y="187" on="0"/>
        <pt x="1347" y="242" on="0"/>
      </contour>
    </TTGlyph>
    <TTGlyph name="F" xMin="68" yMin="-13" xMax="1310" yMax="1413">
      <contour>
        <pt x="593" y="1255" on="1"/>
        <pt x="593" y="791" on="1"/>
        <pt x="811" y="791" on="1"/>
        <pt x="845" y="791" on="0"/>
        <pt x="885" y="801" on="0"/>
        <pt x="911" y="827" on="0"/>
        <pt x="928" y="874" on="0"/>
        <pt x="939" y="910" on="1"/>
        <pt x="1038" y="910" on="1"/>
        <pt x="1038" y="810" on="0"/>
        <pt x="1035" y="611" on="0"/>
        <pt x="1032" y="517" on="1"/>
        <pt x="1027" y="517" on="0"/>
        <pt x="1016" y="516" on="0"/>
        <pt x="1010" y="516" on="1"/>
        <pt x="997" y="516" on="0"/>
        <pt x="959" y="517" on="0"/>
        <pt x="927" y="517" on="1"/>
        <pt x="916" y="557" on="0"/>
        <pt x="896" y="607" on="0"/>
        <pt x="873" y="636" on="0"/>
        <pt x="845" y="647" on="0"/>
        <pt x="826" y="647" on="1"/>
        <pt x="593" y="647" on="1"/>
        <pt x="593" y="259" on="1"/>
        <pt x="593" y="224" on="0"/>
        <pt x="598" y="171" on="0"/>
        <pt x="603" y="150" on="1"/>
        <pt x="621" y="147" on="0"/>
        <pt x="660" y="146" on="0"/>
        <pt x="682" y="146" on="1"/>
        <pt x="779" y="146" on="1"/>
        <pt x="779" y="-13" on="1"/>
        <pt x="683" y="-8" on="0"/>
        <pt x="517" y="0" on="0"/>
        <pt x="439" y="0" on="1"/>
        <pt x="354" y="0" on="0"/>
        <pt x="178" y="-8" on="0"/>
        <pt x="78" y="-13" on="1"/>
        <pt x="78" y="146" on="1"/>
        <pt x="181" y="146" on="1"/>
        <pt x="204" y="146" on="0"/>
        <pt x="244" y="147" on="0"/>
        <pt x="263" y="150" on="1"/>
        <pt x="268" y="168" on="0"/>
        <pt x="274" y="221" on="0"/>
        <pt x="274" y="257" on="1"/>
        <pt x="274" y="480" on="0"/>
        <pt x="273" y="923" on="0"/>
        <pt x="273" y="1146" on="1"/>
        <pt x="273" y="1179" on="0"/>
        <pt x="268" y="1231" on="0"/>
        <pt x="263" y="1248" on="1"/>
        <pt x="244" y="1252" on="0"/>
        <pt x="205" y="1253" on="0"/>
        <pt x="182" y="1253" on="1"/>
        <pt x="68" y="1253" on="1"/>
        <pt x="68" y="1387" on="1"/>
        <pt x="157" y="1395" on="0"/>
        <pt x="316" y="1405" on="0"/>
        <pt x="477" y="1410" on="0"/>
        <pt x="651" y="1413" on="0"/>
        <pt x="858" y="1413" on="0"/>
        <pt x="1108" y="1413" on="0"/>
        <pt x="1265" y="1413" on="1"/>
        <pt x="1286" y="1280" on="1"/>
        <pt x="1294" y="1229" on="0"/>
        <pt x="1307" y="1131" on="0"/>
        <pt x="1310" y="1097" on="1"/>
        <pt x="1127" y="1085" on="1"/>
        <pt x="1125" y="1109" on="0"/>
        <pt x="1105" y="1189" on="0"/>
        <pt x="1088" y="1239" on="1"/>
        <pt x="1063" y="1246" on="0"/>
        <pt x="1016" y="1254" on="0"/>
        <pt x="967" y="1258" on="0"/>
        <pt x="911" y="1259" on="0"/>
        <pt x="877" y="1259" on="1"/>
        <pt x="855" y="1259" on="0"/>
        <pt x="804" y="1259" on="0"/>
        <pt x="737" y="1258" on="0"/>
        <pt x="650" y="1256" on="0"/>
      </contour>
    </TTGlyph>
    <TTGlyph name="G" xMin="115" yMin="-30" xMax="1416" yMax="1436">
      <contour>
        <pt x="929" y="1436" on="1"/>
        <pt x="999" y="1436" on="0"/>
        <pt x="1137" y="1416" on="0"/>
        <pt x="1259" y="1384" on="0"/>
        <pt x="1357" y="1343" on="0"/>
        <pt x="1387" y="1321" on="1"/>
        <pt x="1362" y="1005" on="1"/>
        <pt x="1315" y="1005" on="0"/>
        <pt x="1224" y="1006" on="0"/>
        <pt x="1177" y="1006" on="1"/>
        <pt x="1160" y="1075" on="0"/>
        <pt x="1113" y="1182" on="0"/>
        <pt x="1045" y="1254" on="0"/>
        <pt x="952" y="1291" on="0"/>
        <pt x="889" y="1291" on="1"/>
        <pt x="781" y="1291" on="0"/>
        <pt x="619" y="1212" on="0"/>
        <pt x="511" y="1059" on="0"/>
        <pt x="457" y="837" on="0"/>
        <pt x="457" y="694" on="1"/>
        <pt x="457" y="571" on="0"/>
        <pt x="510" y="366" on="0"/>
        <pt x="613" y="217" on="0"/>
        <pt x="768" y="135" on="0"/>
        <pt x="870" y="135" on="1"/>
        <pt x="1008" y="135" on="0"/>
        <pt x="1100" y="173" on="1"/>
        <pt x="1100" y="394" on="1"/>
        <pt x="1100" y="429" on="0"/>
        <pt x="1095" y="486" on="0"/>
        <pt x="1089" y="506" on="1"/>
        <pt x="1065" y="511" on="0"/>
        <pt x="1011" y="514" on="0"/>
        <pt x="982" y="514" on="1"/>
        <pt x="870" y="514" on="1"/>
        <pt x="870" y="637" on="1"/>
        <pt x="915" y="642" on="0"/>
        <pt x="1017" y="649" on="0"/>
        <pt x="1138" y="654" on="0"/>
        <pt x="1280" y="657" on="0"/>
        <pt x="1366" y="657" on="1"/>
        <pt x="1378" y="657" on="0"/>
        <pt x="1402" y="656" on="0"/>
        <pt x="1416" y="656" on="1"/>
        <pt x="1414" y="563" on="1"/>
        <pt x="1412" y="533" on="0"/>
        <pt x="1412" y="474" on="0"/>
        <pt x="1412" y="452" on="1"/>
        <pt x="1412" y="118" on="1"/>
        <pt x="1306" y="49" on="0"/>
        <pt x="1034" y="-30" on="0"/>
        <pt x="868" y="-30" on="1"/>
        <pt x="703" y="-30" on="0"/>
        <pt x="426" y="57" on="0"/>
        <pt x="227" y="233" on="0"/>
        <pt x="115" y="497" on="0"/>
        <pt x="115" y="673" on="1"/>
        <pt x="115" y="868" on="0"/>
        <pt x="230" y="1155" on="0"/>
        <pt x="443" y="1344" on="0"/>
        <pt x="743" y="1436" on="0"/>
      </contour>
    </TTGlyph>
    <TTGlyph name="H" xMin="68" yMin="-13" xMax="1664" yMax="1419">
      <contour>
        <pt x="1148" y="257" on="1"/>
        <pt x="1148" y="651" on="1"/>
        <pt x="585" y="651" on="1"/>
        <pt x="585" y="259" on="1"/>
        <pt x="585" y="224" on="0"/>
        <pt x="590" y="171" on="0"/>
        <pt x="595" y="150" on="1"/>
        <pt x="614" y="147" on="0"/>
        <pt x="652" y="146" on="0"/>
        <pt x="674" y="146" on="1"/>
        <pt x="771" y="146" on="1"/>
        <pt x="771" y="-13" on="1"/>
        <pt x="680" y="-5" on="0"/>
        <pt x="521" y="0" on="0"/>
        <pt x="447" y="0" on="1"/>
        <pt x="358" y="0" on="0"/>
        <pt x="173" y="-5" on="0"/>
        <pt x="70" y="-13" on="1"/>
        <pt x="70" y="146" on="1"/>
        <pt x="173" y="146" on="1"/>
        <pt x="196" y="146" on="0"/>
        <pt x="236" y="147" on="0"/>
        <pt x="255" y="150" on="1"/>
        <pt x="266" y="189" on="0"/>
        <pt x="266" y="257" on="1"/>
        <pt x="264" y="1153" on="1"/>
        <pt x="264" y="1188" on="0"/>
        <pt x="258" y="1240" on="0"/>
        <pt x="253" y="1260" on="1"/>
        <pt x="235" y="1264" on="0"/>
        <pt x="194" y="1265" on="0"/>
        <pt x="171" y="1265" on="1"/>
        <pt x="68" y="1265" on="1"/>
        <pt x="68" y="1400" on="1"/>
        <pt x="154" y="1410" on="0"/>
        <pt x="321" y="1419" on="0"/>
        <pt x="411" y="1419" on="1"/>
        <pt x="520" y="1419" on="0"/>
        <pt x="702" y="1413" on="0"/>
        <pt x="771" y="1403" on="1"/>
        <pt x="771" y="1265" on="1"/>
        <pt x="672" y="1265" on="1"/>
        <pt x="651" y="1265" on="0"/>
        <pt x="612" y="1264" on="0"/>
        <pt x="593" y="1260" on="1"/>
        <pt x="584" y="1221" on="0"/>
        <pt x="584" y="1161" on="1"/>
        <pt x="585" y="808" on="1"/>
        <pt x="1148" y="808" on="1"/>
        <pt x="1147" y="1153" on="1"/>
        <pt x="1146" y="1188" on="0"/>
        <pt x="1141" y="1240" on="0"/>
        <pt x="1136" y="1260" on="1"/>
        <pt x="1119" y="1264" on="0"/>
        <pt x="1079" y="1265" on="0"/>
        <pt x="1058" y="1265" on="1"/>
        <pt x="960" y="1265" on="1"/>
        <pt x="960" y="1400" on="1"/>
        <pt x="1047" y="1410" on="0"/>
        <pt x="1214" y="1419" on="0"/>
        <pt x="1303" y="1419" on="1"/>
        <pt x="1413" y="1419" on="0"/>
        <pt x="1594" y="1413" on="0"/>
        <pt x="1664" y="1403" on="1"/>
        <pt x="1664" y="1265" on="1"/>
        <pt x="1558" y="1265" on="1"/>
        <pt x="1535" y="1265" on="0"/>
        <pt x="1495" y="1264" on="0"/>
        <pt x="1476" y="1260" on="1"/>
        <pt x="1471" y="1240" on="0"/>
        <pt x="1466" y="1188" on="0"/>
        <pt x="1466" y="1153" on="1"/>
        <pt x="1467" y="259" on="1"/>
        <pt x="1467" y="224" on="0"/>
        <pt x="1472" y="171" on="0"/>
        <pt x="1477" y="150" on="1"/>
        <pt x="1496" y="147" on="0"/>
        <pt x="1536" y="146" on="0"/>
        <pt x="1559" y="146" on="1"/>
        <pt x="1663" y="146" on="1"/>
        <pt x="1663" y="-13" on="1"/>
        <pt x="1577" y="-5" on="0"/>
        <pt x="1427" y="0" on="0"/>
        <pt x="1357" y="0" on="1"/>
        <pt x="1292" y="0" on="1"/>
        <pt x="1215" y="0" on="0"/>
        <pt x="1053" y="-5" on="0"/>
        <pt x="962" y="-13" on="1"/>
        <pt x="962" y="146" on="1"/>
        <pt x="1058" y="146" on="1"/>
        <pt x="1080" y="146" on="0"/>
        <pt x="1120" y="147" on="0"/>
        <pt x="1137" y="150" on="1"/>
        <pt x="1143" y="168" on="0"/>
        <pt x="1148" y="221" on="0"/>
      </contour>
    </TTGlyph>
    <TTGlyph name="I" xMin="68" yMin="-13" xMax="789" yMax="1419">
      <contour>
        <pt x="68" y="-13" on="1"/>
        <pt x="68" y="146" on="1"/>
        <pt x="174" y="146" on="1"/>
        <pt x="197" y="146" on="0"/>
        <pt x="238" y="147" on="0"/>
        <pt x="258" y="150" on="1"/>
        <pt x="269" y="189" on="0"/>
        <pt x="269" y="257" on="1"/>
        <pt x="269" y="1122" on="1"/>
        <pt x="269" y="1172" on="0"/>
        <pt x="265" y="1236" on="0"/>
        <pt x="258" y="1260" on="1"/>
        <pt x="239" y="1264" on="0"/>
        <pt x="198" y="1265" on="0"/>
        <pt x="175" y="1265" on="1"/>
        <pt x="68" y="1265" on="1"/>
        <pt x="68" y="1400" on="1"/>
        <pt x="156" y="1410" on="0"/>
        <pt x="327" y="1419" on="0"/>
        <pt x="418" y="1419" on="1"/>
        <pt x="532" y="1419" on="0"/>
        <pt x="717" y="1413" on="0"/>
        <pt x="789" y="1403" on="1"/>
        <pt x="789" y="1265" on="1"/>
        <pt x="682" y="1265" on="1"/>
        <pt x="659" y="1265" on="0"/>
        <pt x="618" y="1264" on="0"/>
        <pt x="598" y="1260" on="1"/>
        <pt x="593" y="1240" on="0"/>
        <pt x="588" y="1191" on="0"/>
        <pt x="588" y="1156" on="1"/>
        <pt x="588" y="259" on="1"/>
        <pt x="588" y="224" on="0"/>
        <pt x="593" y="171" on="0"/>
        <pt x="598" y="150" on="1"/>
        <pt x="618" y="147" on="0"/>
        <pt x="659" y="146" on="0"/>
        <pt x="682" y="146" on="1"/>
        <pt x="788" y="146" on="1"/>
        <pt x="788" y="-13" on="1"/>
        <pt x="694" y="-5" on="0"/>
        <pt x="528" y="0" on="0"/>
        <pt x="453" y="0" on="1"/>
        <pt x="362" y="0" on="0"/>
        <pt x="174" y="-5" on="0"/>
      </contour>
    </TTGlyph>
    <TTGlyph name="IJ" xMin="68" yMin="-152" xMax="1848" yMax="1419">
      <component glyphName="I" x="0" y="0" flags="0x1004"/>
      <component glyphName="J" x="857" y="0" flags="0x1004"/>
    </TTGlyph>
    <TTGlyph name="Iacute" xMin="68" yMin="-13" xMax="816" yMax="1903">
      <component glyphName="acute" x="-36" y="366" flags="0x1004"/>
      <component glyphName="I" x="0" y="0" flags="0x1204"/>
    </TTGlyph>
    <TTGlyph name="Icircumflex" xMin="68" yMin="-13" xMax="789" yMax="1894">
      <component glyphName="circumflex" x="-184" y="351" flags="0x1004"/>
      <component glyphName="I" x="0" y="0" flags="0x1204"/>
    </TTGlyph>
    <TTGlyph name="Idieresis" xMin="5" yMin="-13" xMax="831" yMax="1870">
      <component glyphName="dieresis" x="-126" y="458" flags="0x1004"/>
      <component glyphName="I" x="0" y="0" flags="0x1204"/>
    </TTGlyph>
    <TTGlyph name="Igrave" xMin="32" yMin="-13" xMax="789" yMax="1904">
      <component glyphName="grave" x="-332" y="367" flags="0x1004"/>
      <component glyphName="I" x="0" y="0" flags="0x1204"/>
    </TTGlyph>
    <TTGlyph name="Itilde" xMin="25" yMin="-13" xMax="811" yMax="1817">
      <component glyphName="tilde" x="-168" y="307" flags="0x1004"/>
      <component glyphName="I" x="0" y="0" flags="0x1204"/>
    </TTGlyph>
    <TTGlyph name="J" xMin="34" yMin="-152" xMax="991" yMax="1419">
      <contour>
        <pt x="790" y="1153" on="1"/>
        <pt x="790" y="341" on="1"/>
        <pt x="790" y="220" on="0"/>
        <pt x="734" y="36" on="0"/>
        <pt x="628" y="-89" on="0"/>
        <pt x="474" y="-152" on="0"/>
        <pt x="376" y="-152" on="1"/>
        <pt x="337" y="-152" on="0"/>
        <pt x="243" y="-144" on="0"/>
        <pt x="149" y="-128" on="0"/>
        <pt x="64" y="-104" on="0"/>
        <pt x="34" y="-88" on="1"/>
        <pt x="33" y="-77" on="0"/>
        <pt x="39" y="9" on="0"/>
        <pt x="46" y="94" on="1"/>
        <pt x="58" y="253" on="1"/>
        <pt x="248" y="250" on="1"/>
        <pt x="251" y="215" on="0"/>
        <pt x="260" y="142" on="0"/>
        <pt x="269" y="76" on="0"/>
        <pt x="276" y="23" on="0"/>
        <pt x="277" y="9" on="1"/>
        <pt x="280" y="8" on="0"/>
        <pt x="299" y="4" on="0"/>
        <pt x="323" y="-1" on="0"/>
        <pt x="351" y="-4" on="0"/>
        <pt x="364" y="-4" on="1"/>
        <pt x="400" y="-4" on="0"/>
        <pt x="445" y="22" on="0"/>
        <pt x="471" y="68" on="0"/>
        <pt x="481" y="132" on="0"/>
        <pt x="481" y="171" on="1"/>
        <pt x="481" y="223" on="0"/>
        <pt x="470" y="339" on="0"/>
        <pt x="470" y="405" on="1"/>
        <pt x="470" y="1154" on="1"/>
        <pt x="470" y="1222" on="0"/>
        <pt x="459" y="1260" on="1"/>
        <pt x="437" y="1265" on="0"/>
        <pt x="387" y="1266" on="0"/>
        <pt x="360" y="1266" on="1"/>
        <pt x="269" y="1266" on="1"/>
        <pt x="269" y="1401" on="1"/>
        <pt x="373" y="1412" on="0"/>
        <pt x="566" y="1419" on="0"/>
        <pt x="666" y="1419" on="1"/>
        <pt x="763" y="1419" on="0"/>
        <pt x="926" y="1412" on="0"/>
        <pt x="991" y="1404" on="1"/>
        <pt x="991" y="1266" on="1"/>
        <pt x="898" y="1266" on="1"/>
        <pt x="872" y="1266" on="0"/>
        <pt x="822" y="1265" on="0"/>
        <pt x="800" y="1260" on="1"/>
        <pt x="790" y="1224" on="0"/>
      </contour>
    </TTGlyph>
    <TTGlyph name="Jcircumflex" xMin="34" yMin="-152" xMax="1009" yMax="1894">
      <component glyphName="circumflex" x="64" y="351" flags="0x1004"/>
      <component glyphName="J" x="0" y="0" flags="0x1204"/>
    </TTGlyph>
    <TTGlyph name="K" xMin="68" yMin="-13" xMax="1638" yMax="1419">
      <contour>
        <pt x="935" y="800" on="1"/>
        <pt x="1320" y="303" on="1"/>
        <pt x="1337" y="281" on="0"/>
        <pt x="1360" y="249" on="0"/>
        <pt x="1386" y="217" on="0"/>
        <pt x="1422" y="178" on="0"/>
        <pt x="1452" y="150" on="1"/>
        <pt x="1472" y="147" on="0"/>
        <pt x="1513" y="146" on="0"/>
        <pt x="1535" y="146" on="1"/>
        <pt x="1602" y="146" on="1"/>
        <pt x="1638" y="-13" on="1"/>
        <pt x="1559" y="-7" on="0"/>
        <pt x="1433" y="0" on="0"/>
        <pt x="1382" y="0" on="1"/>
        <pt x="1325" y="0" on="1"/>
        <pt x="1225" y="0" on="0"/>
        <pt x="1027" y="-5" on="0"/>
        <pt x="921" y="-13" on="1"/>
        <pt x="916" y="146" on="1"/>
        <pt x="944" y="146" on="1"/>
        <pt x="964" y="146" on="0"/>
        <pt x="999" y="147" on="0"/>
        <pt x="1013" y="150" on="1"/>
        <pt x="1004" y="173" on="0"/>
        <pt x="979" y="219" on="0"/>
        <pt x="952" y="257" on="1"/>
        <pt x="670" y="652" on="1"/>
        <pt x="659" y="664" on="0"/>
        <pt x="645" y="688" on="0"/>
        <pt x="638" y="699" on="1"/>
        <pt x="617" y="731" on="1"/>
        <pt x="643" y="761" on="1"/>
        <pt x="649" y="770" on="0"/>
        <pt x="662" y="783" on="1"/>
        <pt x="987" y="1125" on="1"/>
        <pt x="1032" y="1173" on="0"/>
        <pt x="1095" y="1244" on="0"/>
        <pt x="1097" y="1260" on="1"/>
        <pt x="1077" y="1264" on="0"/>
        <pt x="1033" y="1265" on="0"/>
        <pt x="1008" y="1265" on="1"/>
        <pt x="934" y="1265" on="1"/>
        <pt x="935" y="1400" on="1"/>
        <pt x="1044" y="1411" on="0"/>
        <pt x="1238" y="1419" on="0"/>
        <pt x="1336" y="1419" on="1"/>
        <pt x="1430" y="1419" on="0"/>
        <pt x="1578" y="1411" on="0"/>
        <pt x="1633" y="1403" on="1"/>
        <pt x="1587" y="1265" on="1"/>
        <pt x="1502" y="1265" on="1"/>
        <pt x="1475" y="1265" on="0"/>
        <pt x="1428" y="1264" on="0"/>
        <pt x="1402" y="1260" on="1"/>
        <pt x="1380" y="1242" on="0"/>
        <pt x="1324" y="1190" on="0"/>
        <pt x="1287" y="1153" on="1"/>
        <pt x="1032" y="898" on="1"/>
        <pt x="1019" y="885" on="0"/>
        <pt x="991" y="857" on="0"/>
        <pt x="964" y="831" on="0"/>
        <pt x="942" y="808" on="0"/>
      </contour>
      <contour>
        <pt x="588" y="1153" on="1"/>
        <pt x="588" y="257" on="1"/>
        <pt x="588" y="224" on="0"/>
        <pt x="594" y="171" on="0"/>
        <pt x="599" y="150" on="1"/>
        <pt x="618" y="147" on="0"/>
        <pt x="660" y="146" on="0"/>
        <pt x="683" y="146" on="1"/>
        <pt x="789" y="146" on="1"/>
        <pt x="789" y="-13" on="1"/>
        <pt x="692" y="-5" on="0"/>
        <pt x="518" y="0" on="0"/>
        <pt x="435" y="0" on="1"/>
        <pt x="349" y="0" on="0"/>
        <pt x="169" y="-5" on="0"/>
        <pt x="69" y="-13" on="1"/>
        <pt x="69" y="146" on="1"/>
        <pt x="175" y="146" on="1"/>
        <pt x="198" y="146" on="0"/>
        <pt x="239" y="147" on="0"/>
        <pt x="258" y="150" on="1"/>
        <pt x="264" y="168" on="0"/>
        <pt x="269" y="221" on="0"/>
        <pt x="269" y="257" on="1"/>
        <pt x="269" y="1153" on="1"/>
        <pt x="269" y="1188" on="0"/>
        <pt x="263" y="1240" on="0"/>
        <pt x="258" y="1260" on="1"/>
        <pt x="239" y="1264" on="0"/>
        <pt x="198" y="1265" on="0"/>
        <pt x="175" y="1265" on="1"/>
        <pt x="68" y="1265" on="1"/>
        <pt x="68" y="1400" on="1"/>
        <pt x="156" y="1410" on="0"/>
        <pt x="327" y="1419" on="0"/>
        <pt x="418" y="1419" on="1"/>
        <pt x="532" y="1419" on="0"/>
        <pt x="717" y="1413" on="0"/>
        <pt x="789" y="1403" on="1"/>
        <pt x="789" y="1265" on="1"/>
        <pt x="682" y="1265" on="1"/>
        <pt x="659" y="1265" on="0"/>
        <pt x="618" y="1264" on="0"/>
        <pt x="598" y="1260" on="1"/>
        <pt x="593" y="1240" on="0"/>
        <pt x="588" y="1188" on="0"/>
      </contour>
    </TTGlyph>
    <TTGlyph name="L" xMin="68" yMin="-13" xMax="1286" yMax="1419">
      <contour>
        <pt x="623" y="0" on="1"/>
        <pt x="435" y="0" on="0"/>
        <pt x="175" y="-5" on="0"/>
        <pt x="100" y="-13" on="1"/>
        <pt x="98" y="146" on="1"/>
        <pt x="175" y="146" on="1"/>
        <pt x="198" y="146" on="0"/>
        <pt x="239" y="147" on="0"/>
        <pt x="259" y="150" on="1"/>
        <pt x="264" y="184" on="0"/>
        <pt x="269" y="253" on="0"/>
        <pt x="269" y="290" on="1"/>
        <pt x="269" y="1156" on="1"/>
        <pt x="269" y="1189" on="0"/>
        <pt x="263" y="1240" on="0"/>
        <pt x="258" y="1260" on="1"/>
        <pt x="239" y="1264" on="0"/>
        <pt x="198" y="1265" on="0"/>
        <pt x="175" y="1265" on="1"/>
        <pt x="68" y="1265" on="1"/>
        <pt x="68" y="1400" on="1"/>
        <pt x="156" y="1410" on="0"/>
        <pt x="327" y="1419" on="0"/>
        <pt x="418" y="1419" on="1"/>
        <pt x="532" y="1419" on="0"/>
        <pt x="719" y="1413" on="0"/>
        <pt x="791" y="1403" on="1"/>
        <pt x="791" y="1265" on="1"/>
        <pt x="683" y="1265" on="1"/>
        <pt x="660" y="1265" on="0"/>
        <pt x="619" y="1264" on="0"/>
        <pt x="599" y="1260" on="1"/>
        <pt x="589" y="1223" on="0"/>
        <pt x="589" y="1156" on="1"/>
        <pt x="589" y="146" on="1"/>
        <pt x="884" y="146" on="1"/>
        <pt x="939" y="146" on="0"/>
        <pt x="1016" y="177" on="0"/>
        <pt x="1072" y="239" on="0"/>
        <pt x="1112" y="333" on="0"/>
        <pt x="1129" y="396" on="1"/>
        <pt x="1286" y="375" on="1"/>
        <pt x="1247" y="0" on="1"/>
        <pt x="1160" y="-3" on="0"/>
        <pt x="993" y="-7" on="0"/>
        <pt x="910" y="-7" on="1"/>
        <pt x="822" y="-7" on="0"/>
        <pt x="677" y="0" on="0"/>
      </contour>
    </TTGlyph>
    <TTGlyph name="Ldotaccent" xMin="68" yMin="-13" xMax="1286" yMax="1419">
      <component glyphName="L" x="0" y="0" flags="0x1204"/>
      <component glyphName="dotaccent" x="631" y="-521" flags="0x1004"/>
    </TTGlyph>
    <TTGlyph name="Lslash" xMin="68" yMin="-13" xMax="1286" yMax="1419">
      <contour>
        <pt x="883" y="1043" on="1"/>
        <pt x="883" y="829" on="1"/>
        <pt x="95" y="308" on="1"/>
        <pt x="95" y="521" on="1"/>
      </contour>
      <contour>
        <pt x="623" y="0" on="1"/>
        <pt x="435" y="0" on="0"/>
        <pt x="175" y="-5" on="0"/>
        <pt x="100" y="-13" on="1"/>
        <pt x="98" y="146" on="1"/>
        <pt x="175" y="146" on="1"/>
        <pt x="198" y="146" on="0"/>
        <pt x="239" y="147" on="0"/>
        <pt x="259" y="150" on="1"/>
        <pt x="264" y="184" on="0"/>
        <pt x="269" y="253" on="0"/>
        <pt x="269" y="290" on="1"/>
        <pt x="269" y="1156" on="1"/>
        <pt x="269" y="1189" on="0"/>
        <pt x="263" y="1240" on="0"/>
        <pt x="258" y="1260" on="1"/>
        <pt x="239" y="1264" on="0"/>
        <pt x="198" y="1265" on="0"/>
        <pt x="175" y="1265" on="1"/>
        <pt x="68" y="1265" on="1"/>
        <pt x="68" y="1400" on="1"/>
        <pt x="156" y="1410" on="0"/>
        <pt x="327" y="1419" on="0"/>
        <pt x="418" y="1419" on="1"/>
        <pt x="532" y="1419" on="0"/>
        <pt x="719" y="1413" on="0"/>
        <pt x="791" y="1403" on="1"/>
        <pt x="791" y="1265" on="1"/>
        <pt x="683" y="1265" on="1"/>
        <pt x="660" y="1265" on="0"/>
        <pt x="619" y="1264" on="0"/>
        <pt x="599" y="1260" on="1"/>
        <pt x="589" y="1223" on="0"/>
        <pt x="589" y="1156" on="1"/>
        <pt x="589" y="146" on="1"/>
        <pt x="884" y="146" on="1"/>
        <pt x="939" y="146" on="0"/>
        <pt x="1016" y="177" on="0"/>
        <pt x="1072" y="239" on="0"/>
        <pt x="1112" y="333" on="0"/>
        <pt x="1129" y="396" on="1"/>
        <pt x="1286" y="375" on="1"/>
        <pt x="1247" y="0" on="1"/>
        <pt x="1160" y="-3" on="0"/>
        <pt x="993" y="-7" on="0"/>
        <pt x="910" y="-7" on="1"/>
        <pt x="822" y="-7" on="0"/>
        <pt x="677" y="0" on="0"/>
      </contour>
    </TTGlyph>
    <TTGlyph name="M" xMin="68" yMin="-15" xMax="2152" yMax="1418">
      <contour>
        <pt x="1613" y="184" on="1"/>
        <pt x="1613" y="207" on="0"/>
        <pt x="1606" y="317" on="0"/>
        <pt x="1595" y="463" on="0"/>
        <pt x="1582" y="630" on="0"/>
        <pt x="1569" y="793" on="0"/>
        <pt x="1556" y="936" on="0"/>
        <pt x="1552" y="984" on="1"/>
        <pt x="1540" y="942" on="0"/>
        <pt x="1490" y="788" on="0"/>
        <pt x="1427" y="599" on="0"/>
        <pt x="1357" y="392" on="0"/>
        <pt x="1292" y="201" on="0"/>
        <pt x="1237" y="45" on="0"/>
        <pt x="1222" y="1" on="1"/>
        <pt x="947" y="1" on="1"/>
        <pt x="919" y="78" on="0"/>
        <pt x="853" y="265" on="0"/>
        <pt x="785" y="460" on="0"/>
        <pt x="719" y="653" on="0"/>
        <pt x="662" y="818" on="0"/>
        <pt x="618" y="946" on="0"/>
        <pt x="607" y="980" on="1"/>
        <pt x="605" y="957" on="0"/>
        <pt x="597" y="870" on="0"/>
        <pt x="588" y="757" on="0"/>
        <pt x="578" y="627" on="0"/>
        <pt x="568" y="496" on="0"/>
        <pt x="559" y="373" on="0"/>
        <pt x="551" y="275" on="0"/>
        <pt x="547" y="210" on="0"/>
        <pt x="546" y="203" on="1"/>
        <pt x="546" y="194" on="1"/>
        <pt x="546" y="164" on="0"/>
        <pt x="555" y="155" on="1"/>
        <pt x="572" y="150" on="0"/>
        <pt x="616" y="146" on="0"/>
        <pt x="644" y="146" on="1"/>
        <pt x="731" y="146" on="1"/>
        <pt x="716" y="-13" on="1"/>
        <pt x="625" y="-5" on="0"/>
        <pt x="476" y="0" on="0"/>
        <pt x="411" y="0" on="1"/>
        <pt x="326" y="0" on="0"/>
        <pt x="159" y="-6" on="0"/>
        <pt x="68" y="-15" on="1"/>
        <pt x="88" y="146" on="1"/>
        <pt x="184" y="146" on="1"/>
        <pt x="210" y="146" on="0"/>
        <pt x="260" y="147" on="0"/>
        <pt x="283" y="150" on="1"/>
        <pt x="291" y="173" on="0"/>
        <pt x="306" y="225" on="0"/>
        <pt x="311" y="256" on="1"/>
        <pt x="318" y="319" on="0"/>
        <pt x="334" y="472" on="0"/>
        <pt x="350" y="636" on="0"/>
        <pt x="365" y="805" on="0"/>
        <pt x="379" y="962" on="0"/>
        <pt x="392" y="1101" on="0"/>
        <pt x="397" y="1155" on="1"/>
        <pt x="399" y="1171" on="0"/>
        <pt x="398" y="1194" on="0"/>
        <pt x="398" y="1204" on="1"/>
        <pt x="398" y="1221" on="0"/>
        <pt x="394" y="1247" on="0"/>
        <pt x="392" y="1257" on="1"/>
        <pt x="372" y="1262" on="0"/>
        <pt x="330" y="1265" on="0"/>
        <pt x="303" y="1265" on="1"/>
        <pt x="184" y="1265" on="1"/>
        <pt x="184" y="1403" on="1"/>
        <pt x="223" y="1407" on="0"/>
        <pt x="301" y="1413" on="0"/>
        <pt x="383" y="1416" on="0"/>
        <pt x="473" y="1418" on="0"/>
        <pt x="523" y="1418" on="1"/>
        <pt x="676" y="1418" on="0"/>
        <pt x="766" y="1400" on="1"/>
        <pt x="783" y="1357" on="0"/>
        <pt x="828" y="1231" on="0"/>
        <pt x="879" y="1082" on="0"/>
        <pt x="934" y="919" on="0"/>
        <pt x="988" y="759" on="0"/>
        <pt x="1037" y="611" on="0"/>
        <pt x="1078" y="491" on="0"/>
        <pt x="1106" y="408" on="0"/>
        <pt x="1112" y="393" on="1"/>
        <pt x="1153" y="516" on="0"/>
        <pt x="1231" y="748" on="0"/>
        <pt x="1303" y="956" on="0"/>
        <pt x="1365" y="1136" on="0"/>
        <pt x="1416" y="1278" on="0"/>
        <pt x="1451" y="1377" on="0"/>
        <pt x="1460" y="1400" on="1"/>
        <pt x="1483" y="1405" on="0"/>
        <pt x="1546" y="1412" on="0"/>
        <pt x="1616" y="1416" on="0"/>
        <pt x="1692" y="1417" on="0"/>
        <pt x="1728" y="1417" on="1"/>
        <pt x="1813" y="1417" on="0"/>
        <pt x="1960" y="1409" on="0"/>
        <pt x="2032" y="1403" on="1"/>
        <pt x="2037" y="1265" on="1"/>
        <pt x="1962" y="1265" on="1"/>
        <pt x="1930" y="1265" on="0"/>
        <pt x="1868" y="1261" on="0"/>
        <pt x="1845" y="1255" on="1"/>
        <pt x="1845" y="1251" on="0"/>
        <pt x="1844" y="1244" on="0"/>
        <pt x="1844" y="1240" on="1"/>
        <pt x="1844" y="1223" on="0"/>
        <pt x="1846" y="1185" on="0"/>
        <pt x="1849" y="1159" on="1"/>
        <pt x="1854" y="1089" on="0"/>
        <pt x="1868" y="928" on="0"/>
        <pt x="1883" y="759" on="0"/>
        <pt x="1897" y="589" on="0"/>
        <pt x="1911" y="431" on="0"/>
        <pt x="1923" y="294" on="0"/>
        <pt x="1928" y="242" on="1"/>
        <pt x="1930" y="212" on="0"/>
        <pt x="1942" y="170" on="0"/>
        <pt x="1947" y="152" on="1"/>
        <pt x="1973" y="148" on="0"/>
        <pt x="2028" y="146" on="0"/>
        <pt x="2060" y="146" on="1"/>
        <pt x="2132" y="146" on="1"/>
        <pt x="2152" y="-15" on="1"/>
        <pt x="2074" y="-7" on="0"/>
        <pt x="1918" y="0" on="0"/>
        <pt x="1831" y="0" on="1"/>
        <pt x="1733" y="0" on="0"/>
        <pt x="1550" y="-5" on="0"/>
        <pt x="1461" y="-13" on="1"/>
        <pt x="1460" y="146" on="1"/>
        <pt x="1530" y="146" on="1"/>
        <pt x="1571" y="146" on="0"/>
        <pt x="1605" y="161" on="0"/>
      </contour>
    </TTGlyph>
    <TTGlyph name="N" xMin="68" yMin="-14" xMax="1651" yMax="1419">
      <contour>
        <pt x="290" y="257" on="1"/>
        <pt x="290" y="483" on="0"/>
        <pt x="289" y="928" on="0"/>
        <pt x="289" y="1153" on="1"/>
        <pt x="289" y="1223" on="0"/>
        <pt x="279" y="1260" on="1"/>
        <pt x="259" y="1264" on="0"/>
        <pt x="215" y="1265" on="0"/>
        <pt x="192" y="1265" on="1"/>
        <pt x="68" y="1265" on="1"/>
        <pt x="68" y="1397" on="1"/>
        <pt x="111" y="1401" on="0"/>
        <pt x="194" y="1409" on="0"/>
        <pt x="280" y="1415" on="0"/>
        <pt x="372" y="1418" on="0"/>
        <pt x="425" y="1418" on="1"/>
        <pt x="470" y="1418" on="0"/>
        <pt x="556" y="1412" on="0"/>
        <pt x="604" y="1401" on="1"/>
        <pt x="675" y="1293" on="0"/>
        <pt x="828" y="1057" on="0"/>
        <pt x="988" y="809" on="0"/>
        <pt x="1152" y="552" on="0"/>
        <pt x="1233" y="423" on="1"/>
        <pt x="1233" y="472" on="0"/>
        <pt x="1232" y="594" on="0"/>
        <pt x="1231" y="728" on="0"/>
        <pt x="1229" y="867" on="0"/>
        <pt x="1228" y="996" on="0"/>
        <pt x="1226" y="1111" on="0"/>
        <pt x="1226" y="1153" on="1"/>
        <pt x="1226" y="1226" on="0"/>
        <pt x="1214" y="1261" on="1"/>
        <pt x="1194" y="1264" on="0"/>
        <pt x="1151" y="1266" on="0"/>
        <pt x="1128" y="1266" on="1"/>
        <pt x="1010" y="1266" on="1"/>
        <pt x="1010" y="1402" on="1"/>
        <pt x="1073" y="1411" on="0"/>
        <pt x="1228" y="1419" on="0"/>
        <pt x="1327" y="1419" on="1"/>
        <pt x="1417" y="1419" on="0"/>
        <pt x="1581" y="1414" on="0"/>
        <pt x="1651" y="1405" on="1"/>
        <pt x="1651" y="1266" on="1"/>
        <pt x="1565" y="1266" on="1"/>
        <pt x="1539" y="1266" on="0"/>
        <pt x="1491" y="1264" on="0"/>
        <pt x="1468" y="1261" on="1"/>
        <pt x="1458" y="1224" on="0"/>
        <pt x="1458" y="1154" on="1"/>
        <pt x="1457" y="1016" on="0"/>
        <pt x="1454" y="721" on="0"/>
        <pt x="1450" y="423" on="0"/>
        <pt x="1445" y="129" on="0"/>
        <pt x="1443" y="-7" on="1"/>
        <pt x="1314" y="-7" on="1"/>
        <pt x="1270" y="-7" on="0"/>
        <pt x="1192" y="-2" on="0"/>
        <pt x="1146" y="9" on="1"/>
        <pt x="528" y="984" on="1"/>
        <pt x="529" y="923" on="0"/>
        <pt x="531" y="759" on="0"/>
        <pt x="533" y="570" on="0"/>
        <pt x="535" y="363" on="0"/>
        <pt x="536" y="260" on="1"/>
        <pt x="536" y="230" on="0"/>
        <pt x="542" y="167" on="0"/>
        <pt x="546" y="150" on="1"/>
        <pt x="565" y="147" on="0"/>
        <pt x="608" y="146" on="0"/>
        <pt x="631" y="146" on="1"/>
        <pt x="742" y="146" on="1"/>
        <pt x="742" y="-14" on="1"/>
        <pt x="648" y="-5" on="0"/>
        <pt x="493" y="0" on="0"/>
        <pt x="426" y="0" on="1"/>
        <pt x="345" y="0" on="0"/>
        <pt x="177" y="-5" on="0"/>
        <pt x="80" y="-14" on="1"/>
        <pt x="80" y="146" on="1"/>
        <pt x="192" y="146" on="1"/>
        <pt x="215" y="146" on="0"/>
        <pt x="259" y="147" on="0"/>
        <pt x="279" y="150" on="1"/>
        <pt x="290" y="186" on="0"/>
      </contour>
    </TTGlyph>
    <TTGlyph name="Nacute" xMin="68" yMin="-14" xMax="1725" yMax="1903">
      <component glyphName="acute" x="873" y="366" flags="0x1004"/>
      <component glyphName="N" x="0" y="0" flags="0x1204"/>
    </TTGlyph>
    <TTGlyph name="Ntilde" xMin="68" yMin="-14" xMax="1720" yMax="1817">
      <component glyphName="tilde" x="741" y="307" flags="0x1004"/>
      <component glyphName="N" x="0" y="0" flags="0x1204"/>
    </TTGlyph>
    <TTGlyph name="O" xMin="114" yMin="-30" xMax="1510" yMax="1436">
      <contour>
        <pt x="1510" y="702" on="1"/>
        <pt x="1510" y="529" on="0"/>
        <pt x="1413" y="258" on="0"/>
        <pt x="1231" y="69" on="0"/>
        <pt x="973" y="-30" on="0"/>
        <pt x="813" y="-30" on="1"/>
        <pt x="650" y="-30" on="0"/>
        <pt x="391" y="71" on="0"/>
        <pt x="210" y="260" on="0"/>
        <pt x="114" y="531" on="0"/>
        <pt x="114" y="702" on="1"/>
        <pt x="114" y="877" on="0"/>
        <pt x="211" y="1150" on="0"/>
        <pt x="392" y="1338" on="0"/>
        <pt x="651" y="1436" on="0"/>
        <pt x="813" y="1436" on="1"/>
        <pt x="975" y="1436" on="0"/>
        <pt x="1233" y="1337" on="0"/>
        <pt x="1414" y="1148" on="0"/>
        <pt x="1510" y="875" on="0"/>
      </contour>
      <contour>
        <pt x="456" y="699" on="1"/>
        <pt x="456" y="421" on="0"/>
        <pt x="634" y="125" on="0"/>
        <pt x="813" y="125" on="1"/>
        <pt x="898" y="125" on="0"/>
        <pt x="1030" y="195" on="0"/>
        <pt x="1121" y="338" on="0"/>
        <pt x="1168" y="555" on="0"/>
        <pt x="1168" y="702" on="1"/>
        <pt x="1168" y="991" on="0"/>
        <pt x="984" y="1282" on="0"/>
        <pt x="813" y="1282" on="1"/>
        <pt x="643" y="1282" on="0"/>
        <pt x="456" y="993" on="0"/>
      </contour>
    </TTGlyph>
    <TTGlyph name="OE" xMin="114" yMin="-30" xMax="2136" yMax="1436">
      <contour>
        <pt x="2070" y="1413" on="1"/>
        <pt x="2095" y="1284" on="1"/>
        <pt x="2104" y="1235" on="0"/>
        <pt x="2120" y="1139" on="0"/>
        <pt x="2125" y="1107" on="1"/>
        <pt x="1941" y="1090" on="1"/>
        <pt x="1939" y="1100" on="1"/>
        <pt x="1934" y="1134" on="0"/>
        <pt x="1920" y="1201" on="0"/>
        <pt x="1906" y="1235" on="1"/>
        <pt x="1857" y="1248" on="0"/>
        <pt x="1743" y="1259" on="0"/>
        <pt x="1670" y="1259" on="1"/>
        <pt x="1652" y="1259" on="0"/>
        <pt x="1615" y="1259" on="0"/>
        <pt x="1565" y="1258" on="0"/>
        <pt x="1496" y="1256" on="0"/>
        <pt x="1446" y="1255" on="1"/>
        <pt x="1446" y="788" on="1"/>
        <pt x="1638" y="788" on="1"/>
        <pt x="1670" y="788" on="0"/>
        <pt x="1709" y="798" on="0"/>
        <pt x="1734" y="825" on="0"/>
        <pt x="1751" y="873" on="0"/>
        <pt x="1761" y="910" on="1"/>
        <pt x="1861" y="910" on="1"/>
        <pt x="1861" y="810" on="0"/>
        <pt x="1858" y="611" on="0"/>
        <pt x="1854" y="517" on="1"/>
        <pt x="1845" y="516" on="0"/>
        <pt x="1827" y="516" on="0"/>
        <pt x="1818" y="516" on="1"/>
        <pt x="1801" y="516" on="0"/>
        <pt x="1766" y="517" on="0"/>
        <pt x="1749" y="517" on="1"/>
        <pt x="1738" y="557" on="0"/>
        <pt x="1719" y="609" on="0"/>
        <pt x="1696" y="639" on="0"/>
        <pt x="1668" y="650" on="0"/>
        <pt x="1649" y="650" on="1"/>
        <pt x="1446" y="650" on="1"/>
        <pt x="1446" y="146" on="1"/>
        <pt x="1777" y="146" on="1"/>
        <pt x="1824" y="146" on="0"/>
        <pt x="1895" y="159" on="0"/>
        <pt x="1912" y="170" on="1"/>
        <pt x="1920" y="192" on="0"/>
        <pt x="1934" y="274" on="0"/>
        <pt x="1942" y="343" on="1"/>
        <pt x="1986" y="342" on="0"/>
        <pt x="2083" y="341" on="0"/>
        <pt x="2136" y="341" on="1"/>
        <pt x="2136" y="214" on="1"/>
        <pt x="2123" y="18" on="1"/>
        <pt x="2079" y="11" on="0"/>
        <pt x="1992" y="1" on="0"/>
        <pt x="1896" y="-5" on="0"/>
        <pt x="1789" y="-8" on="0"/>
        <pt x="1726" y="-8" on="1"/>
        <pt x="1688" y="-8" on="0"/>
        <pt x="1597" y="-7" on="0"/>
        <pt x="1500" y="-6" on="0"/>
        <pt x="1399" y="-5" on="0"/>
        <pt x="1353" y="-4" on="1"/>
        <pt x="1244" y="-2" on="0"/>
        <pt x="1129" y="0" on="1"/>
        <pt x="1075" y="-9" on="0"/>
        <pt x="1020" y="-15" on="1"/>
        <pt x="972" y="-21" on="0"/>
        <pt x="863" y="-30" on="0"/>
        <pt x="813" y="-30" on="1"/>
        <pt x="650" y="-30" on="0"/>
        <pt x="391" y="71" on="0"/>
        <pt x="210" y="260" on="0"/>
        <pt x="114" y="531" on="0"/>
        <pt x="114" y="702" on="1"/>
        <pt x="114" y="877" on="0"/>
        <pt x="211" y="1150" on="0"/>
        <pt x="392" y="1338" on="0"/>
        <pt x="651" y="1436" on="0"/>
        <pt x="813" y="1436" on="1"/>
        <pt x="863" y="1436" on="0"/>
        <pt x="949" y="1429" on="0"/>
        <pt x="1025" y="1420" on="0"/>
        <pt x="1095" y="1413" on="0"/>
        <pt x="1129" y="1413" on="1"/>
      </contour>
      <contour>
        <pt x="456" y="699" on="1"/>
        <pt x="456" y="421" on="0"/>
        <pt x="634" y="125" on="0"/>
        <pt x="813" y="125" on="1"/>
        <pt x="830" y="125" on="0"/>
        <pt x="875" y="127" on="0"/>
        <pt x="926" y="130" on="0"/>
        <pt x="979" y="133" on="0"/>
        <pt x="1005" y="135" on="1"/>
        <pt x="1065" y="139" on="0"/>
        <pt x="1129" y="146" on="1"/>
        <pt x="1129" y="1254" on="1"/>
        <pt x="1064" y="1262" on="0"/>
        <pt x="1005" y="1268" on="1"/>
        <pt x="979" y="1271" on="0"/>
        <pt x="926" y="1276" on="0"/>
        <pt x="875" y="1280" on="0"/>
        <pt x="830" y="1282" on="0"/>
        <pt x="813" y="1282" on="1"/>
        <pt x="643" y="1282" on="0"/>
        <pt x="456" y="993" on="0"/>
      </contour>
    </TTGlyph>
    <TTGlyph name="Oacute" xMin="114" yMin="-30" xMax="1510" yMax="1903">
      <component glyphName="acute" x="359" y="366" flags="0x1004"/>
      <component glyphName="O" x="0" y="0" flags="0x1204"/>
    </TTGlyph>
    <TTGlyph name="Ocircumflex" xMin="114" yMin="-30" xMax="1510" yMax="1894">
      <component glyphName="circumflex" x="211" y="351" flags="0x1004"/>
      <component glyphName="O" x="0" y="0" flags="0x1204"/>
    </TTGlyph>
    <TTGlyph name="Odieresis" xMin="114" yMin="-30" xMax="1510" yMax="1870">
      <component glyphName="dieresis" x="270" y="458" flags="0x1004"/>
      <component glyphName="O" x="0" y="0" flags="0x1204"/>
    </TTGlyph>
    <TTGlyph name="Ograve" xMin="114" yMin="-30" xMax="1510" yMax="1904">
      <component glyphName="grave" x="63" y="367" flags="0x1004"/>
      <component glyphName="O" x="0" y="0" flags="0x1204"/>
    </TTGlyph>
    <TTGlyph name="Omega" xMin="84" yMin="0" xMax="1481" yMax="1414">
      <contour>
        <pt x="1481" y="307" on="1"/>
        <pt x="1427" y="0" on="1"/>
        <pt x="921" y="0" on="1"/>
        <pt x="903" y="50" on="1"/>
        <pt x="947" y="127" on="0"/>
        <pt x="1044" y="291" on="0"/>
        <pt x="1124" y="468" on="0"/>
        <pt x="1176" y="657" on="0"/>
        <pt x="1176" y="759" on="1"/>
        <pt x="1176" y="908" on="0"/>
        <pt x="1114" y="1125" on="0"/>
        <pt x="1007" y="1266" on="0"/>
        <pt x="862" y="1334" on="0"/>
        <pt x="778" y="1334" on="1"/>
        <pt x="693" y="1334" on="0"/>
        <pt x="550" y="1268" on="0"/>
        <pt x="447" y="1127" on="0"/>
        <pt x="389" y="907" on="0"/>
        <pt x="389" y="754" on="1"/>
        <pt x="389" y="675" on="0"/>
        <pt x="418" y="525" on="0"/>
        <pt x="473" y="374" on="0"/>
        <pt x="554" y="219" on="0"/>
        <pt x="605" y="135" on="1"/>
        <pt x="657" y="50" on="1"/>
        <pt x="635" y="0" on="1"/>
        <pt x="135" y="0" on="1"/>
        <pt x="84" y="307" on="1"/>
        <pt x="152" y="307" on="1"/>
        <pt x="165" y="267" on="0"/>
        <pt x="191" y="210" on="0"/>
        <pt x="225" y="173" on="0"/>
        <pt x="270" y="156" on="0"/>
        <pt x="303" y="156" on="1"/>
        <pt x="497" y="156" on="1"/>
        <pt x="435" y="208" on="0"/>
        <pt x="317" y="333" on="0"/>
        <pt x="224" y="484" on="0"/>
        <pt x="168" y="663" on="0"/>
        <pt x="168" y="768" on="1"/>
        <pt x="168" y="915" on="0"/>
        <pt x="261" y="1154" on="0"/>
        <pt x="426" y="1323" on="0"/>
        <pt x="653" y="1414" on="0"/>
        <pt x="786" y="1414" on="1"/>
        <pt x="924" y="1414" on="0"/>
        <pt x="1149" y="1324" on="0"/>
        <pt x="1309" y="1160" on="0"/>
        <pt x="1396" y="928" on="0"/>
        <pt x="1396" y="786" on="1"/>
        <pt x="1396" y="692" on="0"/>
        <pt x="1344" y="524" on="0"/>
        <pt x="1252" y="370" on="0"/>
        <pt x="1127" y="226" on="0"/>
        <pt x="1055" y="156" on="1"/>
        <pt x="1262" y="156" on="1"/>
        <pt x="1294" y="156" on="0"/>
        <pt x="1337" y="168" on="0"/>
        <pt x="1369" y="202" on="0"/>
        <pt x="1395" y="262" on="0"/>
        <pt x="1412" y="309" on="1"/>
      </contour>
    </TTGlyph>
    <TTGlyph name="Oslash" xMin="114" yMin="-83" xMax="1510" yMax="1489">
      <contour>
        <pt x="813" y="124" on="1"/>
        <pt x="898" y="124" on="0"/>
        <pt x="1030" y="195" on="0"/>
        <pt x="1121" y="338" on="0"/>
        <pt x="1168" y="555" on="0"/>
        <pt x="1168" y="702" on="1"/>
        <pt x="1168" y="954" on="0"/>
        <pt x="1098" y="1097" on="1"/>
        <pt x="630" y="177" on="1"/>
        <pt x="706" y="124" on="0"/>
      </contour>
      <contour>
        <pt x="456" y="699" on="1"/>
        <pt x="456" y="426" on="0"/>
        <pt x="542" y="278" on="1"/>
        <pt x="1015" y="1211" on="1"/>
        <pt x="933" y="1282" on="0"/>
        <pt x="813" y="1282" on="1"/>
        <pt x="643" y="1282" on="0"/>
        <pt x="456" y="993" on="0"/>
      </contour>
      <contour>
        <pt x="1510" y="702" on="1"/>
        <pt x="1510" y="529" on="0"/>
        <pt x="1413" y="258" on="0"/>
        <pt x="1231" y="69" on="0"/>
        <pt x="973" y="-30" on="0"/>
        <pt x="813" y="-30" on="1"/>
        <pt x="738" y="-30" on="0"/>
        <pt x="614" y="-6" on="0"/>
        <pt x="552" y="15" on="1"/>
        <pt x="502" y="-78" on="1"/>
        <pt x="490" y="-80" on="0"/>
        <pt x="468" y="-83" on="0"/>
        <pt x="457" y="-83" on="1"/>
        <pt x="432" y="-83" on="0"/>
        <pt x="401" y="-65" on="0"/>
        <pt x="389" y="-38" on="1"/>
        <pt x="440" y="66" on="1"/>
        <pt x="285" y="154" on="0"/>
        <pt x="114" y="472" on="0"/>
        <pt x="114" y="702" on="1"/>
        <pt x="114" y="877" on="0"/>
        <pt x="211" y="1150" on="0"/>
        <pt x="392" y="1338" on="0"/>
        <pt x="651" y="1436" on="0"/>
        <pt x="813" y="1436" on="1"/>
        <pt x="893" y="1436" on="0"/>
        <pt x="1032" y="1408" on="0"/>
        <pt x="1098" y="1382" on="1"/>
        <pt x="1152" y="1482" on="1"/>
        <pt x="1176" y="1489" on="0"/>
        <pt x="1201" y="1489" on="1"/>
        <pt x="1222" y="1489" on="0"/>
        <pt x="1254" y="1473" on="0"/>
        <pt x="1266" y="1447" on="1"/>
        <pt x="1207" y="1326" on="1"/>
        <pt x="1352" y="1242" on="0"/>
        <pt x="1510" y="924" on="0"/>
      </contour>
    </TTGlyph>
    <TTGlyph name="Otilde" xMin="114" yMin="-30" xMax="1510" yMax="1817">
      <component glyphName="tilde" x="227" y="307" flags="0x1004"/>
      <component glyphName="O" x="0" y="0" flags="0x1204"/>
    </TTGlyph>
    <TTGlyph name="P" xMin="69" yMin="-14" xMax="1322" yMax="1424">
      <contour>
        <pt x="289" y="257" on="1"/>
        <pt x="289" y="1158" on="1"/>
        <pt x="289" y="1226" on="0"/>
        <pt x="278" y="1262" on="1"/>
        <pt x="261" y="1264" on="0"/>
        <pt x="216" y="1265" on="0"/>
        <pt x="192" y="1265" on="1"/>
        <pt x="69" y="1265" on="1"/>
        <pt x="69" y="1401" on="1"/>
        <pt x="200" y="1414" on="0"/>
        <pt x="512" y="1424" on="0"/>
        <pt x="698" y="1424" on="1"/>
        <pt x="842" y="1424" on="0"/>
        <pt x="1071" y="1386" on="0"/>
        <pt x="1233" y="1289" on="0"/>
        <pt x="1320" y="1123" on="0"/>
        <pt x="1322" y="994" on="1"/>
        <pt x="1322" y="893" on="0"/>
        <pt x="1252" y="735" on="0"/>
        <pt x="1107" y="625" on="0"/>
        <pt x="884" y="567" on="0"/>
        <pt x="732" y="567" on="1"/>
        <pt x="704" y="567" on="0"/>
        <pt x="644" y="567" on="0"/>
        <pt x="609" y="569" on="1"/>
        <pt x="609" y="478" on="0"/>
        <pt x="608" y="355" on="0"/>
        <pt x="608" y="274" on="0"/>
        <pt x="608" y="227" on="0"/>
        <pt x="610" y="194" on="0"/>
        <pt x="615" y="168" on="0"/>
        <pt x="620" y="150" on="1"/>
        <pt x="639" y="147" on="0"/>
        <pt x="682" y="146" on="0"/>
        <pt x="705" y="146" on="1"/>
        <pt x="815" y="146" on="1"/>
        <pt x="815" y="-14" on="1"/>
        <pt x="711" y="-5" on="0"/>
        <pt x="540" y="0" on="0"/>
        <pt x="465" y="0" on="1"/>
        <pt x="377" y="0" on="0"/>
        <pt x="188" y="-5" on="0"/>
        <pt x="79" y="-14" on="1"/>
        <pt x="79" y="146" on="1"/>
        <pt x="191" y="146" on="1"/>
        <pt x="214" y="146" on="0"/>
        <pt x="258" y="147" on="0"/>
        <pt x="278" y="150" on="1"/>
        <pt x="283" y="167" on="0"/>
        <pt x="289" y="219" on="0"/>
      </contour>
      <contour>
        <pt x="704" y="1265" on="1"/>
        <pt x="608" y="1265" on="1"/>
        <pt x="608" y="714" on="1"/>
        <pt x="617" y="714" on="0"/>
        <pt x="636" y="713" on="0"/>
        <pt x="647" y="713" on="1"/>
        <pt x="746" y="713" on="0"/>
        <pt x="880" y="746" on="0"/>
        <pt x="961" y="814" on="0"/>
        <pt x="996" y="918" on="0"/>
        <pt x="996" y="990" on="1"/>
        <pt x="996" y="1065" on="0"/>
        <pt x="962" y="1170" on="0"/>
        <pt x="891" y="1235" on="0"/>
        <pt x="780" y="1265" on="0"/>
      </contour>
    </TTGlyph>
    <TTGlyph name="Q" xMin="114" yMin="-226" xMax="1563" yMax="1436">
      <contour>
        <pt x="455" y="699" on="1"/>
        <pt x="455" y="413" on="0"/>
        <pt x="633" y="124" on="0"/>
        <pt x="810" y="124" on="1"/>
        <pt x="895" y="124" on="0"/>
        <pt x="1027" y="193" on="0"/>
        <pt x="1118" y="336" on="0"/>
        <pt x="1166" y="553" on="0"/>
        <pt x="1166" y="701" on="1"/>
        <pt x="1166" y="991" on="0"/>
        <pt x="980" y="1282" on="0"/>
        <pt x="810" y="1282" on="1"/>
        <pt x="641" y="1282" on="0"/>
        <pt x="455" y="992" on="0"/>
      </contour>
      <contour>
        <pt x="1504" y="739" on="1"/>
        <pt x="1504" y="613" on="0"/>
        <pt x="1446" y="380" on="0"/>
        <pt x="1329" y="187" on="0"/>
        <pt x="1152" y="45" on="0"/>
        <pt x="1032" y="11" on="1"/>
        <pt x="1053" y="-8" on="0"/>
        <pt x="1105" y="-32" on="0"/>
        <pt x="1162" y="-47" on="0"/>
        <pt x="1221" y="-53" on="0"/>
        <pt x="1249" y="-53" on="1"/>
        <pt x="1307" y="-53" on="0"/>
        <pt x="1437" y="-30" on="0"/>
        <pt x="1526" y="-5" on="1"/>
        <pt x="1563" y="-136" on="1"/>
        <pt x="1452" y="-179" on="0"/>
        <pt x="1241" y="-226" on="0"/>
        <pt x="1138" y="-226" on="1"/>
        <pt x="1079" y="-226" on="0"/>
        <pt x="966" y="-210" on="0"/>
        <pt x="858" y="-172" on="0"/>
        <pt x="753" y="-110" on="0"/>
        <pt x="703" y="-65" on="1"/>
        <pt x="666" y="-51" on="0"/>
        <pt x="596" y="-16" on="0"/>
        <pt x="564" y="6" on="1"/>
        <pt x="458" y="38" on="0"/>
        <pt x="291" y="160" on="0"/>
        <pt x="175" y="337" on="0"/>
        <pt x="114" y="567" on="0"/>
        <pt x="114" y="708" on="1"/>
        <pt x="114" y="880" on="0"/>
        <pt x="211" y="1151" on="0"/>
        <pt x="391" y="1338" on="0"/>
        <pt x="649" y="1436" on="0"/>
        <pt x="810" y="1436" on="1"/>
        <pt x="966" y="1436" on="0"/>
        <pt x="1222" y="1340" on="0"/>
        <pt x="1404" y="1160" on="0"/>
        <pt x="1504" y="902" on="0"/>
      </contour>
    </TTGlyph>
    <TTGlyph name="R" xMin="68" yMin="-28" xMax="1515" yMax="1424">
      <contour>
        <pt x="288" y="257" on="1"/>
        <pt x="288" y="485" on="0"/>
        <pt x="287" y="935" on="0"/>
        <pt x="287" y="1162" on="1"/>
        <pt x="287" y="1231" on="0"/>
        <pt x="277" y="1261" on="1"/>
        <pt x="257" y="1265" on="0"/>
        <pt x="213" y="1265" on="0"/>
        <pt x="191" y="1265" on="1"/>
        <pt x="68" y="1265" on="1"/>
        <pt x="68" y="1403" on="1"/>
        <pt x="134" y="1409" on="0"/>
        <pt x="293" y="1417" on="0"/>
        <pt x="458" y="1422" on="0"/>
        <pt x="623" y="1424" on="0"/>
        <pt x="695" y="1424" on="1"/>
        <pt x="834" y="1424" on="0"/>
        <pt x="1070" y="1389" on="0"/>
        <pt x="1241" y="1296" on="0"/>
        <pt x="1337" y="1136" on="0"/>
        <pt x="1337" y="1012" on="1"/>
        <pt x="1337" y="946" on="0"/>
        <pt x="1293" y="835" on="0"/>
        <pt x="1212" y="745" on="0"/>
        <pt x="1097" y="677" on="0"/>
        <pt x="1026" y="653" on="1"/>
        <pt x="1098" y="626" on="0"/>
        <pt x="1200" y="537" on="0"/>
        <pt x="1275" y="413" on="0"/>
        <pt x="1329" y="254" on="0"/>
        <pt x="1353" y="156" on="1"/>
        <pt x="1363" y="156" on="0"/>
        <pt x="1399" y="157" on="0"/>
        <pt x="1444" y="157" on="0"/>
        <pt x="1493" y="158" on="0"/>
        <pt x="1515" y="158" on="1"/>
        <pt x="1507" y="-15" on="1"/>
        <pt x="1465" y="-19" on="0"/>
        <pt x="1361" y="-28" on="0"/>
        <pt x="1311" y="-28" on="1"/>
        <pt x="1214" y="-28" on="0"/>
        <pt x="1088" y="43" on="0"/>
        <pt x="1055" y="122" on="1"/>
        <pt x="1019" y="207" on="0"/>
        <pt x="970" y="353" on="0"/>
        <pt x="924" y="471" on="0"/>
        <pt x="873" y="557" on="0"/>
        <pt x="836" y="583" on="1"/>
        <pt x="783" y="592" on="0"/>
        <pt x="665" y="591" on="0"/>
        <pt x="608" y="593" on="1"/>
        <pt x="608" y="259" on="1"/>
        <pt x="608" y="224" on="0"/>
        <pt x="613" y="171" on="0"/>
        <pt x="618" y="150" on="1"/>
        <pt x="638" y="147" on="0"/>
        <pt x="682" y="146" on="0"/>
        <pt x="705" y="146" on="1"/>
        <pt x="785" y="146" on="1"/>
        <pt x="785" y="-13" on="1"/>
        <pt x="697" y="-5" on="0"/>
        <pt x="544" y="0" on="0"/>
        <pt x="472" y="0" on="1"/>
        <pt x="383" y="0" on="0"/>
        <pt x="200" y="-5" on="0"/>
        <pt x="97" y="-13" on="1"/>
        <pt x="97" y="146" on="1"/>
        <pt x="183" y="146" on="1"/>
        <pt x="209" y="146" on="0"/>
        <pt x="255" y="147" on="0"/>
        <pt x="277" y="150" on="1"/>
        <pt x="282" y="168" on="0"/>
        <pt x="288" y="221" on="0"/>
      </contour>
      <contour>
        <pt x="703" y="1265" on="1"/>
        <pt x="608" y="1265" on="1"/>
        <pt x="608" y="734" on="1"/>
        <pt x="623" y="733" on="0"/>
        <pt x="654" y="733" on="0"/>
        <pt x="671" y="733" on="1"/>
        <pt x="759" y="733" on="0"/>
        <pt x="887" y="762" on="0"/>
        <pt x="970" y="826" on="0"/>
        <pt x="1010" y="930" on="0"/>
        <pt x="1010" y="1004" on="1"/>
        <pt x="1010" y="1077" on="0"/>
        <pt x="976" y="1176" on="0"/>
        <pt x="902" y="1238" on="0"/>
        <pt x="785" y="1265" on="0"/>
      </contour>
    </TTGlyph>
    <TTGlyph name="Racute" xMin="68" yMin="-28" xMax="1515" yMax="1903">
      <component glyphName="acute" x="241" y="366" flags="0x1004"/>
      <component glyphName="R" x="0" y="0" flags="0x1204"/>
    </TTGlyph>
    <TTGlyph name="Rcaron" xMin="68" yMin="-28" xMax="1515" yMax="1920">
      <component glyphName="caron" x="78" y="369" flags="0x1004"/>
      <component glyphName="R" x="0" y="0" flags="0x1204"/>
    </TTGlyph>
    <TTGlyph name="Rcommaaccent" xMin="68" yMin="-796" xMax="1515" yMax="1424">
      <component glyphName="uni0326" x="1066" y="-58" flags="0x1004"/>
      <component glyphName="R" x="0" y="0" flags="0x1204"/>
    </TTGlyph>
    <TTGlyph name="S" xMin="80" yMin="-30" xMax="1175" yMax="1436">
      <contour>
        <pt x="426" y="1089" on="1"/>
        <pt x="426" y="1042" on="0"/>
        <pt x="458" y="971" on="0"/>
        <pt x="515" y="916" on="0"/>
        <pt x="596" y="871" on="0"/>
        <pt x="645" y="852" on="1"/>
        <pt x="743" y="813" on="0"/>
        <pt x="933" y="728" on="0"/>
        <pt x="1083" y="621" on="0"/>
        <pt x="1175" y="484" on="0"/>
        <pt x="1175" y="392" on="1"/>
        <pt x="1175" y="293" on="0"/>
        <pt x="1094" y="136" on="0"/>
        <pt x="950" y="28" on="0"/>
        <pt x="750" y="-30" on="0"/>
        <pt x="632" y="-30" on="1"/>
        <pt x="581" y="-30" on="0"/>
        <pt x="469" y="-19" on="0"/>
        <pt x="358" y="3" on="0"/>
        <pt x="253" y="36" on="0"/>
        <pt x="164" y="78" on="0"/>
        <pt x="97" y="131" on="0"/>
        <pt x="80" y="162" on="1"/>
        <pt x="83" y="191" on="0"/>
        <pt x="99" y="259" on="0"/>
        <pt x="120" y="330" on="0"/>
        <pt x="141" y="400" on="0"/>
        <pt x="150" y="432" on="1"/>
        <pt x="374" y="371" on="1"/>
        <pt x="381" y="333" on="0"/>
        <pt x="389" y="271" on="0"/>
        <pt x="399" y="221" on="0"/>
        <pt x="413" y="182" on="0"/>
        <pt x="427" y="167" on="1"/>
        <pt x="444" y="152" on="0"/>
        <pt x="496" y="133" on="0"/>
        <pt x="554" y="122" on="0"/>
        <pt x="613" y="117" on="0"/>
        <pt x="637" y="117" on="1"/>
        <pt x="684" y="117" on="0"/>
        <pt x="763" y="151" on="0"/>
        <pt x="820" y="209" on="0"/>
        <pt x="851" y="289" on="0"/>
        <pt x="851" y="334" on="1"/>
        <pt x="851" y="396" on="0"/>
        <pt x="801" y="487" on="0"/>
        <pt x="710" y="559" on="0"/>
        <pt x="582" y="620" on="0"/>
        <pt x="504" y="652" on="1"/>
        <pt x="409" y="691" on="0"/>
        <pt x="261" y="774" on="0"/>
        <pt x="160" y="871" on="0"/>
        <pt x="107" y="985" on="0"/>
        <pt x="107" y="1055" on="1"/>
        <pt x="107" y="1139" on="0"/>
        <pt x="185" y="1280" on="0"/>
        <pt x="335" y="1380" on="0"/>
        <pt x="553" y="1436" on="0"/>
        <pt x="694" y="1436" on="1"/>
        <pt x="761" y="1436" on="0"/>
        <pt x="877" y="1417" on="0"/>
        <pt x="979" y="1385" on="0"/>
        <pt x="1070" y="1345" on="0"/>
        <pt x="1112" y="1324" on="1"/>
        <pt x="1110" y="1252" on="0"/>
        <pt x="1080" y="1113" on="0"/>
        <pt x="1066" y="1046" on="1"/>
        <pt x="892" y="1045" on="1"/>
        <pt x="887" y="1097" on="0"/>
        <pt x="865" y="1182" on="0"/>
        <pt x="831" y="1212" on="1"/>
        <pt x="811" y="1229" on="0"/>
        <pt x="754" y="1254" on="0"/>
        <pt x="693" y="1270" on="0"/>
        <pt x="634" y="1277" on="0"/>
        <pt x="613" y="1277" on="1"/>
        <pt x="572" y="1277" on="0"/>
        <pt x="503" y="1252" on="0"/>
        <pt x="454" y="1204" on="0"/>
        <pt x="426" y="1134" on="0"/>
      </contour>
    </TTGlyph>
    <TTGlyph name="Scaron" xMin="80" yMin="-30" xMax="1175" yMax="1920">
      <component glyphName="caron" x="78" y="369" flags="0x1004"/>
      <component glyphName="S" x="0" y="0" flags="0x1204"/>
    </TTGlyph>
    <TTGlyph name="T" xMin="31" yMin="-13" xMax="1385" yMax="1413">
      <contour>
        <pt x="1376" y="1041" on="1"/>
        <pt x="1214" y="1041" on="1"/>
        <pt x="1214" y="1086" on="0"/>
        <pt x="1200" y="1197" on="0"/>
        <pt x="1187" y="1261" on="1"/>
        <pt x="1153" y="1260" on="0"/>
        <pt x="1086" y="1260" on="0"/>
        <pt x="1048" y="1260" on="1"/>
        <pt x="872" y="1260" on="1"/>
        <pt x="872" y="259" on="1"/>
        <pt x="872" y="224" on="0"/>
        <pt x="877" y="171" on="0"/>
        <pt x="883" y="150" on="1"/>
        <pt x="906" y="147" on="0"/>
        <pt x="955" y="146" on="0"/>
        <pt x="981" y="146" on="1"/>
        <pt x="1073" y="146" on="1"/>
        <pt x="1073" y="-13" on="1"/>
        <pt x="979" y="-5" on="0"/>
        <pt x="813" y="0" on="0"/>
        <pt x="736" y="0" on="1"/>
        <pt x="645" y="0" on="0"/>
        <pt x="457" y="-5" on="0"/>
        <pt x="351" y="-13" on="1"/>
        <pt x="351" y="146" on="1"/>
        <pt x="442" y="146" on="1"/>
        <pt x="469" y="146" on="0"/>
        <pt x="518" y="147" on="0"/>
        <pt x="541" y="150" on="1"/>
        <pt x="546" y="168" on="0"/>
        <pt x="552" y="221" on="0"/>
        <pt x="552" y="257" on="1"/>
        <pt x="552" y="510" on="0"/>
        <pt x="551" y="1007" on="0"/>
        <pt x="551" y="1260" on="1"/>
        <pt x="237" y="1260" on="1"/>
        <pt x="225" y="1210" on="0"/>
        <pt x="211" y="1099" on="0"/>
        <pt x="210" y="1041" on="1"/>
        <pt x="41" y="1041" on="1"/>
        <pt x="41" y="1069" on="0"/>
        <pt x="38" y="1164" on="0"/>
        <pt x="34" y="1267" on="0"/>
        <pt x="31" y="1365" on="0"/>
        <pt x="31" y="1397" on="1"/>
        <pt x="57" y="1408" on="0"/>
        <pt x="199" y="1413" on="0"/>
        <pt x="299" y="1413" on="1"/>
        <pt x="318" y="1413" on="0"/>
        <pt x="382" y="1412" on="0"/>
        <pt x="459" y="1410" on="0"/>
        <pt x="543" y="1409" on="0"/>
        <pt x="623" y="1407" on="0"/>
        <pt x="693" y="1406" on="0"/>
        <pt x="717" y="1406" on="1"/>
        <pt x="763" y="1406" on="0"/>
        <pt x="882" y="1408" on="0"/>
        <pt x="999" y="1411" on="0"/>
        <pt x="1100" y="1413" on="0"/>
        <pt x="1128" y="1413" on="1"/>
        <pt x="1225" y="1413" on="0"/>
        <pt x="1359" y="1408" on="0"/>
        <pt x="1385" y="1397" on="1"/>
        <pt x="1385" y="1364" on="0"/>
        <pt x="1382" y="1267" on="0"/>
        <pt x="1379" y="1164" on="0"/>
        <pt x="1376" y="1070" on="0"/>
      </contour>
    </TTGlyph>
    <TTGlyph name="Thorn" xMin="84" yMin="-8" xMax="1317" yMax="1416">
      <contour>
        <pt x="710" y="1019" on="1"/>
        <pt x="679" y="1019" on="0"/>
        <pt x="630" y="1019" on="0"/>
        <pt x="604" y="1017" on="1"/>
        <pt x="604" y="483" on="1"/>
        <pt x="614" y="482" on="0"/>
        <pt x="636" y="482" on="0"/>
        <pt x="648" y="482" on="1"/>
        <pt x="699" y="482" on="1"/>
        <pt x="781" y="482" on="0"/>
        <pt x="892" y="519" on="0"/>
        <pt x="961" y="588" on="0"/>
        <pt x="991" y="687" on="0"/>
        <pt x="991" y="749" on="1"/>
        <pt x="991" y="821" on="0"/>
        <pt x="959" y="923" on="0"/>
        <pt x="890" y="988" on="0"/>
        <pt x="784" y="1019" on="0"/>
      </contour>
      <contour>
        <pt x="285" y="243" on="1"/>
        <pt x="285" y="475" on="0"/>
        <pt x="284" y="933" on="0"/>
        <pt x="284" y="1165" on="1"/>
        <pt x="284" y="1233" on="0"/>
        <pt x="274" y="1272" on="1"/>
        <pt x="248" y="1277" on="0"/>
        <pt x="191" y="1278" on="0"/>
        <pt x="160" y="1278" on="1"/>
        <pt x="84" y="1278" on="1"/>
        <pt x="84" y="1394" on="1"/>
        <pt x="118" y="1399" on="0"/>
        <pt x="187" y="1407" on="0"/>
        <pt x="267" y="1413" on="0"/>
        <pt x="365" y="1416" on="0"/>
        <pt x="427" y="1416" on="1"/>
        <pt x="539" y="1416" on="0"/>
        <pt x="729" y="1407" on="0"/>
        <pt x="806" y="1396" on="1"/>
        <pt x="806" y="1278" on="1"/>
        <pt x="699" y="1278" on="1"/>
        <pt x="676" y="1278" on="0"/>
        <pt x="635" y="1277" on="0"/>
        <pt x="615" y="1272" on="1"/>
        <pt x="610" y="1254" on="0"/>
        <pt x="605" y="1204" on="0"/>
        <pt x="605" y="1172" on="1"/>
        <pt x="637" y="1173" on="0"/>
        <pt x="702" y="1173" on="0"/>
        <pt x="736" y="1173" on="1"/>
        <pt x="864" y="1173" on="0"/>
        <pt x="1077" y="1133" on="0"/>
        <pt x="1231" y="1036" on="0"/>
        <pt x="1317" y="873" on="0"/>
        <pt x="1317" y="750" on="1"/>
        <pt x="1317" y="649" on="0"/>
        <pt x="1242" y="494" on="0"/>
        <pt x="1087" y="388" on="0"/>
        <pt x="849" y="333" on="0"/>
        <pt x="686" y="333" on="1"/>
        <pt x="668" y="333" on="0"/>
        <pt x="628" y="334" on="0"/>
        <pt x="605" y="336" on="1"/>
        <pt x="605" y="269" on="0"/>
        <pt x="608" y="159" on="0"/>
        <pt x="615" y="136" on="1"/>
        <pt x="634" y="133" on="0"/>
        <pt x="676" y="131" on="0"/>
        <pt x="699" y="131" on="1"/>
        <pt x="806" y="131" on="1"/>
        <pt x="806" y="-5" on="1"/>
        <pt x="675" y="-8" on="0"/>
        <pt x="533" y="-8" on="1"/>
        <pt x="421" y="-8" on="0"/>
        <pt x="203" y="-5" on="0"/>
        <pt x="85" y="-3" on="1"/>
        <pt x="85" y="131" on="1"/>
        <pt x="190" y="131" on="1"/>
        <pt x="213" y="131" on="0"/>
        <pt x="255" y="132" on="0"/>
        <pt x="274" y="136" on="1"/>
        <pt x="285" y="172" on="0"/>
      </contour>
    </TTGlyph>
    <TTGlyph name="U" xMin="32" yMin="-30" xMax="1627" yMax="1419">
      <contour>
        <pt x="1425" y="1153" on="1"/>
        <pt x="1425" y="515" on="1"/>
        <pt x="1425" y="375" on="0"/>
        <pt x="1332" y="170" on="0"/>
        <pt x="1169" y="36" on="0"/>
        <pt x="948" y="-30" on="0"/>
        <pt x="821" y="-30" on="1"/>
        <pt x="668" y="-30" on="0"/>
        <pt x="446" y="51" on="0"/>
        <pt x="302" y="207" on="0"/>
        <pt x="233" y="435" on="0"/>
        <pt x="233" y="582" on="1"/>
        <pt x="233" y="1153" on="1"/>
        <pt x="233" y="1222" on="0"/>
        <pt x="222" y="1260" on="1"/>
        <pt x="199" y="1264" on="0"/>
        <pt x="150" y="1265" on="0"/>
        <pt x="123" y="1265" on="1"/>
        <pt x="32" y="1265" on="1"/>
        <pt x="32" y="1406" on="1"/>
        <pt x="112" y="1412" on="0"/>
        <pt x="272" y="1419" on="0"/>
        <pt x="358" y="1419" on="1"/>
        <pt x="431" y="1419" on="0"/>
        <pt x="546" y="1418" on="0"/>
        <pt x="638" y="1415" on="0"/>
        <pt x="711" y="1409" on="0"/>
        <pt x="741" y="1405" on="1"/>
        <pt x="741" y="1265" on="1"/>
        <pt x="655" y="1265" on="1"/>
        <pt x="630" y="1265" on="0"/>
        <pt x="585" y="1264" on="0"/>
        <pt x="564" y="1260" on="1"/>
        <pt x="554" y="1216" on="0"/>
        <pt x="554" y="1153" on="1"/>
        <pt x="554" y="991" on="0"/>
        <pt x="553" y="669" on="0"/>
        <pt x="553" y="507" on="1"/>
        <pt x="553" y="414" on="0"/>
        <pt x="594" y="272" on="0"/>
        <pt x="670" y="174" on="0"/>
        <pt x="781" y="124" on="0"/>
        <pt x="850" y="124" on="1"/>
        <pt x="932" y="124" on="0"/>
        <pt x="1047" y="186" on="0"/>
        <pt x="1119" y="303" on="0"/>
        <pt x="1152" y="471" on="0"/>
        <pt x="1152" y="577" on="1"/>
        <pt x="1152" y="1153" on="1"/>
        <pt x="1152" y="1222" on="0"/>
        <pt x="1141" y="1260" on="1"/>
        <pt x="1121" y="1264" on="0"/>
        <pt x="1076" y="1265" on="0"/>
        <pt x="1052" y="1265" on="1"/>
        <pt x="970" y="1265" on="1"/>
        <pt x="970" y="1406" on="1"/>
        <pt x="1046" y="1413" on="0"/>
        <pt x="1206" y="1419" on="0"/>
        <pt x="1298" y="1419" on="1"/>
        <pt x="1356" y="1419" on="0"/>
        <pt x="1452" y="1418" on="0"/>
        <pt x="1532" y="1415" on="0"/>
        <pt x="1598" y="1409" on="0"/>
        <pt x="1627" y="1405" on="1"/>
        <pt x="1627" y="1265" on="1"/>
        <pt x="1534" y="1265" on="1"/>
        <pt x="1508" y="1265" on="0"/>
        <pt x="1458" y="1264" on="0"/>
        <pt x="1436" y="1260" on="1"/>
        <pt x="1431" y="1240" on="0"/>
        <pt x="1425" y="1188" on="0"/>
      </contour>
    </TTGlyph>
    <TTGlyph name="Uacute" xMin="32" yMin="-30" xMax="1627" yMax="1903">
      <component glyphName="acute" x="374" y="366" flags="0x1004"/>
      <component glyphName="U" x="0" y="0" flags="0x1204"/>
    </TTGlyph>
    <TTGlyph name="Ucircumflex" xMin="32" yMin="-30" xMax="1627" yMax="1894">
      <component glyphName="circumflex" x="226" y="351" flags="0x1004"/>
      <component glyphName="U" x="0" y="0" flags="0x1204"/>
    </TTGlyph>
    <TTGlyph name="Udieresis" xMin="32" yMin="-30" xMax="1627" yMax="1870">
      <component glyphName="dieresis" x="284" y="458" flags="0x1004"/>
      <component glyphName="U" x="0" y="0" flags="0x1204"/>
    </TTGlyph>
    <TTGlyph name="Ugrave" xMin="32" yMin="-30" xMax="1627" yMax="1904">
      <component glyphName="grave" x="78" y="367" flags="0x1004"/>
      <component glyphName="U" x="0" y="0" flags="0x1204"/>
    </TTGlyph>
    <TTGlyph name="V" xMin="0" yMin="-5" xMax="1687" yMax="1419">
      <contour>
        <pt x="905" y="329" on="1"/>
        <pt x="1186" y="1153" on="1"/>
        <pt x="1197" y="1184" on="0"/>
        <pt x="1207" y="1236" on="0"/>
        <pt x="1210" y="1260" on="1"/>
        <pt x="1192" y="1264" on="0"/>
        <pt x="1150" y="1265" on="0"/>
        <pt x="1127" y="1265" on="1"/>
        <pt x="1060" y="1265" on="1"/>
        <pt x="1085" y="1405" on="1"/>
        <pt x="1173" y="1416" on="0"/>
        <pt x="1340" y="1418" on="0"/>
        <pt x="1425" y="1418" on="1"/>
        <pt x="1497" y="1418" on="0"/>
        <pt x="1628" y="1413" on="0"/>
        <pt x="1687" y="1405" on="1"/>
        <pt x="1663" y="1265" on="1"/>
        <pt x="1608" y="1265" on="1"/>
        <pt x="1579" y="1265" on="0"/>
        <pt x="1523" y="1264" on="0"/>
        <pt x="1496" y="1260" on="1"/>
        <pt x="1486" y="1243" on="0"/>
        <pt x="1464" y="1192" on="0"/>
        <pt x="1450" y="1153" on="1"/>
        <pt x="1345" y="845" on="0"/>
        <pt x="1118" y="252" on="0"/>
        <pt x="1002" y="-5" on="1"/>
        <pt x="856" y="-5" on="1"/>
        <pt x="787" y="-5" on="0"/>
        <pt x="705" y="19" on="0"/>
        <pt x="689" y="59" on="1"/>
        <pt x="260" y="1153" on="1"/>
        <pt x="246" y="1189" on="0"/>
        <pt x="218" y="1240" on="0"/>
        <pt x="203" y="1260" on="1"/>
        <pt x="182" y="1264" on="0"/>
        <pt x="142" y="1265" on="0"/>
        <pt x="119" y="1265" on="1"/>
        <pt x="23" y="1265" on="1"/>
        <pt x="0" y="1405" on="1"/>
        <pt x="42" y="1409" on="0"/>
        <pt x="130" y="1415" on="0"/>
        <pt x="229" y="1418" on="0"/>
        <pt x="342" y="1419" on="0"/>
        <pt x="408" y="1419" on="1"/>
        <pt x="486" y="1419" on="0"/>
        <pt x="622" y="1412" on="0"/>
        <pt x="679" y="1405" on="1"/>
        <pt x="708" y="1265" on="1"/>
        <pt x="640" y="1265" on="1"/>
        <pt x="617" y="1265" on="0"/>
        <pt x="575" y="1264" on="0"/>
        <pt x="557" y="1260" on="1"/>
        <pt x="562" y="1233" on="0"/>
        <pt x="582" y="1182" on="0"/>
        <pt x="592" y="1156" on="1"/>
        <pt x="667" y="957" on="0"/>
        <pt x="814" y="563" on="0"/>
        <pt x="888" y="365" on="1"/>
      </contour>
    </TTGlyph>
    <TTGlyph name="W" xMin="9" yMin="-5" xMax="2420" yMax="1419">
      <contour>
        <pt x="1952" y="1197" on="1"/>
        <pt x="1960" y="1213" on="0"/>
        <pt x="1960" y="1227" on="1"/>
        <pt x="1960" y="1251" on="0"/>
        <pt x="1907" y="1265" on="0"/>
        <pt x="1870" y="1265" on="1"/>
        <pt x="1798" y="1265" on="1"/>
        <pt x="1817" y="1405" on="1"/>
        <pt x="1841" y="1408" on="0"/>
        <pt x="1893" y="1413" on="0"/>
        <pt x="1958" y="1416" on="0"/>
        <pt x="2040" y="1418" on="0"/>
        <pt x="2093" y="1418" on="1"/>
        <pt x="2153" y="1418" on="0"/>
        <pt x="2248" y="1417" on="0"/>
        <pt x="2326" y="1414" on="0"/>
        <pt x="2390" y="1409" on="0"/>
        <pt x="2420" y="1405" on="1"/>
        <pt x="2401" y="1265" on="1"/>
        <pt x="2331" y="1265" on="1"/>
        <pt x="2305" y="1265" on="0"/>
        <pt x="2257" y="1264" on="0"/>
        <pt x="2234" y="1260" on="1"/>
        <pt x="2228" y="1247" on="0"/>
        <pt x="2208" y="1186" on="0"/>
        <pt x="2182" y="1103" on="0"/>
        <pt x="2152" y="1005" on="0"/>
        <pt x="2123" y="904" on="0"/>
        <pt x="2095" y="810" on="0"/>
        <pt x="2084" y="772" on="1"/>
        <pt x="2017" y="558" on="0"/>
        <pt x="1880" y="168" on="0"/>
        <pt x="1809" y="-5" on="1"/>
        <pt x="1632" y="-5" on="1"/>
        <pt x="1596" y="-5" on="0"/>
        <pt x="1547" y="0" on="0"/>
        <pt x="1513" y="18" on="0"/>
        <pt x="1491" y="55" on="0"/>
        <pt x="1482" y="87" on="1"/>
        <pt x="1231" y="857" on="1"/>
        <pt x="1167" y="616" on="0"/>
        <pt x="1036" y="190" on="0"/>
        <pt x="963" y="-5" on="1"/>
        <pt x="749" y="-5" on="1"/>
        <pt x="704" y="-5" on="0"/>
        <pt x="653" y="22" on="0"/>
        <pt x="643" y="59" on="1"/>
        <pt x="269" y="1153" on="1"/>
        <pt x="260" y="1177" on="0"/>
        <pt x="245" y="1209" on="0"/>
        <pt x="231" y="1233" on="0"/>
        <pt x="219" y="1251" on="0"/>
        <pt x="212" y="1260" on="1"/>
        <pt x="188" y="1264" on="0"/>
        <pt x="140" y="1265" on="0"/>
        <pt x="114" y="1265" on="1"/>
        <pt x="33" y="1265" on="1"/>
        <pt x="9" y="1405" on="1"/>
        <pt x="42" y="1408" on="0"/>
        <pt x="111" y="1414" on="0"/>
        <pt x="192" y="1417" on="0"/>
        <pt x="291" y="1419" on="0"/>
        <pt x="354" y="1419" on="1"/>
        <pt x="415" y="1419" on="0"/>
        <pt x="512" y="1417" on="0"/>
        <pt x="592" y="1414" on="0"/>
        <pt x="659" y="1408" on="0"/>
        <pt x="689" y="1405" on="1"/>
        <pt x="717" y="1265" on="1"/>
        <pt x="649" y="1265" on="1"/>
        <pt x="626" y="1265" on="0"/>
        <pt x="585" y="1264" on="0"/>
        <pt x="567" y="1260" on="1"/>
        <pt x="572" y="1237" on="0"/>
        <pt x="590" y="1187" on="0"/>
        <pt x="602" y="1156" on="1"/>
        <pt x="860" y="329" on="1"/>
        <pt x="860" y="329" on="0"/>
        <pt x="878" y="391" on="0"/>
        <pt x="910" y="500" on="0"/>
        <pt x="954" y="648" on="0"/>
        <pt x="1003" y="821" on="0"/>
        <pt x="1055" y="1011" on="0"/>
        <pt x="1081" y="1107" on="1"/>
        <pt x="1092" y="1148" on="0"/>
        <pt x="1104" y="1227" on="0"/>
        <pt x="1111" y="1300" on="0"/>
        <pt x="1116" y="1364" on="0"/>
        <pt x="1121" y="1390" on="1"/>
        <pt x="1283" y="1390" on="1"/>
        <pt x="1317" y="1390" on="0"/>
        <pt x="1362" y="1365" on="0"/>
        <pt x="1391" y="1324" on="0"/>
        <pt x="1410" y="1270" on="0"/>
        <pt x="1420" y="1240" on="1"/>
        <pt x="1707" y="326" on="1"/>
        <pt x="1775" y="569" on="0"/>
        <pt x="1829" y="761" on="1"/>
        <pt x="1852" y="843" on="0"/>
        <pt x="1896" y="999" on="0"/>
        <pt x="1931" y="1122" on="0"/>
        <pt x="1952" y="1197" on="0"/>
      </contour>
    </TTGlyph>
    <TTGlyph name="X" xMin="18" yMin="-13" xMax="1650" yMax="1419">
      <contour>
        <pt x="999" y="254" on="1"/>
        <pt x="775" y="558" on="1"/>
        <pt x="566" y="256" on="1"/>
        <pt x="545" y="225" on="0"/>
        <pt x="523" y="180" on="0"/>
        <pt x="519" y="162" on="1"/>
        <pt x="529" y="153" on="0"/>
        <pt x="561" y="146" on="0"/>
        <pt x="584" y="146" on="1"/>
        <pt x="672" y="146" on="1"/>
        <pt x="651" y="-13" on="1"/>
        <pt x="563" y="-5" on="0"/>
        <pt x="401" y="0" on="0"/>
        <pt x="326" y="0" on="1"/>
        <pt x="257" y="0" on="0"/>
        <pt x="108" y="-5" on="0"/>
        <pt x="18" y="-13" on="1"/>
        <pt x="21" y="27" on="0"/>
        <pt x="27" y="106" on="0"/>
        <pt x="29" y="146" on="1"/>
        <pt x="102" y="146" on="1"/>
        <pt x="123" y="146" on="0"/>
        <pt x="161" y="147" on="0"/>
        <pt x="181" y="150" on="1"/>
        <pt x="206" y="164" on="0"/>
        <pt x="257" y="220" on="0"/>
        <pt x="291" y="261" on="1"/>
        <pt x="646" y="692" on="1"/>
        <pt x="297" y="1161" on="1"/>
        <pt x="275" y="1190" on="0"/>
        <pt x="241" y="1230" on="0"/>
        <pt x="207" y="1254" on="0"/>
        <pt x="166" y="1265" on="0"/>
        <pt x="137" y="1265" on="1"/>
        <pt x="62" y="1265" on="1"/>
        <pt x="27" y="1405" on="1"/>
        <pt x="94" y="1411" on="0"/>
        <pt x="248" y="1419" on="0"/>
        <pt x="345" y="1419" on="1"/>
        <pt x="423" y="1419" on="1"/>
        <pt x="527" y="1419" on="0"/>
        <pt x="675" y="1413" on="0"/>
        <pt x="735" y="1405" on="1"/>
        <pt x="765" y="1265" on="1"/>
        <pt x="691" y="1265" on="1"/>
        <pt x="670" y="1265" on="0"/>
        <pt x="640" y="1260" on="0"/>
        <pt x="631" y="1252" on="1"/>
        <pt x="633" y="1234" on="0"/>
        <pt x="654" y="1199" on="0"/>
        <pt x="675" y="1169" on="1"/>
        <pt x="892" y="851" on="1"/>
        <pt x="1081" y="1125" on="1"/>
        <pt x="1112" y="1167" on="0"/>
        <pt x="1147" y="1225" on="0"/>
        <pt x="1154" y="1246" on="1"/>
        <pt x="1145" y="1257" on="0"/>
        <pt x="1113" y="1265" on="0"/>
        <pt x="1090" y="1265" on="1"/>
        <pt x="1003" y="1265" on="1"/>
        <pt x="1042" y="1405" on="1"/>
        <pt x="1111" y="1412" on="0"/>
        <pt x="1269" y="1419" on="0"/>
        <pt x="1380" y="1419" on="1"/>
        <pt x="1461" y="1419" on="0"/>
        <pt x="1593" y="1413" on="0"/>
        <pt x="1650" y="1405" on="1"/>
        <pt x="1616" y="1265" on="1"/>
        <pt x="1531" y="1265" on="1"/>
        <pt x="1511" y="1265" on="0"/>
        <pt x="1472" y="1264" on="0"/>
        <pt x="1452" y="1260" on="1"/>
        <pt x="1429" y="1244" on="0"/>
        <pt x="1377" y="1192" on="0"/>
        <pt x="1342" y="1147" on="1"/>
        <pt x="1288" y="1076" on="0"/>
        <pt x="1195" y="957" on="0"/>
        <pt x="1113" y="853" on="0"/>
        <pt x="1042" y="762" on="0"/>
        <pt x="1010" y="721" on="1"/>
        <pt x="1365" y="280" on="1"/>
        <pt x="1395" y="243" on="0"/>
        <pt x="1445" y="178" on="0"/>
        <pt x="1474" y="157" on="1"/>
        <pt x="1491" y="150" on="0"/>
        <pt x="1527" y="146" on="0"/>
        <pt x="1547" y="146" on="1"/>
        <pt x="1599" y="146" on="1"/>
        <pt x="1610" y="-13" on="1"/>
        <pt x="1517" y="-5" on="0"/>
        <pt x="1360" y="0" on="0"/>
        <pt x="1281" y="0" on="1"/>
        <pt x="1210" y="0" on="0"/>
        <pt x="1037" y="-5" on="0"/>
        <pt x="931" y="-13" on="1"/>
        <pt x="913" y="146" on="1"/>
        <pt x="991" y="146" on="1"/>
        <pt x="1011" y="146" on="0"/>
        <pt x="1042" y="151" on="0"/>
        <pt x="1052" y="159" on="1"/>
        <pt x="1047" y="176" on="0"/>
        <pt x="1022" y="222" on="0"/>
      </contour>
    </TTGlyph>
    <TTGlyph name="Y" xMin="-5" yMin="-13" xMax="1585" yMax="1419">
      <contour>
        <pt x="1085" y="1153" on="1"/>
        <pt x="1099" y="1183" on="0"/>
        <pt x="1114" y="1234" on="0"/>
        <pt x="1119" y="1260" on="1"/>
        <pt x="1103" y="1264" on="0"/>
        <pt x="1065" y="1265" on="0"/>
        <pt x="1043" y="1265" on="1"/>
        <pt x="956" y="1265" on="1"/>
        <pt x="985" y="1405" on="1"/>
        <pt x="1054" y="1413" on="0"/>
        <pt x="1205" y="1419" on="0"/>
        <pt x="1293" y="1419" on="1"/>
        <pt x="1345" y="1419" on="0"/>
        <pt x="1429" y="1417" on="0"/>
        <pt x="1499" y="1414" on="0"/>
        <pt x="1558" y="1409" on="0"/>
        <pt x="1585" y="1405" on="1"/>
        <pt x="1553" y="1265" on="1"/>
        <pt x="1462" y="1265" on="1"/>
        <pt x="1441" y="1265" on="0"/>
        <pt x="1402" y="1264" on="0"/>
        <pt x="1382" y="1260" on="1"/>
        <pt x="1365" y="1237" on="0"/>
        <pt x="1353" y="1222" on="0"/>
        <pt x="1350" y="1217" on="0"/>
        <pt x="1350" y="1215" on="0"/>
        <pt x="1342" y="1196" on="0"/>
        <pt x="1320" y="1151" on="0"/>
        <pt x="1271" y="1063" on="0"/>
        <pt x="1191" y="921" on="0"/>
        <pt x="1129" y="815" on="1"/>
        <pt x="956" y="515" on="1"/>
        <pt x="956" y="276" on="1"/>
        <pt x="956" y="234" on="0"/>
        <pt x="961" y="167" on="0"/>
        <pt x="966" y="141" on="1"/>
        <pt x="986" y="138" on="0"/>
        <pt x="1027" y="136" on="0"/>
        <pt x="1050" y="136" on="1"/>
        <pt x="1157" y="136" on="1"/>
        <pt x="1157" y="-13" on="1"/>
        <pt x="1063" y="-5" on="0"/>
        <pt x="897" y="0" on="0"/>
        <pt x="820" y="0" on="1"/>
        <pt x="729" y="0" on="0"/>
        <pt x="541" y="-5" on="0"/>
        <pt x="436" y="-13" on="1"/>
        <pt x="436" y="136" on="1"/>
        <pt x="542" y="136" on="1"/>
        <pt x="565" y="136" on="0"/>
        <pt x="605" y="137" on="0"/>
        <pt x="625" y="141" on="1"/>
        <pt x="635" y="175" on="0"/>
        <pt x="635" y="237" on="1"/>
        <pt x="635" y="490" on="1"/>
        <pt x="623" y="509" on="0"/>
        <pt x="604" y="547" on="0"/>
        <pt x="593" y="566" on="1"/>
        <pt x="244" y="1153" on="1"/>
        <pt x="231" y="1174" on="0"/>
        <pt x="213" y="1208" on="0"/>
        <pt x="198" y="1235" on="0"/>
        <pt x="185" y="1254" on="0"/>
        <pt x="176" y="1260" on="1"/>
        <pt x="156" y="1264" on="0"/>
        <pt x="113" y="1265" on="0"/>
        <pt x="90" y="1265" on="1"/>
        <pt x="21" y="1265" on="1"/>
        <pt x="-5" y="1405" on="1"/>
        <pt x="67" y="1412" on="0"/>
        <pt x="214" y="1419" on="0"/>
        <pt x="293" y="1419" on="1"/>
        <pt x="363" y="1419" on="0"/>
        <pt x="477" y="1418" on="0"/>
        <pt x="572" y="1415" on="0"/>
        <pt x="650" y="1409" on="0"/>
        <pt x="684" y="1405" on="1"/>
        <pt x="700" y="1265" on="1"/>
        <pt x="633" y="1265" on="1"/>
        <pt x="610" y="1265" on="0"/>
        <pt x="568" y="1264" on="0"/>
        <pt x="551" y="1260" on="1"/>
        <pt x="559" y="1228" on="0"/>
        <pt x="576" y="1189" on="0"/>
        <pt x="587" y="1169" on="1"/>
        <pt x="854" y="704" on="1"/>
        <pt x="887" y="763" on="0"/>
        <pt x="955" y="894" on="0"/>
        <pt x="1018" y="1016" on="0"/>
        <pt x="1070" y="1120" on="0"/>
      </contour>
    </TTGlyph>
    <TTGlyph name="Yacute" xMin="-5" yMin="-13" xMax="1585" yMax="1903">
      <component glyphName="acute" x="339" y="366" flags="0x1004"/>
      <component glyphName="Y" x="0" y="0" flags="0x1204"/>
    </TTGlyph>
    <TTGlyph name="Ydieresis" xMin="-5" yMin="-13" xMax="1585" yMax="1870">
      <component glyphName="dieresis" x="250" y="458" flags="0x1004"/>
      <component glyphName="Y" x="0" y="0" flags="0x1204"/>
    </TTGlyph>
    <TTGlyph name="Z" xMin="92" yMin="0" xMax="1232" yMax="1413">
      <contour>
        <pt x="100" y="1390" on="1"/>
        <pt x="230" y="1401" on="0"/>
        <pt x="503" y="1413" on="0"/>
        <pt x="654" y="1413" on="1"/>
        <pt x="1093" y="1413" on="1"/>
        <pt x="1119" y="1413" on="0"/>
        <pt x="1167" y="1409" on="0"/>
        <pt x="1205" y="1393" on="0"/>
        <pt x="1227" y="1363" on="0"/>
        <pt x="1227" y="1338" on="1"/>
        <pt x="1227" y="1248" on="1"/>
        <pt x="435" y="152" on="1"/>
        <pt x="766" y="152" on="1"/>
        <pt x="802" y="152" on="0"/>
        <pt x="875" y="155" on="0"/>
        <pt x="911" y="159" on="1"/>
        <pt x="933" y="179" on="0"/>
        <pt x="971" y="227" on="0"/>
        <pt x="999" y="292" on="0"/>
        <pt x="1016" y="380" on="0"/>
        <pt x="1016" y="442" on="1"/>
        <pt x="1042" y="442" on="0"/>
        <pt x="1106" y="439" on="0"/>
        <pt x="1164" y="436" on="0"/>
        <pt x="1211" y="434" on="0"/>
        <pt x="1221" y="434" on="1"/>
        <pt x="1222" y="417" on="0"/>
        <pt x="1225" y="340" on="0"/>
        <pt x="1228" y="249" on="0"/>
        <pt x="1231" y="159" on="0"/>
        <pt x="1232" y="129" on="1"/>
        <pt x="1232" y="114" on="0"/>
        <pt x="1227" y="56" on="0"/>
        <pt x="1222" y="13" on="1"/>
        <pt x="1160" y="2" on="0"/>
        <pt x="1021" y="0" on="0"/>
        <pt x="940" y="0" on="1"/>
        <pt x="145" y="0" on="1"/>
        <pt x="127" y="4" on="0"/>
        <pt x="106" y="22" on="0"/>
        <pt x="95" y="47" on="0"/>
        <pt x="92" y="77" on="0"/>
        <pt x="92" y="92" on="1"/>
        <pt x="92" y="174" on="1"/>
        <pt x="866" y="1257" on="1"/>
        <pt x="632" y="1257" on="1"/>
        <pt x="603" y="1257" on="0"/>
        <pt x="520" y="1252" on="0"/>
        <pt x="435" y="1240" on="0"/>
        <pt x="362" y="1220" on="0"/>
        <pt x="344" y="1205" on="1"/>
        <pt x="342" y="1191" on="0"/>
        <pt x="341" y="1133" on="0"/>
        <pt x="341" y="1100" on="1"/>
        <pt x="341" y="1088" on="0"/>
        <pt x="342" y="1063" on="0"/>
        <pt x="342" y="1051" on="1"/>
        <pt x="292" y="1051" on="0"/>
        <pt x="193" y="1050" on="0"/>
        <pt x="141" y="1050" on="1"/>
        <pt x="139" y="1077" on="0"/>
        <pt x="128" y="1163" on="0"/>
        <pt x="115" y="1259" on="0"/>
        <pt x="103" y="1354" on="0"/>
      </contour>
    </TTGlyph>
    <TTGlyph name="Zcaron" xMin="92" yMin="0" xMax="1232" yMax="1920">
      <component glyphName="caron" x="257" y="369" flags="0x1004"/>
      <component glyphName="Z" x="0" y="0" flags="0x1204"/>
    </TTGlyph>
    <TTGlyph name="a" xMin="97" yMin="-23" xMax="1213" yMax="1034">
      <contour>
        <pt x="1213" y="123" on="1"/>
        <pt x="1213" y="26" on="1"/>
        <pt x="1150" y="7" on="0"/>
        <pt x="997" y="-10" on="0"/>
        <pt x="909" y="-10" on="1"/>
        <pt x="879" y="-10" on="0"/>
        <pt x="829" y="-3" on="0"/>
        <pt x="809" y="6" on="1"/>
        <pt x="765" y="43" on="0"/>
        <pt x="744" y="109" on="1"/>
        <pt x="684" y="50" on="0"/>
        <pt x="534" y="-23" on="0"/>
        <pt x="438" y="-23" on="1"/>
        <pt x="363" y="-23" on="0"/>
        <pt x="237" y="15" on="0"/>
        <pt x="147" y="89" on="0"/>
        <pt x="97" y="199" on="0"/>
        <pt x="97" y="272" on="1"/>
        <pt x="97" y="432" on="0"/>
        <pt x="370" y="593" on="0"/>
        <pt x="649" y="593" on="1"/>
        <pt x="735" y="593" on="1"/>
        <pt x="735" y="645" on="1"/>
        <pt x="735" y="783" on="0"/>
        <pt x="680" y="907" on="0"/>
        <pt x="611" y="907" on="1"/>
        <pt x="566" y="907" on="0"/>
        <pt x="484" y="875" on="0"/>
        <pt x="410" y="818" on="0"/>
        <pt x="343" y="740" on="0"/>
        <pt x="312" y="695" on="1"/>
        <pt x="124" y="815" on="1"/>
        <pt x="128" y="860" on="0"/>
        <pt x="205" y="940" on="0"/>
        <pt x="331" y="1000" on="0"/>
        <pt x="495" y="1034" on="0"/>
        <pt x="586" y="1034" on="1"/>
        <pt x="815" y="1034" on="0"/>
        <pt x="1047" y="848" on="0"/>
        <pt x="1047" y="643" on="1"/>
        <pt x="1047" y="623" on="0"/>
        <pt x="1047" y="574" on="0"/>
        <pt x="1046" y="493" on="0"/>
        <pt x="1046" y="368" on="0"/>
        <pt x="1046" y="271" on="1"/>
        <pt x="1046" y="218" on="0"/>
        <pt x="1053" y="146" on="0"/>
        <pt x="1058" y="124" on="1"/>
        <pt x="1075" y="123" on="0"/>
        <pt x="1112" y="123" on="0"/>
        <pt x="1131" y="123" on="1"/>
      </contour>
      <contour>
        <pt x="727" y="198" on="1"/>
        <pt x="730" y="259" on="0"/>
        <pt x="735" y="396" on="0"/>
        <pt x="735" y="477" on="1"/>
        <pt x="639" y="477" on="1"/>
        <pt x="527" y="477" on="0"/>
        <pt x="406" y="375" on="0"/>
        <pt x="406" y="281" on="1"/>
        <pt x="406" y="196" on="0"/>
        <pt x="481" y="119" on="0"/>
        <pt x="542" y="119" on="1"/>
        <pt x="587" y="119" on="0"/>
        <pt x="681" y="162" on="0"/>
      </contour>
    </TTGlyph>
    <TTGlyph name="aacute" xMin="97" yMin="-23" xMax="1213" yMax="1502">
      <component glyphName="acute" x="132" y="-35" flags="0x1004"/>
      <component glyphName="a" x="0" y="0" flags="0x1204"/>
    </TTGlyph>
    <TTGlyph name="acircumflex" xMin="97" yMin="-23" xMax="1213" yMax="1493">
      <component glyphName="circumflex" x="-16" y="-50" flags="0x1004"/>
      <component glyphName="a" x="0" y="0" flags="0x1204"/>
    </TTGlyph>
    <TTGlyph name="acute" xMin="362" yMin="1192" xMax="852" yMax="1537">
      <contour>
        <pt x="362" y="1192" on="1"/>
        <pt x="392" y="1251" on="0"/>
        <pt x="441" y="1348" on="0"/>
        <pt x="481" y="1432" on="0"/>
        <pt x="516" y="1504" on="0"/>
        <pt x="532" y="1537" on="1"/>
        <pt x="852" y="1537" on="1"/>
        <pt x="834" y="1514" on="0"/>
        <pt x="784" y="1456" on="0"/>
        <pt x="712" y="1374" on="0"/>
        <pt x="613" y="1265" on="0"/>
        <pt x="546" y="1192" on="1"/>
      </contour>
    </TTGlyph>
    <TTGlyph name="adieresis" xMin="97" yMin="-23" xMax="1213" yMax="1469">
      <component glyphName="dieresis" x="42" y="57" flags="0x1004"/>
      <component glyphName="a" x="0" y="0" flags="0x1204"/>
    </TTGlyph>
    <TTGlyph name="ae" xMin="97" yMin="-25" xMax="1748" yMax="1038">
      <contour>
        <pt x="777" y="190" on="1"/>
        <pt x="740" y="297" on="0"/>
        <pt x="736" y="475" on="1"/>
        <pt x="719" y="476" on="0"/>
        <pt x="683" y="477" on="0"/>
        <pt x="664" y="477" on="1"/>
        <pt x="541" y="477" on="0"/>
        <pt x="406" y="384" on="0"/>
        <pt x="406" y="281" on="1"/>
        <pt x="406" y="196" on="0"/>
        <pt x="485" y="115" on="0"/>
        <pt x="557" y="115" on="1"/>
        <pt x="606" y="115" on="0"/>
        <pt x="717" y="156" on="0"/>
      </contour>
      <contour>
        <pt x="1054" y="597" on="1"/>
        <pt x="1447" y="597" on="1"/>
        <pt x="1448" y="602" on="0"/>
        <pt x="1448" y="610" on="0"/>
        <pt x="1448" y="615" on="1"/>
        <pt x="1448" y="674" on="0"/>
        <pt x="1426" y="779" on="0"/>
        <pt x="1381" y="858" on="0"/>
        <pt x="1312" y="904" on="0"/>
        <pt x="1264" y="904" on="1"/>
        <pt x="1075" y="904" on="0"/>
      </contour>
      <contour>
        <pt x="1659" y="224" on="1"/>
        <pt x="1712" y="132" on="1"/>
        <pt x="1643" y="50" on="0"/>
        <pt x="1437" y="-25" on="0"/>
        <pt x="1301" y="-25" on="1"/>
        <pt x="1158" y="-25" on="0"/>
        <pt x="941" y="61" on="0"/>
        <pt x="868" y="147" on="1"/>
        <pt x="852" y="139" on="0"/>
        <pt x="809" y="109" on="0"/>
        <pt x="768" y="83" on="1"/>
        <pt x="735" y="62" on="0"/>
        <pt x="662" y="23" on="0"/>
        <pt x="583" y="-7" on="0"/>
        <pt x="497" y="-25" on="0"/>
        <pt x="452" y="-25" on="1"/>
        <pt x="374" y="-25" on="0"/>
        <pt x="244" y="13" on="0"/>
        <pt x="150" y="88" on="0"/>
        <pt x="97" y="199" on="0"/>
        <pt x="97" y="272" on="1"/>
        <pt x="97" y="432" on="0"/>
        <pt x="370" y="593" on="0"/>
        <pt x="649" y="593" on="1"/>
        <pt x="735" y="593" on="1"/>
        <pt x="735" y="645" on="1"/>
        <pt x="735" y="721" on="0"/>
        <pt x="723" y="822" on="0"/>
        <pt x="695" y="882" on="0"/>
        <pt x="648" y="907" on="0"/>
        <pt x="613" y="907" on="1"/>
        <pt x="563" y="907" on="0"/>
        <pt x="478" y="873" on="0"/>
        <pt x="404" y="815" on="0"/>
        <pt x="340" y="738" on="0"/>
        <pt x="312" y="695" on="1"/>
        <pt x="124" y="815" on="1"/>
        <pt x="128" y="861" on="0"/>
        <pt x="205" y="943" on="0"/>
        <pt x="331" y="1003" on="0"/>
        <pt x="495" y="1038" on="0"/>
        <pt x="586" y="1038" on="1"/>
        <pt x="711" y="1038" on="0"/>
        <pt x="886" y="976" on="0"/>
        <pt x="941" y="914" on="1"/>
        <pt x="1012" y="975" on="0"/>
        <pt x="1191" y="1038" on="0"/>
        <pt x="1300" y="1038" on="1"/>
        <pt x="1396" y="1038" on="0"/>
        <pt x="1560" y="984" on="0"/>
        <pt x="1680" y="881" on="0"/>
        <pt x="1748" y="732" on="0"/>
        <pt x="1748" y="638" on="1"/>
        <pt x="1748" y="582" on="0"/>
        <pt x="1726" y="514" on="0"/>
        <pt x="1679" y="477" on="0"/>
        <pt x="1607" y="465" on="0"/>
        <pt x="1558" y="465" on="1"/>
        <pt x="1055" y="465" on="1"/>
        <pt x="1072" y="300" on="0"/>
        <pt x="1239" y="129" on="0"/>
        <pt x="1383" y="129" on="1"/>
        <pt x="1454" y="129" on="0"/>
        <pt x="1591" y="174" on="0"/>
      </contour>
    </TTGlyph>
    <TTGlyph name="agrave" xMin="97" yMin="-23" xMax="1213" yMax="1503">
      <component glyphName="grave" x="-164" y="-34" flags="0x1004"/>
      <component glyphName="a" x="0" y="0" flags="0x1204"/>
    </TTGlyph>
    <TTGlyph name="ampersand" xMin="85" yMin="-30" xMax="1439" yMax="1415">
      <contour>
        <pt x="674" y="812" on="1"/>
        <pt x="1439" y="812" on="1"/>
        <pt x="1439" y="508" on="1"/>
        <pt x="1415" y="508" on="0"/>
        <pt x="1368" y="509" on="0"/>
        <pt x="1345" y="509" on="1"/>
        <pt x="1337" y="559" on="0"/>
        <pt x="1309" y="621" on="0"/>
        <pt x="1266" y="656" on="0"/>
        <pt x="1203" y="668" on="0"/>
        <pt x="1160" y="668" on="1"/>
        <pt x="1164" y="609" on="0"/>
        <pt x="1173" y="480" on="0"/>
        <pt x="1173" y="417" on="1"/>
        <pt x="1173" y="198" on="0"/>
        <pt x="913" y="-30" on="0"/>
        <pt x="648" y="-30" on="1"/>
        <pt x="511" y="-30" on="0"/>
        <pt x="301" y="18" on="0"/>
        <pt x="158" y="118" on="0"/>
        <pt x="85" y="271" on="0"/>
        <pt x="85" y="375" on="1"/>
        <pt x="85" y="438" on="0"/>
        <pt x="122" y="551" on="0"/>
        <pt x="198" y="647" on="0"/>
        <pt x="311" y="720" on="0"/>
        <pt x="388" y="742" on="1"/>
        <pt x="388" y="745" on="1"/>
        <pt x="261" y="780" on="0"/>
        <pt x="124" y="936" on="0"/>
        <pt x="124" y="1056" on="1"/>
        <pt x="124" y="1139" on="0"/>
        <pt x="191" y="1272" on="0"/>
        <pt x="325" y="1365" on="0"/>
        <pt x="526" y="1415" on="0"/>
        <pt x="660" y="1415" on="1"/>
        <pt x="777" y="1415" on="0"/>
        <pt x="1000" y="1370" on="0"/>
        <pt x="1102" y="1339" on="1"/>
        <pt x="1090" y="1023" on="1"/>
        <pt x="905" y="1023" on="1"/>
        <pt x="873" y="1152" on="0"/>
        <pt x="762" y="1280" on="0"/>
        <pt x="661" y="1280" on="1"/>
        <pt x="603" y="1280" on="0"/>
        <pt x="514" y="1244" on="0"/>
        <pt x="453" y="1184" on="0"/>
        <pt x="422" y="1103" on="0"/>
        <pt x="422" y="1058" on="1"/>
        <pt x="422" y="1004" on="0"/>
        <pt x="452" y="914" on="0"/>
        <pt x="513" y="848" on="0"/>
        <pt x="608" y="812" on="0"/>
      </contour>
      <contour>
        <pt x="900" y="668" on="1"/>
        <pt x="646" y="668" on="1"/>
        <pt x="590" y="668" on="0"/>
        <pt x="499" y="629" on="0"/>
        <pt x="435" y="553" on="0"/>
        <pt x="399" y="443" on="0"/>
        <pt x="399" y="371" on="1"/>
        <pt x="399" y="313" on="0"/>
        <pt x="429" y="219" on="0"/>
        <pt x="493" y="153" on="0"/>
        <pt x="595" y="117" on="0"/>
        <pt x="667" y="117" on="1"/>
        <pt x="729" y="117" on="0"/>
        <pt x="820" y="160" on="0"/>
        <pt x="879" y="240" on="0"/>
        <pt x="908" y="353" on="0"/>
        <pt x="908" y="423" on="1"/>
        <pt x="909" y="465" on="0"/>
        <pt x="906" y="537" on="0"/>
        <pt x="904" y="572" on="1"/>
      </contour>
    </TTGlyph>
    <TTGlyph name="approxequal" xMin="113" yMin="252" xMax="1083" yMax="893">
      <contour>
        <pt x="988" y="548" on="1"/>
        <pt x="1083" y="464" on="1"/>
        <pt x="1031" y="371" on="0"/>
        <pt x="895" y="259" on="0"/>
        <pt x="804" y="259" on="1"/>
        <pt x="756" y="259" on="0"/>
        <pt x="680" y="278" on="0"/>
        <pt x="618" y="307" on="0"/>
        <pt x="569" y="339" on="0"/>
        <pt x="547" y="352" on="1"/>
        <pt x="507" y="375" on="0"/>
        <pt x="435" y="403" on="0"/>
        <pt x="399" y="403" on="1"/>
        <pt x="363" y="403" on="0"/>
        <pt x="305" y="373" on="0"/>
        <pt x="259" y="329" on="0"/>
        <pt x="225" y="279" on="0"/>
        <pt x="213" y="260" on="1"/>
        <pt x="208" y="252" on="1"/>
        <pt x="113" y="332" on="1"/>
        <pt x="138" y="380" on="0"/>
        <pt x="203" y="457" on="0"/>
        <pt x="279" y="511" on="0"/>
        <pt x="366" y="540" on="0"/>
        <pt x="413" y="540" on="1"/>
        <pt x="447" y="540" on="0"/>
        <pt x="507" y="527" on="0"/>
        <pt x="564" y="503" on="0"/>
        <pt x="620" y="470" on="0"/>
        <pt x="652" y="451" on="1"/>
        <pt x="684" y="431" on="0"/>
        <pt x="760" y="396" on="0"/>
        <pt x="807" y="396" on="1"/>
        <pt x="862" y="396" on="0"/>
        <pt x="944" y="474" on="0"/>
      </contour>
      <contour>
        <pt x="988" y="893" on="1"/>
        <pt x="1083" y="806" on="1"/>
        <pt x="1057" y="760" on="0"/>
        <pt x="998" y="684" on="0"/>
        <pt x="929" y="630" on="0"/>
        <pt x="850" y="600" on="0"/>
        <pt x="805" y="600" on="1"/>
        <pt x="737" y="600" on="0"/>
        <pt x="608" y="648" on="0"/>
        <pt x="558" y="686" on="1"/>
        <pt x="531" y="702" on="0"/>
        <pt x="490" y="725" on="0"/>
        <pt x="455" y="739" on="0"/>
        <pt x="421" y="745" on="0"/>
        <pt x="399" y="745" on="1"/>
        <pt x="371" y="745" on="0"/>
        <pt x="323" y="726" on="0"/>
        <pt x="278" y="689" on="0"/>
        <pt x="233" y="634" on="0"/>
        <pt x="208" y="597" on="1"/>
        <pt x="113" y="676" on="1"/>
        <pt x="163" y="772" on="0"/>
        <pt x="318" y="884" on="0"/>
        <pt x="413" y="884" on="1"/>
        <pt x="452" y="884" on="0"/>
        <pt x="520" y="865" on="0"/>
        <pt x="578" y="839" on="0"/>
        <pt x="626" y="809" on="0"/>
        <pt x="646" y="799" on="1"/>
        <pt x="671" y="786" on="0"/>
        <pt x="711" y="764" on="0"/>
        <pt x="749" y="748" on="0"/>
        <pt x="786" y="739" on="0"/>
        <pt x="807" y="739" on="1"/>
        <pt x="861" y="739" on="0"/>
        <pt x="944" y="818" on="0"/>
      </contour>
    </TTGlyph>
    <TTGlyph name="aring" xMin="97" yMin="-23" xMax="1213" yMax="1570">
      <component glyphName="ring" x="273" y="-18" flags="0x1004"/>
      <component glyphName="a" x="0" y="0" flags="0x1204"/>
    </TTGlyph>
    <TTGlyph name="asciicircum" xMin="99" yMin="449" xMax="1128" yMax="1296">
      <contour>
        <pt x="723" y="1284" on="1"/>
        <pt x="1102" y="616" on="1"/>
        <pt x="1113" y="596" on="0"/>
        <pt x="1128" y="556" on="0"/>
        <pt x="1128" y="539" on="1"/>
        <pt x="1128" y="516" on="0"/>
        <pt x="1098" y="484" on="0"/>
        <pt x="1062" y="478" on="1"/>
        <pt x="930" y="449" on="1"/>
        <pt x="618" y="1015" on="1"/>
        <pt x="617" y="1015" on="1"/>
        <pt x="307" y="450" on="1"/>
        <pt x="179" y="480" on="1"/>
        <pt x="148" y="487" on="0"/>
        <pt x="104" y="504" on="0"/>
        <pt x="99" y="528" on="1"/>
        <pt x="104" y="546" on="0"/>
        <pt x="121" y="590" on="0"/>
        <pt x="136" y="616" on="1"/>
        <pt x="518" y="1295" on="1"/>
        <pt x="563" y="1295" on="0"/>
        <pt x="616" y="1295" on="0"/>
        <pt x="647" y="1296" on="0"/>
        <pt x="661" y="1296" on="0"/>
        <pt x="666" y="1296" on="1"/>
        <pt x="680" y="1296" on="0"/>
        <pt x="709" y="1292" on="0"/>
      </contour>
    </TTGlyph>
    <TTGlyph name="asciitilde" xMin="113" yMin="394" xMax="1090" yMax="671">
      <contour>
        <pt x="1026" y="645" on="1"/>
        <pt x="1049" y="615" on="0"/>
        <pt x="1082" y="564" on="0"/>
        <pt x="1090" y="543" on="1"/>
        <pt x="1078" y="507" on="0"/>
        <pt x="1030" y="451" on="0"/>
        <pt x="965" y="414" on="0"/>
        <pt x="888" y="394" on="0"/>
        <pt x="847" y="394" on="1"/>
        <pt x="803" y="394" on="0"/>
        <pt x="726" y="411" on="0"/>
        <pt x="648" y="440" on="0"/>
        <pt x="564" y="478" on="0"/>
        <pt x="513" y="499" on="1"/>
        <pt x="475" y="515" on="0"/>
        <pt x="404" y="530" on="0"/>
        <pt x="374" y="530" on="1"/>
        <pt x="319" y="530" on="0"/>
        <pt x="227" y="460" on="0"/>
        <pt x="189" y="398" on="1"/>
        <pt x="130" y="459" on="0"/>
        <pt x="113" y="495" on="1"/>
        <pt x="123" y="533" on="0"/>
        <pt x="178" y="597" on="0"/>
        <pt x="252" y="644" on="0"/>
        <pt x="334" y="671" on="0"/>
        <pt x="370" y="671" on="1"/>
        <pt x="407" y="671" on="0"/>
        <pt x="479" y="657" on="0"/>
        <pt x="547" y="635" on="0"/>
        <pt x="607" y="609" on="0"/>
        <pt x="633" y="598" on="1"/>
        <pt x="667" y="583" on="0"/>
        <pt x="719" y="560" on="0"/>
        <pt x="763" y="545" on="0"/>
        <pt x="802" y="538" on="0"/>
        <pt x="823" y="538" on="1"/>
        <pt x="861" y="538" on="0"/>
        <pt x="925" y="556" on="0"/>
        <pt x="976" y="586" on="0"/>
        <pt x="1014" y="625" on="0"/>
      </contour>
    </TTGlyph>
    <TTGlyph name="asterisk" xMin="78" yMin="665" xMax="834" yMax="1440">
      <contour>
        <pt x="456" y="665" on="1"/>
        <pt x="420" y="671" on="0"/>
        <pt x="364" y="689" on="0"/>
        <pt x="323" y="707" on="0"/>
        <pt x="294" y="721" on="0"/>
        <pt x="284" y="724" on="1"/>
        <pt x="302" y="763" on="0"/>
        <pt x="331" y="830" on="0"/>
        <pt x="357" y="893" on="0"/>
        <pt x="381" y="958" on="0"/>
        <pt x="393" y="994" on="1"/>
        <pt x="125" y="859" on="1"/>
        <pt x="113" y="897" on="0"/>
        <pt x="85" y="976" on="0"/>
        <pt x="78" y="1014" on="1"/>
        <pt x="95" y="1020" on="0"/>
        <pt x="135" y="1031" on="0"/>
        <pt x="157" y="1036" on="1"/>
        <pt x="369" y="1080" on="1"/>
        <pt x="116" y="1259" on="1"/>
        <pt x="147" y="1289" on="0"/>
        <pt x="209" y="1353" on="0"/>
        <pt x="241" y="1372" on="1"/>
        <pt x="255" y="1356" on="0"/>
        <pt x="282" y="1325" on="0"/>
        <pt x="293" y="1309" on="1"/>
        <pt x="429" y="1139" on="1"/>
        <pt x="459" y="1440" on="1"/>
        <pt x="632" y="1399" on="1"/>
        <pt x="626" y="1382" on="0"/>
        <pt x="599" y="1317" on="0"/>
        <pt x="566" y="1239" on="0"/>
        <pt x="533" y="1159" on="0"/>
        <pt x="520" y="1126" on="1"/>
        <pt x="790" y="1252" on="1"/>
        <pt x="822" y="1160" on="1"/>
        <pt x="829" y="1130" on="0"/>
        <pt x="834" y="1104" on="1"/>
        <pt x="822" y="1098" on="0"/>
        <pt x="792" y="1088" on="0"/>
        <pt x="775" y="1085" on="1"/>
        <pt x="548" y="1041" on="1"/>
        <pt x="795" y="838" on="1"/>
        <pt x="715" y="768" on="1"/>
        <pt x="701" y="756" on="0"/>
        <pt x="676" y="740" on="0"/>
        <pt x="663" y="732" on="1"/>
        <pt x="649" y="746" on="0"/>
        <pt x="624" y="780" on="0"/>
        <pt x="611" y="799" on="1"/>
        <pt x="483" y="982" on="1"/>
      </contour>
    </TTGlyph>
    <TTGlyph name="at" xMin="119" yMin="-169" xMax="1727" yMax="1460">
      <contour>
        <pt x="746" y="532" on="1"/>
        <pt x="746" y="491" on="0"/>
        <pt x="765" y="421" on="0"/>
        <pt x="800" y="370" on="0"/>
        <pt x="851" y="340" on="0"/>
        <pt x="883" y="340" on="1"/>
        <pt x="931" y="340" on="0"/>
        <pt x="1005" y="393" on="0"/>
        <pt x="1060" y="481" on="0"/>
        <pt x="1100" y="596" on="0"/>
        <pt x="1127" y="720" on="0"/>
        <pt x="1147" y="845" on="0"/>
        <pt x="1154" y="899" on="1"/>
        <pt x="1146" y="941" on="0"/>
        <pt x="1092" y="990" on="0"/>
        <pt x="1043" y="990" on="1"/>
        <pt x="1008" y="990" on="0"/>
        <pt x="937" y="956" on="0"/>
        <pt x="871" y="894" on="0"/>
        <pt x="814" y="809" on="0"/>
        <pt x="771" y="707" on="0"/>
        <pt x="746" y="592" on="0"/>
      </contour>
      <contour>
        <pt x="1491" y="90" on="1"/>
        <pt x="1536" y="5" on="1"/>
        <pt x="1406" y="-79" on="0"/>
        <pt x="1118" y="-169" on="0"/>
        <pt x="972" y="-169" on="1"/>
        <pt x="781" y="-169" on="0"/>
        <pt x="467" y="-43" on="0"/>
        <pt x="243" y="175" on="0"/>
        <pt x="119" y="464" on="0"/>
        <pt x="119" y="628" on="1"/>
        <pt x="119" y="749" on="0"/>
        <pt x="180" y="967" on="0"/>
        <pt x="293" y="1152" on="0"/>
        <pt x="450" y="1300" on="0"/>
        <pt x="642" y="1404" on="0"/>
        <pt x="863" y="1460" on="0"/>
        <pt x="983" y="1460" on="1"/>
        <pt x="1145" y="1460" on="0"/>
        <pt x="1418" y="1359" on="0"/>
        <pt x="1616" y="1176" on="0"/>
        <pt x="1727" y="919" on="0"/>
        <pt x="1727" y="763" on="1"/>
        <pt x="1727" y="691" on="0"/>
        <pt x="1698" y="555" on="0"/>
        <pt x="1644" y="434" on="0"/>
        <pt x="1569" y="333" on="0"/>
        <pt x="1477" y="260" on="0"/>
        <pt x="1372" y="219" on="0"/>
        <pt x="1316" y="219" on="1"/>
        <pt x="1271" y="219" on="0"/>
        <pt x="1199" y="243" on="0"/>
        <pt x="1144" y="287" on="0"/>
        <pt x="1105" y="347" on="0"/>
        <pt x="1093" y="382" on="1"/>
        <pt x="1070" y="350" on="0"/>
        <pt x="1006" y="309" on="0"/>
        <pt x="964" y="309" on="1"/>
        <pt x="942" y="269" on="0"/>
        <pt x="872" y="219" on="0"/>
        <pt x="825" y="219" on="1"/>
        <pt x="766" y="219" on="0"/>
        <pt x="665" y="260" on="0"/>
        <pt x="591" y="339" on="0"/>
        <pt x="549" y="456" on="0"/>
        <pt x="549" y="532" on="1"/>
        <pt x="549" y="653" on="0"/>
        <pt x="628" y="859" on="0"/>
        <pt x="762" y="1009" on="0"/>
        <pt x="939" y="1094" on="0"/>
        <pt x="1038" y="1094" on="1"/>
        <pt x="1087" y="1094" on="0"/>
        <pt x="1164" y="1061" on="0"/>
        <pt x="1190" y="1026" on="1"/>
        <pt x="1207" y="1096" on="1"/>
        <pt x="1264" y="1090" on="0"/>
        <pt x="1337" y="1054" on="0"/>
        <pt x="1358" y="1028" on="1"/>
        <pt x="1347" y="986" on="0"/>
        <pt x="1326" y="896" on="0"/>
        <pt x="1301" y="786" on="0"/>
        <pt x="1271" y="648" on="0"/>
        <pt x="1251" y="559" on="1"/>
        <pt x="1244" y="529" on="0"/>
        <pt x="1238" y="479" on="0"/>
        <pt x="1238" y="451" on="1"/>
        <pt x="1238" y="391" on="0"/>
        <pt x="1284" y="334" on="0"/>
        <pt x="1337" y="334" on="1"/>
        <pt x="1384" y="334" on="0"/>
        <pt x="1477" y="402" on="0"/>
        <pt x="1551" y="519" on="0"/>
        <pt x="1597" y="677" on="0"/>
        <pt x="1597" y="768" on="1"/>
        <pt x="1597" y="889" on="0"/>
        <pt x="1508" y="1099" on="0"/>
        <pt x="1346" y="1253" on="0"/>
        <pt x="1119" y="1341" on="0"/>
        <pt x="981" y="1341" on="1"/>
        <pt x="845" y="1341" on="0"/>
        <pt x="602" y="1242" on="0"/>
        <pt x="419" y="1056" on="0"/>
        <pt x="312" y="789" on="0"/>
        <pt x="312" y="621" on="1"/>
        <pt x="312" y="469" on="0"/>
        <pt x="416" y="220" on="0"/>
        <pt x="598" y="42" on="0"/>
        <pt x="844" y="-56" on="0"/>
        <pt x="987" y="-56" on="1"/>
        <pt x="1253" y="-56" on="0"/>
      </contour>
    </TTGlyph>
    <TTGlyph name="atilde" xMin="97" yMin="-23" xMax="1213" yMax="1416">
      <component glyphName="tilde" x="0" y="-94" flags="0x1004"/>
      <component glyphName="a" x="0" y="0" flags="0x1204"/>
    </TTGlyph>
    <TTGlyph name="b" xMin="36" yMin="-12" xMax="1279" yMax="1493">
      <contour>
        <pt x="145" y="8" on="1"/>
        <pt x="151" y="93" on="1"/>
        <pt x="175" y="108" on="0"/>
        <pt x="201" y="147" on="0"/>
        <pt x="215" y="204" on="0"/>
        <pt x="218" y="281" on="0"/>
        <pt x="218" y="333" on="1"/>
        <pt x="218" y="1244" on="1"/>
        <pt x="218" y="1299" on="0"/>
        <pt x="215" y="1350" on="1"/>
        <pt x="195" y="1353" on="0"/>
        <pt x="152" y="1357" on="0"/>
        <pt x="128" y="1357" on="1"/>
        <pt x="36" y="1357" on="1"/>
        <pt x="36" y="1457" on="1"/>
        <pt x="109" y="1475" on="0"/>
        <pt x="301" y="1493" on="0"/>
        <pt x="418" y="1493" on="1"/>
        <pt x="457" y="1493" on="0"/>
        <pt x="502" y="1477" on="0"/>
        <pt x="525" y="1449" on="0"/>
        <pt x="531" y="1409" on="0"/>
        <pt x="531" y="1384" on="1"/>
        <pt x="531" y="925" on="1"/>
        <pt x="603" y="982" on="0"/>
        <pt x="759" y="1035" on="0"/>
        <pt x="843" y="1035" on="1"/>
        <pt x="948" y="1035" on="0"/>
        <pt x="1111" y="959" on="0"/>
        <pt x="1222" y="824" on="0"/>
        <pt x="1279" y="640" on="0"/>
        <pt x="1279" y="531" on="1"/>
        <pt x="1279" y="403" on="0"/>
        <pt x="1203" y="207" on="0"/>
        <pt x="1076" y="72" on="0"/>
        <pt x="907" y="-3" on="0"/>
        <pt x="814" y="-9" on="1"/>
        <pt x="763" y="-12" on="0"/>
        <pt x="715" y="-12" on="1"/>
        <pt x="653" y="-11" on="0"/>
        <pt x="528" y="-7" on="0"/>
        <pt x="390" y="-1" on="0"/>
        <pt x="236" y="6" on="0"/>
      </contour>
      <contour>
        <pt x="954" y="525" on="1"/>
        <pt x="954" y="894" on="0"/>
        <pt x="770" y="894" on="1"/>
        <pt x="660" y="894" on="0"/>
        <pt x="541" y="808" on="1"/>
        <pt x="535" y="730" on="0"/>
        <pt x="531" y="568" on="0"/>
        <pt x="531" y="482" on="1"/>
        <pt x="531" y="394" on="0"/>
        <pt x="534" y="210" on="0"/>
        <pt x="538" y="120" on="1"/>
        <pt x="585" y="115" on="0"/>
        <pt x="684" y="111" on="0"/>
        <pt x="727" y="111" on="1"/>
        <pt x="832" y="111" on="0"/>
        <pt x="954" y="320" on="0"/>
      </contour>
    </TTGlyph>
    <TTGlyph name="backslash" xMin="0" yMin="-19" xMax="961" yMax="1479">
      <contour>
        <pt x="299" y="1413" on="1"/>
        <pt x="961" y="-19" on="1"/>
        <pt x="779" y="-19" on="1"/>
        <pt x="695" y="-19" on="0"/>
        <pt x="670" y="30" on="1"/>
        <pt x="0" y="1479" on="1"/>
        <pt x="179" y="1479" on="1"/>
        <pt x="229" y="1479" on="0"/>
        <pt x="282" y="1447" on="0"/>
      </contour>
    </TTGlyph>
    <TTGlyph name="bar" xMin="504" yMin="-237" xMax="728" yMax="1507">
      <contour>
        <pt x="728" y="1420" on="1"/>
        <pt x="728" y="-237" on="1"/>
        <pt x="631" y="-237" on="1"/>
        <pt x="585" y="-237" on="0"/>
        <pt x="531" y="-217" on="0"/>
        <pt x="517" y="-194" on="1"/>
        <pt x="509" y="-163" on="0"/>
        <pt x="504" y="-91" on="0"/>
        <pt x="504" y="-49" on="1"/>
        <pt x="504" y="1507" on="1"/>
        <pt x="601" y="1507" on="1"/>
        <pt x="660" y="1507" on="0"/>
        <pt x="723" y="1468" on="0"/>
      </contour>
    </TTGlyph>
    <TTGlyph name="braceleft" xMin="82" yMin="-222" xMax="665" yMax="1521">
      <contour>
        <pt x="468" y="1271" on="1"/>
        <pt x="468" y="883" on="1"/>
        <pt x="468" y="795" on="0"/>
        <pt x="402" y="677" on="0"/>
        <pt x="333" y="649" on="1"/>
        <pt x="399" y="621" on="0"/>
        <pt x="468" y="507" on="0"/>
        <pt x="468" y="417" on="1"/>
        <pt x="468" y="28" on="1"/>
        <pt x="468" y="-26" on="0"/>
        <pt x="477" y="-80" on="0"/>
        <pt x="494" y="-104" on="0"/>
        <pt x="520" y="-109" on="0"/>
        <pt x="538" y="-113" on="1"/>
        <pt x="563" y="-120" on="0"/>
        <pt x="626" y="-128" on="0"/>
        <pt x="665" y="-132" on="1"/>
        <pt x="665" y="-156" on="1"/>
        <pt x="665" y="-179" on="0"/>
        <pt x="645" y="-202" on="1"/>
        <pt x="613" y="-212" on="0"/>
        <pt x="550" y="-222" on="0"/>
        <pt x="516" y="-222" on="1"/>
        <pt x="445" y="-222" on="0"/>
        <pt x="331" y="-201" on="0"/>
        <pt x="251" y="-145" on="0"/>
        <pt x="208" y="-47" on="0"/>
        <pt x="208" y="29" on="1"/>
        <pt x="208" y="431" on="1"/>
        <pt x="208" y="512" on="0"/>
        <pt x="146" y="606" on="0"/>
        <pt x="82" y="630" on="1"/>
        <pt x="82" y="696" on="1"/>
        <pt x="106" y="710" on="0"/>
        <pt x="152" y="746" on="0"/>
        <pt x="187" y="789" on="0"/>
        <pt x="208" y="839" on="0"/>
        <pt x="208" y="869" on="1"/>
        <pt x="208" y="1281" on="1"/>
        <pt x="208" y="1355" on="0"/>
        <pt x="252" y="1448" on="0"/>
        <pt x="335" y="1501" on="0"/>
        <pt x="452" y="1521" on="0"/>
        <pt x="525" y="1521" on="1"/>
        <pt x="553" y="1521" on="0"/>
        <pt x="602" y="1517" on="0"/>
        <pt x="640" y="1504" on="0"/>
        <pt x="663" y="1478" on="0"/>
        <pt x="665" y="1456" on="1"/>
        <pt x="665" y="1430" on="1"/>
        <pt x="606" y="1427" on="0"/>
        <pt x="530" y="1411" on="0"/>
        <pt x="485" y="1377" on="0"/>
        <pt x="468" y="1318" on="0"/>
      </contour>
    </TTGlyph>
    <TTGlyph name="braceright" xMin="82" yMin="-222" xMax="661" yMax="1521">
      <contour>
        <pt x="222" y="1521" on="1"/>
        <pt x="312" y="1521" on="0"/>
        <pt x="434" y="1494" on="0"/>
        <pt x="508" y="1424" on="0"/>
        <pt x="540" y="1301" on="0"/>
        <pt x="540" y="1205" on="1"/>
        <pt x="540" y="900" on="1"/>
        <pt x="540" y="867" on="0"/>
        <pt x="559" y="811" on="0"/>
        <pt x="592" y="767" on="0"/>
        <pt x="636" y="733" on="0"/>
        <pt x="661" y="723" on="1"/>
        <pt x="661" y="630" on="1"/>
        <pt x="619" y="615" on="0"/>
        <pt x="570" y="566" on="0"/>
        <pt x="545" y="493" on="0"/>
        <pt x="539" y="394" on="0"/>
        <pt x="539" y="328" on="1"/>
        <pt x="539" y="142" on="1"/>
        <pt x="539" y="44" on="0"/>
        <pt x="523" y="-97" on="0"/>
        <pt x="489" y="-140" on="1"/>
        <pt x="468" y="-166" on="0"/>
        <pt x="411" y="-198" on="0"/>
        <pt x="341" y="-216" on="0"/>
        <pt x="257" y="-222" on="0"/>
        <pt x="210" y="-222" on="1"/>
        <pt x="189" y="-222" on="0"/>
        <pt x="144" y="-219" on="0"/>
        <pt x="106" y="-206" on="0"/>
        <pt x="82" y="-181" on="0"/>
        <pt x="82" y="-159" on="1"/>
        <pt x="82" y="-130" on="1"/>
        <pt x="139" y="-126" on="0"/>
        <pt x="214" y="-112" on="0"/>
        <pt x="258" y="-79" on="0"/>
        <pt x="276" y="-21" on="0"/>
        <pt x="276" y="28" on="1"/>
        <pt x="276" y="61" on="0"/>
        <pt x="277" y="146" on="0"/>
        <pt x="277" y="236" on="0"/>
        <pt x="278" y="322" on="0"/>
        <pt x="278" y="355" on="1"/>
        <pt x="278" y="411" on="0"/>
        <pt x="291" y="504" on="0"/>
        <pt x="322" y="578" on="0"/>
        <pt x="374" y="632" on="0"/>
        <pt x="414" y="649" on="1"/>
        <pt x="375" y="664" on="0"/>
        <pt x="322" y="715" on="0"/>
        <pt x="290" y="784" on="0"/>
        <pt x="276" y="867" on="0"/>
        <pt x="276" y="912" on="1"/>
        <pt x="276" y="945" on="0"/>
        <pt x="277" y="1035" on="0"/>
        <pt x="277" y="1128" on="0"/>
        <pt x="278" y="1216" on="0"/>
        <pt x="278" y="1249" on="1"/>
        <pt x="278" y="1308" on="0"/>
        <pt x="259" y="1377" on="0"/>
        <pt x="214" y="1413" on="0"/>
        <pt x="138" y="1426" on="0"/>
        <pt x="82" y="1431" on="1"/>
        <pt x="82" y="1456" on="1"/>
        <pt x="82" y="1477" on="0"/>
        <pt x="103" y="1503" on="0"/>
        <pt x="140" y="1516" on="0"/>
        <pt x="191" y="1521" on="0"/>
      </contour>
    </TTGlyph>
    <TTGlyph name="bracketleft" xMin="205" yMin="-219" xMax="667" yMax="1521">
      <contour>
        <pt x="467" y="-92" on="1"/>
        <pt x="667" y="-92" on="1"/>
        <pt x="667" y="-144" on="1"/>
        <pt x="667" y="-174" on="0"/>
        <pt x="640" y="-204" on="0"/>
        <pt x="602" y="-218" on="0"/>
        <pt x="563" y="-219" on="0"/>
        <pt x="550" y="-219" on="1"/>
        <pt x="205" y="-219" on="1"/>
        <pt x="205" y="1521" on="1"/>
        <pt x="517" y="1521" on="1"/>
        <pt x="559" y="1521" on="0"/>
        <pt x="617" y="1516" on="0"/>
        <pt x="652" y="1499" on="0"/>
        <pt x="667" y="1467" on="0"/>
        <pt x="667" y="1441" on="1"/>
        <pt x="667" y="1396" on="1"/>
        <pt x="467" y="1396" on="1"/>
      </contour>
    </TTGlyph>
    <TTGlyph name="bracketright" xMin="76" yMin="-219" xMax="538" yMax="1522">
      <contour>
        <pt x="76" y="-92" on="1"/>
        <pt x="275" y="-92" on="1"/>
        <pt x="275" y="1396" on="1"/>
        <pt x="76" y="1396" on="1"/>
        <pt x="76" y="1449" on="1"/>
        <pt x="76" y="1475" on="0"/>
        <pt x="86" y="1510" on="0"/>
        <pt x="100" y="1522" on="1"/>
        <pt x="538" y="1522" on="1"/>
        <pt x="538" y="-219" on="1"/>
        <pt x="276" y="-219" on="1"/>
        <pt x="246" y="-219" on="0"/>
        <pt x="189" y="-218" on="0"/>
        <pt x="137" y="-212" on="0"/>
        <pt x="93" y="-197" on="0"/>
        <pt x="76" y="-183" on="1"/>
      </contour>
    </TTGlyph>
    <TTGlyph name="breve" xMin="283" yMin="1199" xMax="1018" yMax="1507">
      <contour>
        <pt x="607" y="1407" on="1"/>
        <pt x="641" y="1373" on="0"/>
        <pt x="686" y="1373" on="1"/>
        <pt x="744" y="1373" on="0"/>
        <pt x="811" y="1442" on="0"/>
        <pt x="818" y="1507" on="1"/>
        <pt x="1018" y="1488" on="1"/>
        <pt x="1016" y="1417" on="0"/>
        <pt x="956" y="1310" on="0"/>
        <pt x="856" y="1236" on="0"/>
        <pt x="724" y="1199" on="0"/>
        <pt x="651" y="1199" on="1"/>
        <pt x="574" y="1199" on="0"/>
        <pt x="441" y="1238" on="0"/>
        <pt x="343" y="1313" on="0"/>
        <pt x="285" y="1420" on="0"/>
        <pt x="283" y="1488" on="1"/>
        <pt x="369" y="1507" on="1"/>
        <pt x="408" y="1452" on="0"/>
        <pt x="529" y="1407" on="0"/>
      </contour>
    </TTGlyph>
    <TTGlyph name="brokenbar" xMin="350" yMin="-427" xMax="586" yMax="1493">
      <contour>
        <pt x="586" y="303" on="1"/>
        <pt x="586" y="-427" on="1"/>
        <pt x="456" y="-427" on="1"/>
        <pt x="422" y="-427" on="0"/>
        <pt x="380" y="-414" on="0"/>
        <pt x="358" y="-381" on="0"/>
        <pt x="350" y="-328" on="0"/>
        <pt x="350" y="-287" on="1"/>
        <pt x="350" y="366" on="1"/>
        <pt x="457" y="366" on="1"/>
        <pt x="514" y="366" on="0"/>
        <pt x="575" y="339" on="0"/>
      </contour>
      <contour>
        <pt x="586" y="1430" on="1"/>
        <pt x="586" y="699" on="1"/>
        <pt x="477" y="699" on="1"/>
        <pt x="439" y="699" on="0"/>
        <pt x="390" y="707" on="0"/>
        <pt x="361" y="730" on="0"/>
        <pt x="350" y="771" on="0"/>
        <pt x="350" y="803" on="1"/>
        <pt x="350" y="1493" on="1"/>
        <pt x="457" y="1493" on="1"/>
        <pt x="513" y="1493" on="0"/>
        <pt x="575" y="1465" on="0"/>
      </contour>
    </TTGlyph>
    <TTGlyph name="bullet" xMin="107" yMin="341" xMax="732" yMax="907">
      <contour>
        <pt x="107" y="623" on="1"/>
        <pt x="107" y="686" on="0"/>
        <pt x="156" y="790" on="0"/>
        <pt x="240" y="865" on="0"/>
        <pt x="354" y="907" on="0"/>
        <pt x="419" y="907" on="1"/>
        <pt x="486" y="907" on="0"/>
        <pt x="600" y="864" on="0"/>
        <pt x="684" y="789" on="0"/>
        <pt x="732" y="685" on="0"/>
        <pt x="732" y="624" on="1"/>
        <pt x="732" y="561" on="0"/>
        <pt x="683" y="457" on="0"/>
        <pt x="598" y="382" on="0"/>
        <pt x="484" y="341" on="0"/>
        <pt x="419" y="341" on="1"/>
        <pt x="352" y="341" on="0"/>
        <pt x="238" y="383" on="0"/>
        <pt x="154" y="458" on="0"/>
        <pt x="107" y="562" on="0"/>
      </contour>
    </TTGlyph>
    <TTGlyph name="c" xMin="105" yMin="-23" xMax="1060" yMax="1034">
      <contour>
        <pt x="1042" y="223" on="1"/>
        <pt x="1058" y="78" on="1"/>
        <pt x="982" y="27" on="0"/>
        <pt x="785" y="-23" on="0"/>
        <pt x="670" y="-23" on="1"/>
        <pt x="545" y="-23" on="0"/>
        <pt x="337" y="46" on="0"/>
        <pt x="188" y="179" on="0"/>
        <pt x="105" y="372" on="0"/>
        <pt x="105" y="496" on="1"/>
        <pt x="105" y="631" on="0"/>
        <pt x="198" y="833" on="0"/>
        <pt x="356" y="967" on="0"/>
        <pt x="567" y="1034" on="0"/>
        <pt x="685" y="1034" on="1"/>
        <pt x="801" y="1034" on="0"/>
        <pt x="994" y="976" on="0"/>
        <pt x="1060" y="921" on="1"/>
        <pt x="1043" y="721" on="1"/>
        <pt x="875" y="721" on="1"/>
        <pt x="829" y="812" on="0"/>
        <pt x="730" y="894" on="0"/>
        <pt x="665" y="894" on="1"/>
        <pt x="612" y="894" on="0"/>
        <pt x="524" y="845" on="0"/>
        <pt x="459" y="753" on="0"/>
        <pt x="423" y="621" on="0"/>
        <pt x="423" y="539" on="1"/>
        <pt x="423" y="434" on="0"/>
        <pt x="463" y="277" on="0"/>
        <pt x="535" y="174" on="0"/>
        <pt x="634" y="123" on="0"/>
        <pt x="694" y="123" on="1"/>
        <pt x="745" y="123" on="0"/>
        <pt x="836" y="135" on="0"/>
        <pt x="921" y="160" on="0"/>
        <pt x="1001" y="198" on="0"/>
      </contour>
    </TTGlyph>
    <TTGlyph name="caron" xMin="259" yMin="1189" xMax="974" yMax="1551">
      <contour>
        <pt x="487" y="1209" on="1"/>
        <pt x="304" y="1460" on="1"/>
        <pt x="290" y="1478" on="0"/>
        <pt x="266" y="1513" on="0"/>
        <pt x="259" y="1532" on="1"/>
        <pt x="270" y="1545" on="0"/>
        <pt x="320" y="1551" on="0"/>
        <pt x="352" y="1551" on="1"/>
        <pt x="411" y="1551" on="0"/>
        <pt x="465" y="1545" on="1"/>
        <pt x="617" y="1354" on="1"/>
        <pt x="773" y="1545" on="1"/>
        <pt x="825" y="1551" on="0"/>
        <pt x="880" y="1551" on="1"/>
        <pt x="913" y="1551" on="0"/>
        <pt x="961" y="1545" on="0"/>
        <pt x="974" y="1532" on="1"/>
        <pt x="957" y="1500" on="0"/>
        <pt x="904" y="1421" on="0"/>
        <pt x="843" y="1335" on="0"/>
        <pt x="780" y="1250" on="0"/>
        <pt x="753" y="1213" on="1"/>
        <pt x="721" y="1201" on="0"/>
        <pt x="653" y="1189" on="0"/>
        <pt x="618" y="1189" on="1"/>
        <pt x="583" y="1189" on="0"/>
        <pt x="517" y="1198" on="0"/>
      </contour>
    </TTGlyph>
    <TTGlyph name="ccedilla" xMin="105" yMin="-498" xMax="1060" yMax="1034">
      <component glyphName="c" x="0" y="0" flags="0x1204"/>
      <component glyphName="cedilla" x="236" y="0" flags="0x1004"/>
    </TTGlyph>
    <TTGlyph name="cedilla" xMin="113" yMin="-498" xMax="554" yMax="11">
      <contour>
        <pt x="119" y="-366" on="1"/>
        <pt x="155" y="-377" on="0"/>
        <pt x="224" y="-390" on="0"/>
        <pt x="253" y="-390" on="1"/>
        <pt x="315" y="-390" on="0"/>
        <pt x="387" y="-339" on="0"/>
        <pt x="387" y="-291" on="1"/>
        <pt x="387" y="-239" on="0"/>
        <pt x="335" y="-186" on="0"/>
        <pt x="287" y="-178" on="1"/>
        <pt x="281" y="-178" on="0"/>
        <pt x="263" y="-183" on="0"/>
        <pt x="250" y="-186" on="1"/>
        <pt x="239" y="-179" on="0"/>
        <pt x="212" y="-169" on="0"/>
        <pt x="199" y="-163" on="1"/>
        <pt x="284" y="11" on="1"/>
        <pt x="385" y="11" on="1"/>
        <pt x="329" y="-96" on="1"/>
        <pt x="382" y="-99" on="0"/>
        <pt x="465" y="-119" on="0"/>
        <pt x="523" y="-160" on="0"/>
        <pt x="554" y="-225" on="0"/>
        <pt x="554" y="-272" on="1"/>
        <pt x="554" y="-329" on="0"/>
        <pt x="517" y="-414" on="0"/>
        <pt x="449" y="-470" on="0"/>
        <pt x="354" y="-498" on="0"/>
        <pt x="296" y="-498" on="1"/>
        <pt x="236" y="-498" on="0"/>
        <pt x="148" y="-476" on="0"/>
        <pt x="119" y="-457" on="1"/>
        <pt x="113" y="-441" on="0"/>
        <pt x="113" y="-417" on="1"/>
        <pt x="113" y="-393" on="0"/>
      </contour>
    </TTGlyph>
    <TTGlyph name="cent" xMin="140" yMin="-179" xMax="1108" yMax="1314">
      <contour>
        <pt x="1058" y="309" on="1"/>
        <pt x="1107" y="213" on="1"/>
        <pt x="1078" y="171" on="0"/>
        <pt x="1001" y="109" on="0"/>
        <pt x="908" y="66" on="0"/>
        <pt x="803" y="42" on="0"/>
        <pt x="746" y="38" on="1"/>
        <pt x="746" y="-179" on="1"/>
        <pt x="712" y="-179" on="1"/>
        <pt x="681" y="-179" on="0"/>
        <pt x="645" y="-171" on="0"/>
        <pt x="627" y="-150" on="0"/>
        <pt x="622" y="-116" on="0"/>
        <pt x="622" y="-90" on="1"/>
        <pt x="622" y="39" on="1"/>
        <pt x="512" y="48" on="0"/>
        <pt x="334" y="125" on="0"/>
        <pt x="208" y="255" on="0"/>
        <pt x="140" y="434" on="0"/>
        <pt x="140" y="546" on="1"/>
        <pt x="140" y="668" on="0"/>
        <pt x="216" y="857" on="0"/>
        <pt x="347" y="991" on="0"/>
        <pt x="522" y="1073" on="0"/>
        <pt x="622" y="1088" on="1"/>
        <pt x="622" y="1314" on="1"/>
        <pt x="656" y="1314" on="1"/>
        <pt x="682" y="1314" on="0"/>
        <pt x="717" y="1307" on="0"/>
        <pt x="738" y="1289" on="0"/>
        <pt x="746" y="1256" on="0"/>
        <pt x="746" y="1230" on="1"/>
        <pt x="746" y="1097" on="1"/>
        <pt x="758" y="1097" on="1"/>
        <pt x="760" y="1097" on="0"/>
        <pt x="803" y="1094" on="0"/>
        <pt x="868" y="1087" on="0"/>
        <pt x="946" y="1073" on="0"/>
        <pt x="1022" y="1050" on="0"/>
        <pt x="1088" y="1018" on="0"/>
        <pt x="1108" y="995" on="1"/>
        <pt x="1107" y="981" on="0"/>
        <pt x="1106" y="953" on="0"/>
        <pt x="1104" y="939" on="1"/>
        <pt x="1073" y="784" on="1"/>
        <pt x="891" y="795" on="1"/>
        <pt x="862" y="856" on="0"/>
        <pt x="794" y="926" on="0"/>
        <pt x="746" y="940" on="1"/>
        <pt x="746" y="182" on="1"/>
        <pt x="837" y="183" on="0"/>
        <pt x="984" y="247" on="0"/>
      </contour>
      <contour>
        <pt x="622" y="208" on="1"/>
        <pt x="622" y="944" on="1"/>
        <pt x="544" y="906" on="0"/>
        <pt x="459" y="725" on="0"/>
        <pt x="459" y="578" on="1"/>
        <pt x="459" y="431" on="0"/>
        <pt x="546" y="248" on="0"/>
      </contour>
    </TTGlyph>
    <TTGlyph name="circumflex" xMin="259" yMin="1207" xMax="945" yMax="1543">
      <contour>
        <pt x="945" y="1228" on="1"/>
        <pt x="939" y="1207" on="0"/>
        <pt x="894" y="1207" on="1"/>
        <pt x="752" y="1207" on="1"/>
        <pt x="603" y="1391" on="1"/>
        <pt x="457" y="1207" on="1"/>
        <pt x="312" y="1207" on="1"/>
        <pt x="265" y="1207" on="0"/>
        <pt x="259" y="1228" on="1"/>
        <pt x="262" y="1240" on="0"/>
        <pt x="272" y="1264" on="0"/>
        <pt x="280" y="1273" on="1"/>
        <pt x="468" y="1543" on="1"/>
        <pt x="736" y="1543" on="1"/>
        <pt x="902" y="1306" on="1"/>
        <pt x="916" y="1286" on="0"/>
        <pt x="942" y="1248" on="0"/>
      </contour>
    </TTGlyph>
    <TTGlyph name="colon" xMin="155" yMin="-28" xMax="494" yMax="1031">
      <contour>
        <pt x="157" y="870" on="1"/>
        <pt x="157" y="906" on="0"/>
        <pt x="182" y="966" on="0"/>
        <pt x="228" y="1008" on="0"/>
        <pt x="290" y="1031" on="0"/>
        <pt x="328" y="1031" on="1"/>
        <pt x="365" y="1031" on="0"/>
        <pt x="426" y="1006" on="0"/>
        <pt x="470" y="963" on="0"/>
        <pt x="494" y="906" on="0"/>
        <pt x="494" y="874" on="1"/>
        <pt x="494" y="833" on="0"/>
        <pt x="469" y="771" on="0"/>
        <pt x="425" y="728" on="0"/>
        <pt x="365" y="706" on="0"/>
        <pt x="330" y="706" on="1"/>
        <pt x="245" y="706" on="0"/>
        <pt x="157" y="796" on="0"/>
      </contour>
      <contour>
        <pt x="323" y="298" on="1"/>
        <pt x="359" y="298" on="0"/>
        <pt x="421" y="271" on="0"/>
        <pt x="465" y="226" on="0"/>
        <pt x="490" y="166" on="0"/>
        <pt x="490" y="133" on="1"/>
        <pt x="490" y="93" on="0"/>
        <pt x="464" y="33" on="0"/>
        <pt x="420" y="-8" on="0"/>
        <pt x="360" y="-28" on="0"/>
        <pt x="327" y="-28" on="1"/>
        <pt x="285" y="-28" on="0"/>
        <pt x="221" y="-4" on="0"/>
        <pt x="177" y="39" on="0"/>
        <pt x="155" y="98" on="0"/>
        <pt x="155" y="132" on="1"/>
        <pt x="155" y="172" on="0"/>
        <pt x="180" y="234" on="0"/>
        <pt x="225" y="276" on="0"/>
        <pt x="287" y="298" on="0"/>
      </contour>
    </TTGlyph>
    <TTGlyph name="comma" xMin="76" yMin="-345" xMax="449" yMax="301">
      <contour>
        <pt x="151" y="-345" on="1"/>
        <pt x="124" y="-334" on="0"/>
        <pt x="92" y="-298" on="0"/>
        <pt x="76" y="-275" on="1"/>
        <pt x="124" y="-219" on="0"/>
        <pt x="193" y="-73" on="0"/>
        <pt x="209" y="14" on="1"/>
        <pt x="159" y="21" on="0"/>
        <pt x="96" y="89" on="0"/>
        <pt x="96" y="140" on="1"/>
        <pt x="97" y="182" on="0"/>
        <pt x="128" y="243" on="0"/>
        <pt x="176" y="282" on="0"/>
        <pt x="237" y="301" on="0"/>
        <pt x="269" y="301" on="1"/>
        <pt x="363" y="301" on="0"/>
        <pt x="449" y="211" on="0"/>
        <pt x="449" y="133" on="1"/>
        <pt x="449" y="-14" on="0"/>
        <pt x="291" y="-247" on="0"/>
      </contour>
    </TTGlyph>
    <TTGlyph name="copyright" xMin="113" yMin="-39" xMax="1611" yMax="1455">
      <contour>
        <pt x="267" y="707" on="1"/>
        <pt x="267" y="578" on="0"/>
        <pt x="357" y="357" on="0"/>
        <pt x="517" y="193" on="0"/>
        <pt x="734" y="100" on="0"/>
        <pt x="862" y="100" on="1"/>
        <pt x="952" y="100" on="0"/>
        <pt x="1111" y="145" on="0"/>
        <pt x="1245" y="226" on="0"/>
        <pt x="1350" y="338" on="0"/>
        <pt x="1423" y="473" on="0"/>
        <pt x="1462" y="626" on="0"/>
        <pt x="1462" y="707" on="1"/>
        <pt x="1462" y="837" on="0"/>
        <pt x="1369" y="1059" on="0"/>
        <pt x="1207" y="1223" on="0"/>
        <pt x="988" y="1316" on="0"/>
        <pt x="862" y="1316" on="1"/>
        <pt x="732" y="1316" on="0"/>
        <pt x="514" y="1220" on="0"/>
        <pt x="356" y="1055" on="0"/>
        <pt x="267" y="833" on="0"/>
      </contour>
      <contour>
        <pt x="113" y="706" on="1"/>
        <pt x="113" y="858" on="0"/>
        <pt x="222" y="1130" on="0"/>
        <pt x="420" y="1335" on="0"/>
        <pt x="696" y="1455" on="0"/>
        <pt x="862" y="1455" on="1"/>
        <pt x="973" y="1455" on="0"/>
        <pt x="1170" y="1401" on="0"/>
        <pt x="1336" y="1302" on="0"/>
        <pt x="1469" y="1164" on="0"/>
        <pt x="1562" y="998" on="0"/>
        <pt x="1611" y="808" on="0"/>
        <pt x="1611" y="706" on="1"/>
        <pt x="1611" y="602" on="0"/>
        <pt x="1560" y="411" on="0"/>
        <pt x="1465" y="245" on="0"/>
        <pt x="1331" y="110" on="0"/>
        <pt x="1164" y="14" on="0"/>
        <pt x="969" y="-39" on="0"/>
        <pt x="862" y="-39" on="1"/>
        <pt x="753" y="-39" on="0"/>
        <pt x="558" y="14" on="0"/>
        <pt x="391" y="110" on="0"/>
        <pt x="257" y="245" on="0"/>
        <pt x="164" y="411" on="0"/>
        <pt x="113" y="602" on="0"/>
      </contour>
      <contour>
        <pt x="1160" y="496" on="1"/>
        <pt x="1171" y="389" on="1"/>
        <pt x="1118" y="354" on="0"/>
        <pt x="968" y="313" on="0"/>
        <pt x="883" y="313" on="1"/>
        <pt x="790" y="313" on="0"/>
        <pt x="634" y="365" on="0"/>
        <pt x="522" y="465" on="0"/>
        <pt x="460" y="610" on="0"/>
        <pt x="460" y="703" on="1"/>
        <pt x="460" y="805" on="0"/>
        <pt x="529" y="958" on="0"/>
        <pt x="648" y="1059" on="0"/>
        <pt x="805" y="1110" on="0"/>
        <pt x="893" y="1110" on="1"/>
        <pt x="979" y="1110" on="0"/>
        <pt x="1126" y="1064" on="0"/>
        <pt x="1172" y="1023" on="1"/>
        <pt x="1160" y="873" on="1"/>
        <pt x="1039" y="873" on="1"/>
        <pt x="1004" y="944" on="0"/>
        <pt x="928" y="1006" on="0"/>
        <pt x="878" y="1006" on="1"/>
        <pt x="833" y="1006" on="0"/>
        <pt x="765" y="962" on="0"/>
        <pt x="718" y="888" on="0"/>
        <pt x="694" y="790" on="0"/>
        <pt x="694" y="736" on="1"/>
        <pt x="694" y="655" on="0"/>
        <pt x="724" y="535" on="0"/>
        <pt x="779" y="457" on="0"/>
        <pt x="855" y="419" on="0"/>
        <pt x="900" y="419" on="1"/>
        <pt x="977" y="419" on="0"/>
        <pt x="1098" y="457" on="0"/>
      </contour>
    </TTGlyph>
    <TTGlyph name="currency" xMin="133" yMin="240" xMax="1118" yMax="1224">
      <contour>
        <pt x="989" y="1002" on="1"/>
        <pt x="1079" y="885" on="0"/>
        <pt x="1079" y="730" on="1"/>
        <pt x="1079" y="574" on="0"/>
        <pt x="988" y="462" on="1"/>
        <pt x="1118" y="330" on="1"/>
        <pt x="1110" y="322" on="1"/>
        <pt x="1090" y="302" on="0"/>
        <pt x="1045" y="261" on="0"/>
        <pt x="1024" y="252" on="1"/>
        <pt x="1011" y="257" on="0"/>
        <pt x="979" y="284" on="0"/>
        <pt x="945" y="318" on="0"/>
        <pt x="912" y="354" on="0"/>
        <pt x="897" y="369" on="1"/>
        <pt x="839" y="327" on="0"/>
        <pt x="699" y="279" on="0"/>
        <pt x="624" y="279" on="1"/>
        <pt x="549" y="279" on="0"/>
        <pt x="414" y="326" on="0"/>
        <pt x="357" y="369" on="1"/>
        <pt x="226" y="240" on="1"/>
        <pt x="204" y="261" on="0"/>
        <pt x="157" y="308" on="0"/>
        <pt x="146" y="328" on="1"/>
        <pt x="159" y="356" on="0"/>
        <pt x="184" y="381" on="1"/>
        <pt x="266" y="462" on="1"/>
        <pt x="176" y="576" on="0"/>
        <pt x="176" y="731" on="1"/>
        <pt x="176" y="886" on="0"/>
        <pt x="266" y="1000" on="1"/>
        <pt x="133" y="1131" on="1"/>
        <pt x="156" y="1152" on="0"/>
        <pt x="203" y="1200" on="0"/>
        <pt x="226" y="1210" on="1"/>
        <pt x="238" y="1203" on="0"/>
        <pt x="263" y="1186" on="0"/>
        <pt x="276" y="1173" on="1"/>
        <pt x="356" y="1093" on="1"/>
        <pt x="478" y="1184" on="0"/>
        <pt x="625" y="1184" on="1"/>
        <pt x="698" y="1184" on="0"/>
        <pt x="834" y="1137" on="0"/>
        <pt x="895" y="1092" on="1"/>
        <pt x="1027" y="1224" on="1"/>
        <pt x="1036" y="1215" on="1"/>
        <pt x="1060" y="1192" on="0"/>
        <pt x="1097" y="1147" on="0"/>
        <pt x="1097" y="1121" on="1"/>
        <pt x="1097" y="1110" on="0"/>
        <pt x="1096" y="1108" on="1"/>
      </contour>
      <contour>
        <pt x="308" y="731" on="1"/>
        <pt x="308" y="660" on="0"/>
        <pt x="358" y="542" on="0"/>
        <pt x="445" y="456" on="0"/>
        <pt x="561" y="408" on="0"/>
        <pt x="627" y="408" on="1"/>
        <pt x="695" y="408" on="0"/>
        <pt x="812" y="458" on="0"/>
        <pt x="898" y="545" on="0"/>
        <pt x="947" y="663" on="0"/>
        <pt x="947" y="731" on="1"/>
        <pt x="947" y="800" on="0"/>
        <pt x="898" y="918" on="0"/>
        <pt x="812" y="1005" on="0"/>
        <pt x="695" y="1055" on="0"/>
        <pt x="627" y="1055" on="1"/>
        <pt x="559" y="1055" on="0"/>
        <pt x="443" y="1006" on="0"/>
        <pt x="357" y="919" on="0"/>
        <pt x="308" y="800" on="0"/>
      </contour>
    </TTGlyph>
    <TTGlyph name="d" xMin="104" yMin="-23" xMax="1349" yMax="1494">
      <contour>
        <pt x="1168" y="1396" on="1"/>
        <pt x="1168" y="257" on="1"/>
        <pt x="1168" y="210" on="0"/>
        <pt x="1174" y="146" on="0"/>
        <pt x="1179" y="123" on="1"/>
        <pt x="1349" y="123" on="1"/>
        <pt x="1349" y="25" on="1"/>
        <pt x="1280" y="8" on="0"/>
        <pt x="1128" y="-11" on="0"/>
        <pt x="1046" y="-11" on="1"/>
        <pt x="1002" y="-11" on="0"/>
        <pt x="943" y="-1" on="0"/>
        <pt x="904" y="27" on="0"/>
        <pt x="882" y="78" on="0"/>
        <pt x="875" y="119" on="1"/>
        <pt x="815" y="44" on="0"/>
        <pt x="650" y="-23" on="0"/>
        <pt x="555" y="-23" on="1"/>
        <pt x="458" y="-23" on="0"/>
        <pt x="293" y="49" on="0"/>
        <pt x="172" y="183" on="0"/>
        <pt x="104" y="372" on="0"/>
        <pt x="104" y="489" on="1"/>
        <pt x="104" y="618" on="0"/>
        <pt x="167" y="821" on="0"/>
        <pt x="286" y="963" on="0"/>
        <pt x="457" y="1038" on="0"/>
        <pt x="565" y="1038" on="1"/>
        <pt x="725" y="1038" on="0"/>
        <pt x="856" y="947" on="1"/>
        <pt x="856" y="1270" on="1"/>
        <pt x="856" y="1291" on="0"/>
        <pt x="854" y="1331" on="0"/>
        <pt x="852" y="1350" on="1"/>
        <pt x="832" y="1353" on="0"/>
        <pt x="790" y="1357" on="0"/>
        <pt x="765" y="1357" on="1"/>
        <pt x="673" y="1357" on="1"/>
        <pt x="673" y="1457" on="1"/>
        <pt x="751" y="1476" on="0"/>
        <pt x="953" y="1494" on="0"/>
        <pt x="1087" y="1494" on="1"/>
        <pt x="1115" y="1494" on="0"/>
        <pt x="1148" y="1483" on="0"/>
        <pt x="1164" y="1459" on="0"/>
        <pt x="1168" y="1422" on="0"/>
      </contour>
      <contour>
        <pt x="859" y="288" on="1"/>
        <pt x="859" y="428" on="0"/>
        <pt x="857" y="691" on="0"/>
        <pt x="853" y="821" on="1"/>
        <pt x="808" y="856" on="0"/>
        <pt x="696" y="894" on="0"/>
        <pt x="650" y="894" on="1"/>
        <pt x="586" y="894" on="0"/>
        <pt x="501" y="827" on="0"/>
        <pt x="451" y="717" on="0"/>
        <pt x="431" y="575" on="0"/>
        <pt x="431" y="500" on="1"/>
        <pt x="431" y="307" on="0"/>
        <pt x="538" y="123" on="0"/>
        <pt x="646" y="123" on="1"/>
        <pt x="718" y="123" on="0"/>
        <pt x="830" y="209" on="0"/>
      </contour>
    </TTGlyph>
    <TTGlyph name="dagger" xMin="72" yMin="0" xMax="859" yMax="1379">
      <contour>
        <pt x="72" y="939" on="1"/>
        <pt x="72" y="1066" on="1"/>
        <pt x="377" y="1066" on="1"/>
        <pt x="377" y="1379" on="1"/>
        <pt x="555" y="1379" on="1"/>
        <pt x="555" y="1066" on="1"/>
        <pt x="859" y="1066" on="1"/>
        <pt x="859" y="939" on="1"/>
        <pt x="555" y="939" on="1"/>
        <pt x="555" y="0" on="1"/>
        <pt x="377" y="0" on="1"/>
        <pt x="377" y="939" on="1"/>
      </contour>
    </TTGlyph>
    <TTGlyph name="daggerdbl" xMin="72" yMin="0" xMax="859" yMax="1379">
      <contour>
        <pt x="72" y="976" on="1"/>
        <pt x="72" y="1104" on="1"/>
        <pt x="377" y="1104" on="1"/>
        <pt x="377" y="1379" on="1"/>
        <pt x="555" y="1379" on="1"/>
        <pt x="555" y="1104" on="1"/>
        <pt x="859" y="1104" on="1"/>
        <pt x="859" y="976" on="1"/>
        <pt x="555" y="976" on="1"/>
        <pt x="555" y="404" on="1"/>
        <pt x="859" y="404" on="1"/>
        <pt x="859" y="275" on="1"/>
        <pt x="555" y="275" on="1"/>
        <pt x="555" y="0" on="1"/>
        <pt x="377" y="0" on="1"/>
        <pt x="377" y="275" on="1"/>
        <pt x="72" y="275" on="1"/>
        <pt x="72" y="404" on="1"/>
        <pt x="377" y="404" on="1"/>
        <pt x="377" y="976" on="1"/>
      </contour>
    </TTGlyph>
    <TTGlyph name="degree" xMin="98" yMin="916" xMax="627" yMax="1430">
      <contour>
        <pt x="196" y="1174" on="1"/>
        <pt x="196" y="1138" on="0"/>
        <pt x="222" y="1077" on="0"/>
        <pt x="267" y="1034" on="0"/>
        <pt x="327" y="1009" on="0"/>
        <pt x="362" y="1009" on="1"/>
        <pt x="398" y="1009" on="0"/>
        <pt x="458" y="1034" on="0"/>
        <pt x="503" y="1078" on="0"/>
        <pt x="528" y="1138" on="0"/>
        <pt x="528" y="1174" on="1"/>
        <pt x="528" y="1208" on="0"/>
        <pt x="503" y="1268" on="0"/>
        <pt x="458" y="1313" on="0"/>
        <pt x="398" y="1338" on="0"/>
        <pt x="362" y="1338" on="1"/>
        <pt x="326" y="1338" on="0"/>
        <pt x="266" y="1313" on="0"/>
        <pt x="221" y="1268" on="0"/>
        <pt x="196" y="1208" on="0"/>
      </contour>
      <contour>
        <pt x="98" y="1174" on="1"/>
        <pt x="98" y="1229" on="0"/>
        <pt x="139" y="1323" on="0"/>
        <pt x="210" y="1392" on="0"/>
        <pt x="306" y="1430" on="0"/>
        <pt x="362" y="1430" on="1"/>
        <pt x="418" y="1430" on="0"/>
        <pt x="515" y="1391" on="0"/>
        <pt x="586" y="1322" on="0"/>
        <pt x="627" y="1229" on="0"/>
        <pt x="627" y="1174" on="1"/>
        <pt x="627" y="1119" on="0"/>
        <pt x="587" y="1024" on="0"/>
        <pt x="516" y="955" on="0"/>
        <pt x="419" y="916" on="0"/>
        <pt x="362" y="916" on="1"/>
        <pt x="306" y="916" on="0"/>
        <pt x="210" y="955" on="0"/>
        <pt x="139" y="1024" on="0"/>
        <pt x="98" y="1118" on="0"/>
      </contour>
    </TTGlyph>
    <TTGlyph name="dieresis" xMin="131" yMin="1100" xMax="956" yMax="1412">
      <contour>
        <pt x="461" y="1257" on="1"/>
        <pt x="461" y="1185" on="0"/>
        <pt x="371" y="1100" on="0"/>
        <pt x="296" y="1100" on="1"/>
        <pt x="221" y="1100" on="0"/>
        <pt x="131" y="1184" on="0"/>
        <pt x="131" y="1257" on="1"/>
        <pt x="131" y="1291" on="0"/>
        <pt x="156" y="1349" on="0"/>
        <pt x="200" y="1389" on="0"/>
        <pt x="261" y="1412" on="0"/>
        <pt x="296" y="1412" on="1"/>
        <pt x="332" y="1412" on="0"/>
        <pt x="393" y="1389" on="0"/>
        <pt x="436" y="1349" on="0"/>
        <pt x="461" y="1291" on="0"/>
      </contour>
      <contour>
        <pt x="956" y="1257" on="1"/>
        <pt x="956" y="1184" on="0"/>
        <pt x="866" y="1100" on="0"/>
        <pt x="791" y="1100" on="1"/>
        <pt x="716" y="1100" on="0"/>
        <pt x="626" y="1184" on="0"/>
        <pt x="626" y="1257" on="1"/>
        <pt x="626" y="1291" on="0"/>
        <pt x="651" y="1349" on="0"/>
        <pt x="695" y="1389" on="0"/>
        <pt x="756" y="1412" on="0"/>
        <pt x="791" y="1412" on="1"/>
        <pt x="827" y="1412" on="0"/>
        <pt x="888" y="1389" on="0"/>
        <pt x="931" y="1349" on="0"/>
        <pt x="956" y="1291" on="0"/>
      </contour>
    </TTGlyph>
    <TTGlyph name="divide" xMin="163" yMin="0" xMax="955" yMax="1006">
      <contour>
        <pt x="717" y="859" on="1"/>
        <pt x="717" y="790" on="0"/>
        <pt x="633" y="709" on="0"/>
        <pt x="561" y="709" on="1"/>
        <pt x="489" y="709" on="0"/>
        <pt x="405" y="790" on="0"/>
        <pt x="405" y="859" on="1"/>
        <pt x="405" y="892" on="0"/>
        <pt x="428" y="946" on="0"/>
        <pt x="470" y="985" on="0"/>
        <pt x="527" y="1006" on="0"/>
        <pt x="561" y="1006" on="1"/>
        <pt x="594" y="1006" on="0"/>
        <pt x="651" y="985" on="0"/>
        <pt x="693" y="946" on="0"/>
        <pt x="717" y="892" on="0"/>
      </contour>
      <contour>
        <pt x="713" y="149" on="1"/>
        <pt x="713" y="80" on="0"/>
        <pt x="629" y="0" on="0"/>
        <pt x="557" y="0" on="1"/>
        <pt x="485" y="0" on="0"/>
        <pt x="401" y="80" on="0"/>
        <pt x="401" y="149" on="1"/>
        <pt x="401" y="182" on="0"/>
        <pt x="424" y="236" on="0"/>
        <pt x="466" y="275" on="0"/>
        <pt x="523" y="296" on="0"/>
        <pt x="557" y="296" on="1"/>
        <pt x="591" y="296" on="0"/>
        <pt x="648" y="275" on="0"/>
        <pt x="690" y="236" on="0"/>
        <pt x="713" y="182" on="0"/>
      </contour>
      <contour>
        <pt x="955" y="515" on="1"/>
        <pt x="955" y="473" on="0"/>
        <pt x="916" y="415" on="0"/>
        <pt x="879" y="415" on="1"/>
        <pt x="163" y="415" on="1"/>
        <pt x="163" y="506" on="1"/>
        <pt x="163" y="532" on="0"/>
        <pt x="174" y="565" on="0"/>
        <pt x="200" y="583" on="0"/>
        <pt x="240" y="590" on="0"/>
        <pt x="270" y="590" on="1"/>
        <pt x="955" y="590" on="1"/>
      </contour>
    </TTGlyph>
    <TTGlyph name="dollar" xMin="118" yMin="-213" xMax="1213" yMax="1566">
      <contour>
        <pt x="893" y="333" on="1"/>
        <pt x="893" y="408" on="0"/>
        <pt x="812" y="512" on="0"/>
        <pt x="737" y="556" on="1"/>
        <pt x="737" y="125" on="1"/>
        <pt x="772" y="133" on="0"/>
        <pt x="830" y="170" on="0"/>
        <pt x="871" y="225" on="0"/>
        <pt x="893" y="294" on="0"/>
      </contour>
      <contour>
        <pt x="460" y="1120" on="1"/>
        <pt x="457" y="1112" on="0"/>
        <pt x="456" y="1097" on="0"/>
        <pt x="456" y="1089" on="1"/>
        <pt x="456" y="1010" on="0"/>
        <pt x="539" y="908" on="0"/>
        <pt x="615" y="871" on="1"/>
        <pt x="615" y="1292" on="1"/>
        <pt x="544" y="1280" on="0"/>
        <pt x="469" y="1186" on="0"/>
      </contour>
      <contour>
        <pt x="737" y="1506" on="1"/>
        <pt x="737" y="1441" on="1"/>
        <pt x="808" y="1441" on="0"/>
        <pt x="940" y="1427" on="0"/>
        <pt x="1050" y="1398" on="0"/>
        <pt x="1130" y="1355" on="0"/>
        <pt x="1150" y="1327" on="1"/>
        <pt x="1150" y="1303" on="0"/>
        <pt x="1147" y="1279" on="1"/>
        <pt x="1148" y="1279" on="0"/>
        <pt x="1148" y="1274" on="1"/>
        <pt x="1148" y="1269" on="0"/>
        <pt x="1146" y="1254" on="0"/>
        <pt x="1144" y="1248" on="1"/>
        <pt x="1093" y="1069" on="1"/>
        <pt x="900" y="1116" on="1"/>
        <pt x="871" y="1174" on="0"/>
        <pt x="794" y="1261" on="0"/>
        <pt x="737" y="1277" on="1"/>
        <pt x="737" y="818" on="1"/>
        <pt x="825" y="781" on="0"/>
        <pt x="996" y="701" on="0"/>
        <pt x="1130" y="599" on="0"/>
        <pt x="1213" y="466" on="0"/>
        <pt x="1213" y="377" on="1"/>
        <pt x="1213" y="290" on="0"/>
        <pt x="1144" y="148" on="0"/>
        <pt x="1019" y="43" on="0"/>
        <pt x="843" y="-20" on="0"/>
        <pt x="737" y="-27" on="1"/>
        <pt x="737" y="-173" on="1"/>
        <pt x="702" y="-213" on="1"/>
        <pt x="673" y="-213" on="0"/>
        <pt x="638" y="-205" on="0"/>
        <pt x="620" y="-185" on="0"/>
        <pt x="615" y="-151" on="0"/>
        <pt x="615" y="-124" on="1"/>
        <pt x="615" y="-28" on="1"/>
        <pt x="363" y="-19" on="0"/>
        <pt x="174" y="100" on="1"/>
        <pt x="153" y="113" on="0"/>
        <pt x="126" y="135" on="0"/>
        <pt x="118" y="152" on="1"/>
        <pt x="118" y="196" on="0"/>
        <pt x="126" y="242" on="1"/>
        <pt x="199" y="419" on="1"/>
        <pt x="397" y="340" on="1"/>
        <pt x="437" y="239" on="0"/>
        <pt x="542" y="138" on="0"/>
        <pt x="615" y="125" on="1"/>
        <pt x="615" y="616" on="1"/>
        <pt x="556" y="644" on="0"/>
        <pt x="441" y="698" on="0"/>
        <pt x="337" y="754" on="0"/>
        <pt x="248" y="817" on="0"/>
        <pt x="183" y="895" on="0"/>
        <pt x="146" y="991" on="0"/>
        <pt x="146" y="1051" on="1"/>
        <pt x="146" y="1133" on="0"/>
        <pt x="212" y="1265" on="0"/>
        <pt x="334" y="1363" on="0"/>
        <pt x="507" y="1423" on="0"/>
        <pt x="615" y="1434" on="1"/>
        <pt x="615" y="1536" on="1"/>
        <pt x="650" y="1566" on="1"/>
        <pt x="693" y="1566" on="0"/>
        <pt x="733" y="1541" on="0"/>
      </contour>
    </TTGlyph>
    <TTGlyph name="dotaccent" xMin="206" yMin="1233" xMax="541" yMax="1556">
      <contour>
        <pt x="379" y="1233" on="1"/>
        <pt x="336" y="1233" on="0"/>
        <pt x="271" y="1257" on="0"/>
        <pt x="228" y="1300" on="0"/>
        <pt x="206" y="1359" on="0"/>
        <pt x="206" y="1394" on="1"/>
        <pt x="206" y="1432" on="0"/>
        <pt x="231" y="1492" on="0"/>
        <pt x="275" y="1534" on="0"/>
        <pt x="334" y="1556" on="0"/>
        <pt x="368" y="1556" on="1"/>
        <pt x="408" y="1556" on="0"/>
        <pt x="473" y="1531" on="0"/>
        <pt x="517" y="1489" on="0"/>
        <pt x="541" y="1433" on="0"/>
        <pt x="541" y="1402" on="1"/>
        <pt x="541" y="1366" on="0"/>
        <pt x="522" y="1304" on="0"/>
        <pt x="482" y="1259" on="0"/>
        <pt x="421" y="1233" on="0"/>
      </contour>
    </TTGlyph>
    <TTGlyph name="dotaccentcmb" xMin="189" yMin="525" xMax="522" yMax="852">
      <contour>
        <pt x="356" y="525" on="1"/>
        <pt x="316" y="525" on="0"/>
        <pt x="254" y="550" on="0"/>
        <pt x="211" y="594" on="0"/>
        <pt x="189" y="654" on="0"/>
        <pt x="189" y="688" on="1"/>
        <pt x="189" y="722" on="0"/>
        <pt x="212" y="782" on="0"/>
        <pt x="255" y="826" on="0"/>
        <pt x="317" y="852" on="0"/>
        <pt x="355" y="852" on="1"/>
        <pt x="393" y="852" on="0"/>
        <pt x="455" y="825" on="0"/>
        <pt x="498" y="780" on="0"/>
        <pt x="522" y="721" on="0"/>
        <pt x="522" y="688" on="1"/>
        <pt x="522" y="654" on="0"/>
        <pt x="500" y="595" on="0"/>
        <pt x="458" y="551" on="0"/>
        <pt x="396" y="525" on="0"/>
      </contour>
    </TTGlyph>
    <TTGlyph name="dotlessi" xMin="41" yMin="-14" xMax="698" yMax="1025">
      <contour>
        <pt x="223" y="280" on="1"/>
        <pt x="223" y="799" on="1"/>
        <pt x="223" y="819" on="0"/>
        <pt x="221" y="857" on="0"/>
        <pt x="218" y="877" on="1"/>
        <pt x="189" y="884" on="0"/>
        <pt x="146" y="884" on="1"/>
        <pt x="41" y="884" on="1"/>
        <pt x="41" y="990" on="1"/>
        <pt x="115" y="1006" on="0"/>
        <pt x="286" y="1025" on="0"/>
        <pt x="380" y="1025" on="1"/>
        <pt x="454" y="1025" on="0"/>
        <pt x="529" y="997" on="0"/>
        <pt x="534" y="965" on="1"/>
        <pt x="534" y="268" on="1"/>
        <pt x="534" y="227" on="0"/>
        <pt x="538" y="158" on="0"/>
        <pt x="546" y="131" on="1"/>
        <pt x="563" y="125" on="0"/>
        <pt x="601" y="117" on="0"/>
        <pt x="624" y="117" on="1"/>
        <pt x="686" y="117" on="1"/>
        <pt x="698" y="19" on="1"/>
        <pt x="552" y="-14" on="0"/>
        <pt x="390" y="-14" on="1"/>
        <pt x="353" y="-14" on="0"/>
        <pt x="290" y="-4" on="0"/>
        <pt x="243" y="18" on="0"/>
        <pt x="216" y="54" on="0"/>
        <pt x="216" y="81" on="1"/>
        <pt x="216" y="101" on="0"/>
        <pt x="218" y="150" on="0"/>
        <pt x="221" y="203" on="0"/>
        <pt x="223" y="256" on="0"/>
      </contour>
    </TTGlyph>
    <TTGlyph name="dotlessj" xMin="29" yMin="-412" xMax="685" yMax="1024">
      <contour>
        <pt x="685" y="968" on="1"/>
        <pt x="685" y="734" on="0"/>
        <pt x="684" y="273" on="0"/>
        <pt x="684" y="39" on="1"/>
        <pt x="684" y="-187" on="0"/>
        <pt x="490" y="-412" on="0"/>
        <pt x="299" y="-412" on="1"/>
        <pt x="251" y="-412" on="0"/>
        <pt x="162" y="-401" on="0"/>
        <pt x="90" y="-384" on="0"/>
        <pt x="39" y="-363" on="0"/>
        <pt x="29" y="-354" on="1"/>
        <pt x="61" y="-66" on="1"/>
        <pt x="73" y="-68" on="0"/>
        <pt x="111" y="-73" on="0"/>
        <pt x="153" y="-80" on="0"/>
        <pt x="196" y="-86" on="0"/>
        <pt x="215" y="-89" on="1"/>
        <pt x="216" y="-115" on="0"/>
        <pt x="221" y="-166" on="0"/>
        <pt x="225" y="-211" on="0"/>
        <pt x="230" y="-248" on="0"/>
        <pt x="231" y="-258" on="1"/>
        <pt x="233" y="-259" on="0"/>
        <pt x="250" y="-263" on="0"/>
        <pt x="271" y="-266" on="0"/>
        <pt x="294" y="-269" on="0"/>
        <pt x="303" y="-269" on="1"/>
        <pt x="330" y="-269" on="0"/>
        <pt x="367" y="-240" on="0"/>
        <pt x="388" y="-187" on="0"/>
        <pt x="397" y="-111" on="0"/>
        <pt x="397" y="-63" on="1"/>
        <pt x="397" y="-50" on="0"/>
        <pt x="396" y="-20" on="0"/>
        <pt x="391" y="32" on="0"/>
        <pt x="383" y="115" on="0"/>
        <pt x="377" y="181" on="1"/>
        <pt x="376" y="188" on="0"/>
        <pt x="375" y="245" on="0"/>
        <pt x="374" y="326" on="0"/>
        <pt x="374" y="425" on="0"/>
        <pt x="374" y="526" on="0"/>
        <pt x="374" y="621" on="0"/>
        <pt x="373" y="695" on="0"/>
        <pt x="373" y="740" on="0"/>
        <pt x="373" y="740" on="1"/>
        <pt x="373" y="774" on="0"/>
        <pt x="371" y="842" on="0"/>
        <pt x="369" y="874" on="1"/>
        <pt x="349" y="879" on="0"/>
        <pt x="306" y="882" on="0"/>
        <pt x="283" y="882" on="1"/>
        <pt x="191" y="882" on="1"/>
        <pt x="191" y="993" on="1"/>
        <pt x="221" y="1000" on="0"/>
        <pt x="292" y="1011" on="0"/>
        <pt x="370" y="1019" on="0"/>
        <pt x="450" y="1024" on="0"/>
        <pt x="489" y="1024" on="1"/>
        <pt x="565" y="1024" on="0"/>
        <pt x="671" y="997" on="0"/>
      </contour>
    </TTGlyph>
    <TTGlyph name="e" xMin="105" yMin="-23" xMax="1116" yMax="1034">
      <contour>
        <pt x="1028" y="224" on="1"/>
        <pt x="1081" y="132" on="1"/>
        <pt x="1012" y="52" on="0"/>
        <pt x="807" y="-23" on="0"/>
        <pt x="670" y="-23" on="1"/>
        <pt x="541" y="-23" on="0"/>
        <pt x="332" y="48" on="0"/>
        <pt x="185" y="183" on="0"/>
        <pt x="105" y="381" on="0"/>
        <pt x="105" y="509" on="1"/>
        <pt x="105" y="628" on="0"/>
        <pt x="185" y="822" on="0"/>
        <pt x="332" y="959" on="0"/>
        <pt x="540" y="1034" on="0"/>
        <pt x="669" y="1034" on="1"/>
        <pt x="765" y="1034" on="0"/>
        <pt x="929" y="980" on="0"/>
        <pt x="1049" y="878" on="0"/>
        <pt x="1116" y="731" on="0"/>
        <pt x="1116" y="638" on="1"/>
        <pt x="1116" y="582" on="0"/>
        <pt x="1094" y="514" on="0"/>
        <pt x="1048" y="477" on="0"/>
        <pt x="976" y="465" on="0"/>
        <pt x="927" y="465" on="1"/>
        <pt x="424" y="465" on="1"/>
        <pt x="441" y="304" on="0"/>
        <pt x="604" y="134" on="0"/>
        <pt x="747" y="134" on="1"/>
        <pt x="819" y="134" on="0"/>
        <pt x="959" y="177" on="0"/>
      </contour>
      <contour>
        <pt x="423" y="597" on="1"/>
        <pt x="816" y="597" on="1"/>
        <pt x="817" y="602" on="0"/>
        <pt x="817" y="610" on="0"/>
        <pt x="817" y="615" on="1"/>
        <pt x="817" y="674" on="0"/>
        <pt x="796" y="778" on="0"/>
        <pt x="751" y="855" on="0"/>
        <pt x="681" y="900" on="0"/>
        <pt x="632" y="900" on="1"/>
        <pt x="536" y="900" on="0"/>
        <pt x="434" y="747" on="0"/>
      </contour>
    </TTGlyph>
    <TTGlyph name="eacute" xMin="105" yMin="-23" xMax="1116" yMax="1502">
      <component glyphName="acute" x="215" y="-35" flags="0x1004"/>
      <component glyphName="e" x="0" y="0" flags="0x1204"/>
    </TTGlyph>
    <TTGlyph name="ecircumflex" xMin="105" yMin="-23" xMax="1116" yMax="1493">
      <component glyphName="circumflex" x="67" y="-50" flags="0x1004"/>
      <component glyphName="e" x="0" y="0" flags="0x1204"/>
    </TTGlyph>
    <TTGlyph name="edieresis" xMin="105" yMin="-23" xMax="1116" yMax="1469">
      <component glyphName="dieresis" x="126" y="57" flags="0x1004"/>
      <component glyphName="e" x="0" y="0" flags="0x1204"/>
    </TTGlyph>
    <TTGlyph name="egrave" xMin="105" yMin="-23" xMax="1116" yMax="1503">
      <component glyphName="grave" x="-81" y="-34" flags="0x1004"/>
      <component glyphName="e" x="0" y="0" flags="0x1204"/>
    </TTGlyph>
    <TTGlyph name="eight" xMin="78" yMin="-30" xMax="1128" yMax="1436">
      <contour>
        <pt x="788" y="1069" on="1"/>
        <pt x="788" y="1118" on="0"/>
        <pt x="761" y="1197" on="0"/>
        <pt x="710" y="1253" on="0"/>
        <pt x="637" y="1283" on="0"/>
        <pt x="592" y="1283" on="1"/>
        <pt x="500" y="1283" on="0"/>
        <pt x="398" y="1169" on="0"/>
        <pt x="398" y="1069" on="1"/>
        <pt x="398" y="973" on="0"/>
        <pt x="520" y="841" on="0"/>
        <pt x="628" y="803" on="1"/>
        <pt x="788" y="867" on="0"/>
      </contour>
      <contour>
        <pt x="583" y="626" on="1"/>
        <pt x="572" y="630" on="0"/>
        <pt x="549" y="639" on="0"/>
        <pt x="538" y="643" on="1"/>
        <pt x="458" y="598" on="0"/>
        <pt x="373" y="455" on="0"/>
        <pt x="373" y="359" on="1"/>
        <pt x="373" y="303" on="0"/>
        <pt x="405" y="216" on="0"/>
        <pt x="462" y="156" on="0"/>
        <pt x="543" y="125" on="0"/>
        <pt x="592" y="125" on="1"/>
        <pt x="649" y="125" on="0"/>
        <pt x="734" y="159" on="0"/>
        <pt x="791" y="219" on="0"/>
        <pt x="819" y="299" on="0"/>
        <pt x="819" y="344" on="1"/>
        <pt x="819" y="446" on="0"/>
        <pt x="694" y="588" on="0"/>
      </contour>
      <contour>
        <pt x="1081" y="1078" on="1"/>
        <pt x="1081" y="1023" on="0"/>
        <pt x="1044" y="929" on="0"/>
        <pt x="978" y="845" on="0"/>
        <pt x="886" y="767" on="0"/>
        <pt x="831" y="727" on="1"/>
        <pt x="887" y="703" on="0"/>
        <pt x="994" y="636" on="0"/>
        <pt x="1077" y="547" on="0"/>
        <pt x="1128" y="437" on="0"/>
        <pt x="1128" y="370" on="1"/>
        <pt x="1128" y="265" on="0"/>
        <pt x="1045" y="114" on="0"/>
        <pt x="900" y="16" on="0"/>
        <pt x="704" y="-30" on="0"/>
        <pt x="592" y="-30" on="1"/>
        <pt x="484" y="-30" on="0"/>
        <pt x="296" y="17" on="0"/>
        <pt x="157" y="108" on="0"/>
        <pt x="78" y="242" on="0"/>
        <pt x="78" y="328" on="1"/>
        <pt x="78" y="450" on="0"/>
        <pt x="210" y="650" on="0"/>
        <pt x="357" y="722" on="1"/>
        <pt x="232" y="785" on="0"/>
        <pt x="99" y="955" on="0"/>
        <pt x="99" y="1081" on="1"/>
        <pt x="99" y="1163" on="0"/>
        <pt x="174" y="1294" on="0"/>
        <pt x="306" y="1386" on="0"/>
        <pt x="487" y="1436" on="0"/>
        <pt x="592" y="1436" on="1"/>
        <pt x="692" y="1436" on="0"/>
        <pt x="870" y="1389" on="0"/>
        <pt x="1003" y="1298" on="0"/>
        <pt x="1081" y="1164" on="0"/>
      </contour>
    </TTGlyph>
    <TTGlyph name="ellipsis" xMin="154" yMin="-24" xMax="1814" yMax="295">
      <contour>
        <pt x="1496" y="136" on="1"/>
        <pt x="1496" y="210" on="0"/>
        <pt x="1581" y="295" on="0"/>
        <pt x="1654" y="295" on="1"/>
        <pt x="1692" y="295" on="0"/>
        <pt x="1752" y="271" on="0"/>
        <pt x="1793" y="229" on="0"/>
        <pt x="1814" y="170" on="0"/>
        <pt x="1814" y="136" on="1"/>
        <pt x="1814" y="61" on="0"/>
        <pt x="1729" y="-24" on="0"/>
        <pt x="1654" y="-24" on="1"/>
        <pt x="1579" y="-24" on="0"/>
        <pt x="1496" y="61" on="0"/>
      </contour>
      <contour>
        <pt x="824" y="136" on="1"/>
        <pt x="824" y="210" on="0"/>
        <pt x="909" y="295" on="0"/>
        <pt x="984" y="295" on="1"/>
        <pt x="1057" y="295" on="0"/>
        <pt x="1143" y="208" on="0"/>
        <pt x="1143" y="136" on="1"/>
        <pt x="1143" y="61" on="0"/>
        <pt x="1059" y="-24" on="0"/>
        <pt x="984" y="-24" on="1"/>
        <pt x="907" y="-24" on="0"/>
        <pt x="824" y="61" on="0"/>
      </contour>
      <contour>
        <pt x="154" y="136" on="1"/>
        <pt x="154" y="210" on="0"/>
        <pt x="240" y="295" on="0"/>
        <pt x="313" y="295" on="1"/>
        <pt x="387" y="295" on="0"/>
        <pt x="472" y="208" on="0"/>
        <pt x="472" y="136" on="1"/>
        <pt x="472" y="61" on="0"/>
        <pt x="388" y="-24" on="0"/>
        <pt x="313" y="-24" on="1"/>
        <pt x="238" y="-24" on="0"/>
        <pt x="154" y="61" on="0"/>
      </contour>
    </TTGlyph>
    <TTGlyph name="emdash" xMin="-10" yMin="496" xMax="1795" yMax="649">
      <contour>
        <pt x="1708" y="496" on="1"/>
        <pt x="-10" y="496" on="1"/>
        <pt x="-10" y="569" on="1"/>
        <pt x="-10" y="597" on="0"/>
        <pt x="9" y="629" on="0"/>
        <pt x="46" y="645" on="0"/>
        <pt x="101" y="649" on="0"/>
        <pt x="136" y="649" on="1"/>
        <pt x="1795" y="649" on="1"/>
        <pt x="1795" y="577" on="1"/>
        <pt x="1795" y="538" on="0"/>
        <pt x="1750" y="501" on="0"/>
      </contour>
    </TTGlyph>
    <TTGlyph name="endash" xMin="-10" yMin="496" xMax="1063" yMax="649">
      <contour>
        <pt x="990" y="496" on="1"/>
        <pt x="-10" y="496" on="1"/>
        <pt x="-10" y="569" on="1"/>
        <pt x="-10" y="597" on="0"/>
        <pt x="9" y="629" on="0"/>
        <pt x="46" y="645" on="0"/>
        <pt x="101" y="649" on="0"/>
        <pt x="136" y="649" on="1"/>
        <pt x="1063" y="649" on="1"/>
        <pt x="1063" y="577" on="1"/>
        <pt x="1063" y="539" on="0"/>
        <pt x="1025" y="501" on="0"/>
      </contour>
    </TTGlyph>
    <TTGlyph name="equal" xMin="131" yMin="317" xMax="1216" yMax="866">
      <contour>
        <pt x="1131" y="317" on="1"/>
        <pt x="131" y="317" on="1"/>
        <pt x="131" y="395" on="1"/>
        <pt x="131" y="425" on="0"/>
        <pt x="143" y="459" on="0"/>
        <pt x="173" y="476" on="0"/>
        <pt x="223" y="481" on="0"/>
        <pt x="261" y="481" on="1"/>
        <pt x="1216" y="481" on="1"/>
        <pt x="1216" y="405" on="1"/>
        <pt x="1216" y="370" on="0"/>
        <pt x="1176" y="331" on="0"/>
      </contour>
      <contour>
        <pt x="1132" y="700" on="1"/>
        <pt x="131" y="700" on="1"/>
        <pt x="131" y="779" on="1"/>
        <pt x="131" y="810" on="0"/>
        <pt x="149" y="845" on="0"/>
        <pt x="182" y="862" on="0"/>
        <pt x="229" y="866" on="0"/>
        <pt x="257" y="866" on="1"/>
        <pt x="1216" y="866" on="1"/>
        <pt x="1216" y="788" on="1"/>
        <pt x="1216" y="750" on="0"/>
        <pt x="1170" y="712" on="0"/>
      </contour>
    </TTGlyph>
    <TTGlyph name="estimated" xMin="102" yMin="-29" xMax="1791" yMax="1341">
      <contour>
        <pt x="947" y="64" on="1"/>
        <pt x="1005" y="64" on="0"/>
        <pt x="1111" y="97" on="0"/>
        <pt x="1209" y="155" on="0"/>
        <pt x="1298" y="235" on="0"/>
        <pt x="1339" y="283" on="1"/>
        <pt x="1650" y="283" on="1"/>
        <pt x="1589" y="211" on="0"/>
        <pt x="1436" y="95" on="0"/>
        <pt x="1257" y="14" on="0"/>
        <pt x="1055" y="-29" on="0"/>
        <pt x="946" y="-29" on="1"/>
        <pt x="839" y="-29" on="0"/>
        <pt x="632" y="15" on="0"/>
        <pt x="444" y="99" on="0"/>
        <pt x="284" y="219" on="0"/>
        <pt x="168" y="371" on="0"/>
        <pt x="102" y="552" on="0"/>
        <pt x="102" y="655" on="1"/>
        <pt x="102" y="761" on="0"/>
        <pt x="171" y="946" on="0"/>
        <pt x="292" y="1098" on="0"/>
        <pt x="455" y="1217" on="0"/>
        <pt x="642" y="1299" on="0"/>
        <pt x="846" y="1341" on="0"/>
        <pt x="946" y="1341" on="1"/>
        <pt x="1067" y="1341" on="0"/>
        <pt x="1286" y="1290" on="0"/>
        <pt x="1474" y="1199" on="0"/>
        <pt x="1626" y="1073" on="0"/>
        <pt x="1733" y="920" on="0"/>
        <pt x="1791" y="747" on="0"/>
        <pt x="1791" y="655" on="1"/>
        <pt x="1791" y="609" on="1"/>
        <pt x="595" y="609" on="1"/>
        <pt x="595" y="234" on="1"/>
        <pt x="770" y="64" on="0"/>
      </contour>
      <contour>
        <pt x="1295" y="701" on="1"/>
        <pt x="1295" y="1083" on="1"/>
        <pt x="1120" y="1246" on="0"/>
        <pt x="947" y="1246" on="1"/>
        <pt x="771" y="1246" on="0"/>
        <pt x="595" y="1076" on="1"/>
        <pt x="595" y="701" on="1"/>
      </contour>
    </TTGlyph>
    <TTGlyph name="eth" xMin="115" yMin="-35" xMax="1206" yMax="1567">
      <contour>
        <pt x="675" y="99" on="1"/>
        <pt x="727" y="99" on="0"/>
        <pt x="807" y="160" on="0"/>
        <pt x="859" y="273" on="0"/>
        <pt x="886" y="434" on="0"/>
        <pt x="886" y="535" on="1"/>
        <pt x="886" y="577" on="0"/>
        <pt x="880" y="652" on="0"/>
        <pt x="876" y="686" on="1"/>
        <pt x="856" y="735" on="0"/>
        <pt x="806" y="804" on="0"/>
        <pt x="750" y="847" on="0"/>
        <pt x="687" y="866" on="0"/>
        <pt x="653" y="866" on="1"/>
        <pt x="548" y="866" on="0"/>
        <pt x="443" y="675" on="0"/>
        <pt x="443" y="492" on="1"/>
        <pt x="443" y="392" on="0"/>
        <pt x="468" y="244" on="0"/>
        <pt x="523" y="147" on="0"/>
        <pt x="612" y="99" on="0"/>
      </contour>
      <contour>
        <pt x="287" y="1408" on="1"/>
        <pt x="350" y="1516" on="1"/>
        <pt x="609" y="1497" on="0"/>
        <pt x="759" y="1421" on="1"/>
        <pt x="1006" y="1567" on="1"/>
        <pt x="1027" y="1537" on="0"/>
        <pt x="1054" y="1501" on="0"/>
        <pt x="1071" y="1478" on="0"/>
        <pt x="1080" y="1466" on="0"/>
        <pt x="1083" y="1461" on="1"/>
        <pt x="1074" y="1446" on="0"/>
        <pt x="1032" y="1414" on="0"/>
        <pt x="979" y="1383" on="0"/>
        <pt x="921" y="1352" on="0"/>
        <pt x="895" y="1338" on="1"/>
        <pt x="1051" y="1213" on="0"/>
        <pt x="1206" y="841" on="0"/>
        <pt x="1206" y="609" on="1"/>
        <pt x="1206" y="474" on="0"/>
        <pt x="1138" y="239" on="0"/>
        <pt x="1001" y="65" on="0"/>
        <pt x="793" y="-35" on="0"/>
        <pt x="653" y="-35" on="1"/>
        <pt x="536" y="-35" on="0"/>
        <pt x="339" y="36" on="0"/>
        <pt x="195" y="171" on="0"/>
        <pt x="115" y="366" on="0"/>
        <pt x="115" y="490" on="1"/>
        <pt x="115" y="616" on="0"/>
        <pt x="204" y="806" on="0"/>
        <pt x="352" y="932" on="0"/>
        <pt x="547" y="995" on="0"/>
        <pt x="653" y="995" on="1"/>
        <pt x="712" y="995" on="0"/>
        <pt x="812" y="972" on="0"/>
        <pt x="857" y="941" on="1"/>
        <pt x="835" y="1036" on="0"/>
        <pt x="752" y="1174" on="0"/>
        <pt x="699" y="1219" on="1"/>
        <pt x="457" y="1077" on="1"/>
        <pt x="434" y="1106" on="0"/>
        <pt x="405" y="1142" on="0"/>
        <pt x="387" y="1164" on="0"/>
        <pt x="377" y="1176" on="0"/>
        <pt x="374" y="1182" on="1"/>
        <pt x="379" y="1192" on="0"/>
        <pt x="412" y="1216" on="0"/>
        <pt x="441" y="1233" on="1"/>
        <pt x="576" y="1313" on="1"/>
        <pt x="451" y="1384" on="0"/>
      </contour>
    </TTGlyph>
    <TTGlyph name="exclam" xMin="216" yMin="-22" xMax="568" yMax="1435">
      <contour>
        <pt x="399" y="-22" on="1"/>
        <pt x="359" y="-22" on="0"/>
        <pt x="296" y="3" on="0"/>
        <pt x="253" y="47" on="0"/>
        <pt x="230" y="106" on="0"/>
        <pt x="230" y="141" on="1"/>
        <pt x="230" y="175" on="0"/>
        <pt x="254" y="234" on="0"/>
        <pt x="298" y="278" on="0"/>
        <pt x="360" y="304" on="0"/>
        <pt x="399" y="304" on="1"/>
        <pt x="438" y="304" on="0"/>
        <pt x="501" y="278" on="0"/>
        <pt x="544" y="233" on="0"/>
        <pt x="568" y="174" on="0"/>
        <pt x="568" y="141" on="1"/>
        <pt x="568" y="106" on="0"/>
        <pt x="545" y="47" on="0"/>
        <pt x="502" y="3" on="0"/>
        <pt x="439" y="-22" on="0"/>
      </contour>
      <contour>
        <pt x="491" y="435" on="1"/>
        <pt x="474" y="427" on="0"/>
        <pt x="433" y="418" on="0"/>
        <pt x="413" y="418" on="1"/>
        <pt x="378" y="418" on="0"/>
        <pt x="334" y="425" on="0"/>
        <pt x="308" y="445" on="0"/>
        <pt x="296" y="480" on="0"/>
        <pt x="294" y="507" on="1"/>
        <pt x="280" y="659" on="0"/>
        <pt x="254" y="952" on="0"/>
        <pt x="242" y="1107" on="1"/>
        <pt x="238" y="1155" on="0"/>
        <pt x="229" y="1241" on="0"/>
        <pt x="221" y="1310" on="0"/>
        <pt x="216" y="1358" on="0"/>
        <pt x="216" y="1370" on="1"/>
        <pt x="216" y="1372" on="0"/>
        <pt x="217" y="1377" on="0"/>
        <pt x="217" y="1379" on="1"/>
        <pt x="279" y="1435" on="0"/>
        <pt x="398" y="1435" on="1"/>
        <pt x="435" y="1435" on="0"/>
        <pt x="495" y="1427" on="0"/>
        <pt x="537" y="1404" on="0"/>
        <pt x="559" y="1362" on="0"/>
        <pt x="559" y="1328" on="1"/>
        <pt x="559" y="1316" on="0"/>
        <pt x="559" y="1286" on="0"/>
        <pt x="557" y="1269" on="1"/>
        <pt x="518" y="817" on="1"/>
        <pt x="506" y="682" on="0"/>
        <pt x="490" y="498" on="0"/>
      </contour>
    </TTGlyph>
    <TTGlyph name="exclamdown" xMin="216" yMin="-22" xMax="568" yMax="1435">
      <component glyphName="exclam" x="0" y="1413" scalex="1.0" scaley="-0.999938964844" flags="0x1004"/>
    </TTGlyph>
    <TTGlyph name="f" xMin="47" yMin="-12" xMax="990" yMax="1491">
      <contour>
        <pt x="121" y="-12" on="1"/>
        <pt x="125" y="95" on="1"/>
        <pt x="176" y="101" on="0"/>
        <pt x="231" y="115" on="0"/>
        <pt x="258" y="142" on="0"/>
        <pt x="263" y="186" on="0"/>
        <pt x="263" y="222" on="1"/>
        <pt x="263" y="870" on="1"/>
        <pt x="47" y="870" on="1"/>
        <pt x="47" y="925" on="1"/>
        <pt x="47" y="952" on="0"/>
        <pt x="71" y="984" on="0"/>
        <pt x="109" y="1002" on="0"/>
        <pt x="154" y="1008" on="0"/>
        <pt x="174" y="1008" on="1"/>
        <pt x="263" y="1008" on="1"/>
        <pt x="263" y="1087" on="1"/>
        <pt x="263" y="1196" on="0"/>
        <pt x="337" y="1350" on="0"/>
        <pt x="461" y="1447" on="0"/>
        <pt x="625" y="1491" on="0"/>
        <pt x="715" y="1491" on="1"/>
        <pt x="804" y="1491" on="0"/>
        <pt x="939" y="1459" on="0"/>
        <pt x="990" y="1434" on="1"/>
        <pt x="990" y="1210" on="1"/>
        <pt x="828" y="1210" on="1"/>
        <pt x="808" y="1278" on="0"/>
        <pt x="752" y="1353" on="0"/>
        <pt x="725" y="1357" on="1"/>
        <pt x="686" y="1357" on="0"/>
        <pt x="630" y="1339" on="0"/>
        <pt x="594" y="1290" on="0"/>
        <pt x="576" y="1201" on="0"/>
        <pt x="576" y="1131" on="1"/>
        <pt x="576" y="1008" on="1"/>
        <pt x="847" y="1008" on="1"/>
        <pt x="847" y="946" on="1"/>
        <pt x="847" y="920" on="0"/>
        <pt x="826" y="889" on="0"/>
        <pt x="790" y="874" on="0"/>
        <pt x="743" y="870" on="0"/>
        <pt x="716" y="870" on="1"/>
        <pt x="576" y="870" on="1"/>
        <pt x="576" y="269" on="1"/>
        <pt x="576" y="220" on="0"/>
        <pt x="581" y="159" on="0"/>
        <pt x="610" y="121" on="0"/>
        <pt x="672" y="102" on="0"/>
        <pt x="730" y="95" on="1"/>
        <pt x="739" y="-12" on="1"/>
        <pt x="621" y="-7" on="1"/>
        <pt x="558" y="-5" on="0"/>
        <pt x="458" y="0" on="0"/>
        <pt x="416" y="0" on="1"/>
        <pt x="348" y="0" on="0"/>
        <pt x="204" y="-6" on="0"/>
      </contour>
    </TTGlyph>
</ttFont>
